<svg width="60" height="60" viewBox="0 0 60 60" fill="none" xmlns="http://www.w3.org/2000/svg">
<rect width="60" height="60" rx="30" fill="#F2EEEB"/>
<path d="M25.6625 18.6123C25.5814 18.5627 25.5162 18.4911 25.4744 18.4058C25.4325 18.3204 25.4159 18.225 25.4264 18.1305C25.4369 18.0361 25.4741 17.9466 25.5336 17.8725C25.5931 17.7984 25.6725 17.7429 25.7625 17.7123C27.5844 17.0821 29.5239 16.8661 31.4398 17.0802C33.3557 17.2943 35.1997 17.933 36.8375 18.9498C36.8984 18.9862 36.9509 19.0351 36.9915 19.0933C37.0321 19.1516 37.0598 19.2177 37.0728 19.2875C37.0858 19.3573 37.0838 19.429 37.0669 19.4979C37.0501 19.5669 37.0187 19.6314 36.975 19.6873C35.5217 21.5315 33.7474 23.0983 31.7375 24.3123C30.1109 22.0279 28.0458 20.0902 25.6625 18.6123V18.6123ZM29.95 25.2498C28.1199 22.7632 25.7192 20.7526 22.95 19.3873C22.8682 19.3503 22.7785 19.3343 22.689 19.3408C22.5995 19.3474 22.513 19.3763 22.4375 19.4248C20.1969 21.0386 18.5218 23.3173 17.65 25.9373C17.6294 26.0038 17.6229 26.0739 17.6309 26.143C17.6389 26.2122 17.6613 26.2789 17.6966 26.3389C17.7319 26.399 17.7793 26.4509 17.8359 26.4916C17.8924 26.5322 17.9569 26.5605 18.025 26.5748C19.3312 26.8567 20.6637 26.9992 22 26.9998C24.7459 27.0033 27.4593 26.406 29.95 25.2498V25.2498ZM42.925 28.5873C42.6053 25.6879 41.3197 22.9802 39.275 20.8998C39.2245 20.8506 39.1644 20.8124 39.0985 20.7875C39.0326 20.7626 38.9622 20.7516 38.8918 20.7551C38.8214 20.7586 38.7525 20.7766 38.6894 20.808C38.6263 20.8393 38.5703 20.8833 38.525 20.9373C36.9443 22.9545 35.0084 24.666 32.8125 25.9873C33.4974 27.1759 34.0667 28.4275 34.5125 29.7248C36.3015 29.2411 38.1468 28.9973 40 28.9998C40.7936 29.0016 41.5865 29.0475 42.375 29.1373C42.4492 29.1452 42.5241 29.1364 42.5944 29.1115C42.6648 29.0867 42.7286 29.0464 42.7813 28.9937C42.8341 28.9409 42.8743 28.8771 42.8992 28.8068C42.9241 28.7364 42.9329 28.6615 42.925 28.5873V28.5873ZM35.0625 31.6498C35.4297 33.2276 35.6143 34.8424 35.6125 36.4623C35.6116 38.0098 35.4397 39.5525 35.1 41.0623C35.0777 41.1551 35.0825 41.2524 35.1138 41.3426C35.145 41.4329 35.2014 41.5122 35.2764 41.5714C35.3513 41.6306 35.4416 41.667 35.5366 41.6765C35.6316 41.686 35.7274 41.668 35.8125 41.6248C37.7093 40.6761 39.3454 39.2782 40.5785 37.5527C41.8116 35.8273 42.6042 33.8266 42.8875 31.7248C42.8962 31.6591 42.8918 31.5922 42.8745 31.5282C42.8571 31.4642 42.8273 31.4043 42.7865 31.3519C42.7458 31.2996 42.6951 31.2559 42.6373 31.2233C42.5795 31.1908 42.5159 31.17 42.45 31.1623C41.6381 31.0514 40.8194 30.9971 40 30.9998C38.3327 30.9977 36.6725 31.2163 35.0625 31.6498V31.6498ZM32.6 30.3498C32.2039 29.1653 31.6844 28.0257 31.05 26.9498C28.2251 28.3026 25.1322 29.0032 22 28.9998C20.5336 28.999 19.0714 28.844 17.6375 28.5373C17.568 28.5229 17.4963 28.5234 17.4271 28.5389C17.3578 28.5543 17.2927 28.5843 17.2359 28.6269C17.1792 28.6694 17.1321 28.7236 17.0979 28.7857C17.0637 28.8479 17.0431 28.9166 17.0375 28.9873C17.0125 29.3206 17 29.6581 17 29.9998C16.9994 31.7797 17.3653 33.5406 18.075 35.1729C18.7847 36.8052 19.8229 38.2738 21.125 39.4873C21.1787 39.5388 21.2434 39.5774 21.3143 39.6C21.3851 39.6227 21.4602 39.6288 21.5338 39.618C21.6074 39.6071 21.6776 39.5796 21.7389 39.5374C21.8002 39.4953 21.851 39.4396 21.8875 39.3748C24.3265 35.2344 28.1057 32.0505 32.6 30.3498V30.3498ZM23.4625 40.6498C23.4291 40.7071 23.4075 40.7705 23.3989 40.8363C23.3903 40.902 23.3948 40.9688 23.4123 41.0328C23.4297 41.0968 23.4597 41.1567 23.5006 41.2089C23.5414 41.2612 23.5922 41.3049 23.65 41.3373C25.5873 42.4313 27.7752 43.0041 30 42.9998C30.7587 43.0031 31.5161 42.9362 32.2625 42.7998C32.3489 42.7855 32.4296 42.7475 32.4958 42.6902C32.562 42.6328 32.611 42.5583 32.6375 42.4748C33.2859 40.5366 33.6152 38.506 33.6125 36.4623C33.6118 35.0538 33.4567 33.6495 33.15 32.2748C29.0554 33.8721 25.6349 36.8292 23.4625 40.6498V40.6498Z" fill="#594842"/>
</svg>
