<svg width="60" height="60" viewBox="0 0 60 60" fill="none" xmlns="http://www.w3.org/2000/svg">
<rect width="60" height="60" rx="30" fill="#F2EEEB"/>
<path d="M42 42.0001C42 42.2653 41.8946 42.5196 41.7071 42.7072C41.5196 42.8947 41.2652 43.0001 41 43.0001C39.9401 42.9968 38.9246 42.5743 38.1752 41.8248C37.4258 41.0754 37.0033 40.0599 37 39.0001V38.0001C37 37.4696 36.7893 36.9609 36.4142 36.5858C36.0391 36.2108 35.5304 36.0001 35 36.0001H33.5V41.0001C33.5 41.5305 33.7107 42.0392 34.0858 42.4143C34.4609 42.7893 34.9696 43.0001 35.5 43.0001C35.7652 43.0001 36.0196 43.1054 36.2071 43.293C36.3946 43.4805 36.5 43.7348 36.5 44.0001C36.5 44.2653 36.3946 44.5196 36.2071 44.7072C36.0196 44.8947 35.7652 45.0001 35.5 45.0001C34.4401 44.9968 33.4246 44.5743 32.6752 43.8248C31.9258 43.0754 31.5033 42.0599 31.5 41.0001V36.0001H28.5V41.0001C28.4967 42.0599 28.0742 43.0754 27.3248 43.8248C26.5754 44.5743 25.5599 44.9968 24.5 45.0001C24.2348 45.0001 23.9804 44.8947 23.7929 44.7072C23.6054 44.5196 23.5 44.2653 23.5 44.0001C23.5 43.7348 23.6054 43.4805 23.7929 43.293C23.9804 43.1054 24.2348 43.0001 24.5 43.0001C25.0304 43.0001 25.5391 42.7893 25.9142 42.4143C26.2893 42.0392 26.5 41.5305 26.5 41.0001V36.0001H25C24.4696 36.0001 23.9609 36.2108 23.5858 36.5858C23.2107 36.9609 23 37.4696 23 38.0001V39.0001C22.9967 40.0599 22.5742 41.0754 21.8248 41.8248C21.0754 42.5743 20.0599 42.9968 19 43.0001C18.7348 43.0001 18.4804 42.8947 18.2929 42.7072C18.1054 42.5196 18 42.2653 18 42.0001C18 41.7348 18.1054 41.4805 18.2929 41.293C18.4804 41.1054 18.7348 41.0001 19 41.0001C19.5304 41.0001 20.0391 40.7893 20.4142 40.4143C20.7893 40.0392 21 39.5305 21 39.0001V38.0001C21.0008 37.3275 21.1707 36.666 21.4939 36.0763C21.8172 35.4865 22.2835 34.9875 22.85 34.6251C21.9666 33.9772 21.2482 33.1303 20.7531 32.153C20.2579 31.1758 19.9999 30.0956 20 29.0001V28.0001C20.0125 26.7579 20.3439 25.5398 20.9625 24.4626C20.6578 23.4759 20.5604 22.4368 20.6766 21.4107C20.7927 20.3846 21.1199 19.3936 21.6375 18.5001C21.723 18.3468 21.8482 18.2195 22 18.1315C22.1518 18.0435 22.3245 17.9981 22.5 18.0001C23.6649 17.9971 24.8142 18.2669 25.8561 18.7879C26.898 19.3088 27.8034 20.0664 28.5 21.0001H31.5C32.1966 20.0664 33.102 19.3088 34.1439 18.7879C35.1858 18.2669 36.3351 17.9971 37.5 18.0001C37.6755 17.9981 37.8482 18.0435 38 18.1315C38.1518 18.2195 38.277 18.3468 38.3625 18.5001C38.8801 19.3936 39.2073 20.3846 39.3234 21.4107C39.4396 22.4368 39.3422 23.4759 39.0375 24.4626C39.6561 25.5398 39.9875 26.7579 40 28.0001V29.0001C40.0001 30.0956 39.7421 31.1758 39.247 32.153C38.7518 33.1303 38.0334 33.9772 37.15 34.6251C37.7165 34.9875 38.1828 35.4865 38.5061 36.0763C38.8293 36.666 38.9992 37.3275 39 38.0001V39.0001C39 39.5305 39.2107 40.0392 39.5858 40.4143C39.9609 40.7893 40.4696 41.0001 41 41.0001C41.2652 41.0001 41.5196 41.1054 41.7071 41.293C41.8946 41.4805 42 41.7348 42 42.0001Z" fill="#594842"/>
</svg>
