<svg width="60" height="60" viewBox="0 0 60 60" fill="none" xmlns="http://www.w3.org/2000/svg">
<rect width="60" height="60" rx="30" fill="#F2EEEB"/>
<path d="M40.5 17.5H19.5C18.9696 17.5 18.4609 17.7107 18.0858 18.0858C17.7107 18.4609 17.5 18.9696 17.5 19.5V40.5C17.5 41.0304 17.7107 41.5391 18.0858 41.9142C18.4609 42.2893 18.9696 42.5 19.5 42.5H40.5C41.0304 42.5 41.5391 42.2893 41.9142 41.9142C42.2893 41.5391 42.5 41.0304 42.5 40.5V19.5C42.5 18.9696 42.2893 18.4609 41.9142 18.0858C41.5391 17.7107 41.0304 17.5 40.5 17.5ZM26 36C26 36.2652 25.8946 36.5196 25.7071 36.7071C25.5196 36.8946 25.2652 37 25 37C24.7348 37 24.4804 36.8946 24.2929 36.7071C24.1054 36.5196 24 36.2652 24 36V28C24 27.7348 24.1054 27.4804 24.2929 27.2929C24.4804 27.1054 24.7348 27 25 27C25.2652 27 25.5196 27.1054 25.7071 27.2929C25.8946 27.4804 26 27.7348 26 28V36ZM25 25.5C24.7033 25.5 24.4133 25.412 24.1666 25.2472C23.92 25.0824 23.7277 24.8481 23.6142 24.574C23.5006 24.2999 23.4709 23.9983 23.5288 23.7074C23.5867 23.4164 23.7296 23.1491 23.9393 22.9393C24.1491 22.7296 24.4164 22.5867 24.7074 22.5288C24.9983 22.4709 25.2999 22.5006 25.574 22.6142C25.8481 22.7277 26.0824 22.92 26.2472 23.1666C26.412 23.4133 26.5 23.7033 26.5 24C26.5 24.3978 26.342 24.7794 26.0607 25.0607C25.7794 25.342 25.3978 25.5 25 25.5V25.5ZM37 36C37 36.2652 36.8946 36.5196 36.7071 36.7071C36.5196 36.8946 36.2652 37 36 37C35.7348 37 35.4804 36.8946 35.2929 36.7071C35.1054 36.5196 35 36.2652 35 36V31.5C35 30.837 34.7366 30.2011 34.2678 29.7322C33.7989 29.2634 33.163 29 32.5 29C31.837 29 31.2011 29.2634 30.7322 29.7322C30.2634 30.2011 30 30.837 30 31.5V36C30 36.2652 29.8946 36.5196 29.7071 36.7071C29.5196 36.8946 29.2652 37 29 37C28.7348 37 28.4804 36.8946 28.2929 36.7071C28.1054 36.5196 28 36.2652 28 36V28C27.9993 27.7539 28.0894 27.5162 28.253 27.3324C28.4166 27.1485 28.6423 27.0315 28.8868 27.0036C29.1313 26.9758 29.3775 27.039 29.5783 27.1814C29.7791 27.3237 29.9203 27.535 29.975 27.775C30.6516 27.3163 31.4405 27.0506 32.2567 27.0064C33.073 26.9622 33.8859 27.1412 34.6081 27.5242C35.3303 27.9071 35.9346 28.4796 36.356 29.18C36.7774 29.8805 37 30.6825 37 31.5V36Z" fill="#594842"/>
</svg>
