<svg width="60" height="60" viewBox="0 0 60 60" fill="none" xmlns="http://www.w3.org/2000/svg">
<path d="M33.5378 59.0776C26.2978 59.0547 19.5096 56.2272 14.4226 51.1144C9.33559 46.0017 6.53491 39.1926 6.53491 31.9401C6.53513 26.8487 7.96516 21.86 10.6616 17.5442C13.358 13.2284 17.212 9.75944 21.7833 7.53383C26.3545 5.30822 31.4586 4.41569 36.5122 4.95825C41.5658 5.5008 46.3651 7.45655 50.3618 10.602C55.0372 14.2937 58.3769 19.4178 59.8701 25.1908C60.0196 25.7781 60.0378 26.3912 59.9234 26.9864C59.8091 27.5816 59.5649 28.1441 59.2084 28.6338C58.8519 29.1236 58.3919 29.5284 57.8612 29.8194C57.3305 30.1105 56.7421 30.2806 56.1382 30.3175L44.7793 31.0152C44.5744 31.0271 44.3654 31.0341 44.1605 31.0341C39.5839 31.0341 35.6202 27.9744 34.5218 23.5932C34.4979 23.4935 34.474 23.3989 34.4521 23.3012C33.9766 25.4099 32.9143 27.3405 31.3883 28.8693C29.8624 30.3981 27.9352 31.4624 25.8302 31.9391C27.935 32.4159 29.8617 33.4806 31.3872 35.0096C32.9126 36.5385 33.9743 38.4692 34.4491 40.5779C34.471 40.4783 34.4939 40.3786 34.5188 40.2859C35.6132 35.9007 39.5809 32.845 44.1565 32.845C44.3624 32.845 44.5704 32.852 44.7763 32.8639L56.1352 33.5616C56.7402 33.5991 57.3295 33.7701 57.8608 34.0623C58.3922 34.3545 58.8525 34.7607 59.2089 35.2519C59.5653 35.743 59.8089 36.307 59.9224 36.9035C60.0358 37.5 60.0163 38.1142 59.8651 38.7023C58.37 44.5348 54.9797 49.703 50.2285 53.3922C45.4774 57.0813 39.6357 59.0816 33.6244 59.0776H33.5378Z" fill="#594842"/>
<path d="M33.4275 58.9836C26.1885 58.9616 19.3992 56.1332 14.3132 51.0204C9.22723 45.9076 6.42456 39.0996 6.42456 31.847C6.42483 26.7555 7.85491 21.7668 10.5514 17.4509C13.2478 13.135 17.1019 9.66599 21.6732 7.44029C26.2445 5.2146 31.3487 4.32198 36.4024 4.86445C41.4562 5.40691 46.2556 7.36258 50.2524 10.508C54.928 14.1998 58.2674 19.3244 59.7598 25.0978C59.9091 25.6852 59.9271 26.2984 59.8126 26.8935C59.698 27.4887 59.4536 28.0512 59.0969 28.5409C58.7403 29.0305 58.28 29.4352 57.7492 29.7261C57.2183 30.0169 56.6298 30.1868 56.0259 30.2235L44.667 30.9212C44.462 30.9341 44.2541 30.9401 44.0481 30.9401C39.4715 30.9401 35.5088 27.8814 34.4094 23.5002C34.3855 23.4038 34.3627 23.3062 34.3408 23.2072C33.8651 25.316 32.8027 27.2467 31.2766 28.7755C29.7504 30.3043 27.8231 31.3686 25.7179 31.845C27.8232 32.3212 29.7508 33.3854 31.2769 34.9142C32.8031 36.443 33.8655 38.3739 34.3408 40.4829C34.3627 40.3846 34.3855 40.2869 34.4094 40.1899C35.5038 35.8097 39.4715 32.75 44.0481 32.75C44.2531 32.75 44.462 32.756 44.667 32.7689L56.0259 33.4666C56.6308 33.504 57.2201 33.6748 57.7515 33.9669C58.2829 34.259 58.7433 34.6651 59.0997 35.1562C59.4562 35.6472 59.7 36.2112 59.8135 36.8076C59.9271 37.404 59.9077 38.0182 59.7568 38.6062C58.2619 44.4394 54.8715 49.6082 50.1202 53.2979C45.3689 56.9876 39.5268 58.9883 33.515 58.9846L33.4275 58.9836Z" fill="#594842"/>
<path d="M33.3179 58.8898C26.0779 58.8669 19.2896 56.0384 14.2026 50.9266C9.11564 45.8149 6.31396 39.0048 6.31396 31.7523C6.31442 26.6609 7.74463 21.6723 10.4412 17.3565C13.1377 13.0408 16.9918 9.5719 21.5631 7.34632C26.1344 5.12075 31.2384 4.22822 36.2921 4.77072C41.3457 5.31323 46.1451 7.26888 50.1418 10.4142C54.8173 14.1057 58.1567 19.23 59.6492 25.003C59.7985 25.5905 59.8165 26.2037 59.702 26.799C59.5874 27.3942 59.343 27.9567 58.9864 28.4465C58.6297 28.9362 58.1695 29.341 57.6386 29.6319C57.1078 29.9229 56.5193 30.0929 55.9153 30.1298L44.5574 30.8274C44.3524 30.8394 44.1435 30.8463 43.9375 30.8463C39.361 30.8463 35.3982 27.7867 34.2998 23.4054C34.275 23.3058 34.2521 23.2061 34.2302 23.1134C33.7545 25.2223 32.6921 27.153 31.166 28.6817C29.6398 30.2105 27.7125 31.2748 25.6073 31.7513C27.7125 32.2274 29.64 33.2914 31.1661 34.82C32.6923 36.3487 33.7547 38.2793 34.2302 40.3882C34.2521 40.2885 34.275 40.1888 34.2998 40.0962C35.3942 35.7109 39.3619 32.6552 43.9375 32.6552C44.1435 32.6552 44.3514 32.6622 44.5574 32.6742L55.9153 33.3718C56.5204 33.4092 57.1097 33.5801 57.6412 33.8722C58.1727 34.1644 58.6331 34.5706 58.9896 35.0617C59.3461 35.5529 59.5898 36.117 59.7033 36.7135C59.8168 37.3101 59.7973 37.9244 59.6462 38.5125C58.1513 44.3455 54.7609 49.5142 50.0095 53.2037C45.2582 56.8932 39.4161 58.8937 33.4044 58.8898H33.3179Z" fill="#594842"/>
<path d="M33.2075 58.7953C25.9685 58.7734 19.1792 55.945 14.0922 50.8322C9.00527 45.7194 6.20459 38.9104 6.20459 31.6588C6.20462 26.5673 7.63451 21.5786 10.3308 17.2626C13.0272 12.9466 16.8812 9.47755 21.4525 7.25182C26.0238 5.02609 31.1279 4.13348 36.1816 4.67599C41.2353 5.21851 46.0348 7.17427 50.0314 10.3198C54.7069 14.0119 58.0466 19.1363 59.5398 24.9096C59.6891 25.497 59.7072 26.1102 59.5926 26.7053C59.478 27.3005 59.2337 27.863 58.877 28.3527C58.5203 28.8423 58.0601 29.247 57.5292 29.5379C56.9983 29.8287 56.4099 29.9986 55.8059 30.0353L44.447 30.7329C44.242 30.7459 44.0331 30.7519 43.8282 30.7519C39.2516 30.7519 35.2878 27.6932 34.1895 23.312C34.1656 23.2123 34.1417 23.1176 34.1198 23.019C33.6447 25.1286 32.5822 27.0601 31.0556 28.5893C29.529 30.1185 27.6009 31.1829 25.4949 31.6588C27.6001 32.1351 29.5274 33.1994 31.0534 34.7282C32.5794 36.257 33.6416 38.1878 34.1168 40.2967C34.1387 40.197 34.1626 40.0974 34.1865 40.0037C35.2809 35.6235 39.2486 32.5638 43.8242 32.5638C44.0301 32.5638 44.2391 32.5698 44.444 32.5827L55.8029 33.2804C56.4078 33.3179 56.9969 33.4889 57.5282 33.781C58.0595 34.0731 58.5197 34.4793 58.8761 34.9703C59.2325 35.4614 59.4761 36.0252 59.5897 36.6216C59.7032 37.2179 59.6838 37.8321 59.5328 38.42C58.0379 44.2524 54.6478 49.4205 49.8971 53.1097C45.1464 56.799 39.3051 58.7997 33.294 58.7963L33.2075 58.7953Z" fill="#594842"/>
<path d="M33.0971 58.7023C25.8582 58.6794 19.0689 55.8509 13.9829 50.7392C8.8969 45.6274 6.09424 38.8164 6.09424 31.5638C6.0947 26.4724 7.52491 21.4838 10.2214 17.168C12.918 12.8523 16.7721 9.38342 21.3434 7.15785C25.9146 4.93227 31.0187 4.03974 36.0723 4.58225C41.126 5.12475 45.9254 7.08041 49.9221 10.2257C54.5979 13.9177 57.9374 19.0428 59.4294 24.8166C59.5788 25.404 59.5968 26.0172 59.4822 26.6125C59.3676 27.2077 59.1233 27.7703 58.7666 28.26C58.41 28.7497 57.9498 29.1545 57.4189 29.4455C56.888 29.7364 56.2996 29.9064 55.6955 29.9433L44.3366 30.6409C44.1317 30.6529 43.9237 30.6599 43.7178 30.6599C39.1412 30.6599 35.1785 27.6002 34.0791 23.2189C34.0552 23.1193 34.0323 23.0246 34.0105 22.9269C33.5347 25.0357 32.4722 26.9664 30.9461 28.4951C29.42 30.0239 27.4927 31.0882 25.3876 31.5648C27.4928 32.0409 29.4202 33.1049 30.9464 34.6336C32.4726 36.1622 33.535 38.0929 34.0105 40.2017C34.0323 40.102 34.0552 40.0024 34.0791 39.9097C35.1785 35.5245 39.1412 32.4688 43.7178 32.4688C43.9228 32.4688 44.1317 32.4757 44.3376 32.4877L55.6955 33.1854C56.3006 33.2227 56.89 33.3936 57.4215 33.6857C57.9529 33.9779 58.4134 34.3841 58.7699 34.8753C59.1264 35.3665 59.3701 35.9305 59.4836 36.5271C59.5971 37.1236 59.5776 37.7379 59.4265 38.326C57.9313 44.1588 54.5409 49.3273 49.7895 53.0166C45.0382 56.706 39.1963 58.7063 33.1847 58.7023H33.0971Z" fill="#594842"/>
<path d="M32.9875 58.6026C25.7476 58.5807 18.9593 55.7522 13.8723 50.6395C8.78531 45.5267 5.98364 38.7216 5.98364 31.4701C5.98391 26.3786 7.41399 21.3899 10.1105 17.074C12.8069 12.758 16.661 9.28904 21.2323 7.06334C25.8036 4.83764 30.9078 3.94503 35.9615 4.48749C41.0152 5.02996 45.8147 6.98563 49.8115 10.131C54.487 13.8218 57.8273 18.9448 59.3218 24.7169C59.471 25.3042 59.4889 25.9174 59.3742 26.5125C59.2596 27.1076 59.0152 27.67 58.6586 28.1596C58.3019 28.6492 57.8418 29.0539 57.311 29.3448C56.7802 29.6357 56.1918 29.8057 55.5879 29.8426L44.229 30.5402C44.0241 30.5532 43.8151 30.5592 43.6092 30.5592C39.0326 30.5592 35.0699 27.5005 33.9715 23.1192C33.9466 23.0196 33.9237 22.9249 33.9018 22.8262C33.4265 24.9352 32.3642 26.8661 30.838 28.3949C29.3118 29.9238 27.3843 30.988 25.279 31.4641C27.3843 31.9402 29.3118 33.0044 30.838 34.5333C32.3642 36.0621 33.4265 37.993 33.9018 40.102C33.9237 40.0023 33.9466 39.9027 33.9715 39.809C35.0659 35.4287 39.0336 32.3691 43.6092 32.3691C43.8151 32.3691 44.0231 32.375 44.229 32.388L55.5869 33.0856C56.1919 33.123 56.7812 33.2939 57.3126 33.586C57.8439 33.8781 58.3043 34.2842 58.6608 34.7752C59.0173 35.2663 59.261 35.8302 59.3746 36.4266C59.4882 37.0231 59.4688 37.6373 59.3179 38.2253C57.8238 44.0596 54.4335 49.2296 49.6817 52.9202C44.9298 56.6107 39.0868 58.6117 33.0741 58.6076L32.9875 58.6026Z" fill="#594842"/>
<path d="M32.8772 58.5131C25.6382 58.4902 18.8489 55.6617 13.7619 50.55C8.67494 45.4382 5.87427 38.6282 5.87427 31.3756C5.87449 26.2842 7.30451 21.2956 10.0009 16.9797C12.6973 12.6639 16.5514 9.19499 21.1226 6.96938C25.6939 4.74377 30.7979 3.85124 35.8515 4.39379C40.9052 4.93635 45.7045 6.89209 49.7011 10.0375C54.3766 13.7292 57.7163 18.8534 59.2095 24.6264C59.3588 25.2138 59.3768 25.827 59.2623 26.4223C59.1477 27.0175 58.9033 27.5801 58.5467 28.0698C58.19 28.5595 57.7298 28.9643 57.1989 29.2553C56.6681 29.5462 56.0796 29.7162 55.4756 29.7531L44.1167 30.4507C43.9117 30.4627 43.7038 30.4697 43.4978 30.4697C38.9212 30.4697 34.9585 27.41 33.8591 23.0287C33.8353 22.9291 33.8114 22.8294 33.7895 22.7367C33.3141 24.8454 32.2518 26.776 30.7258 28.3046C29.1999 29.8333 27.2726 30.8974 25.1676 31.3736C27.2726 31.8503 29.1997 32.9146 30.7257 34.4434C32.2516 35.9722 33.3139 37.9028 33.7895 40.0115C33.8114 39.9118 33.8353 39.8122 33.8591 39.7195C34.9535 35.3343 38.9212 32.2786 43.4968 32.2786C43.7028 32.2786 43.9117 32.2855 44.1167 32.2975L55.4756 32.9951C56.0806 33.0327 56.6698 33.2036 57.2012 33.4958C57.7325 33.788 58.1929 34.1943 58.5492 34.6854C58.9056 35.1766 59.1493 35.7406 59.2627 36.3371C59.3762 36.9336 59.3566 37.5478 59.2055 38.1358C57.7109 43.9688 54.3208 49.1376 49.5695 52.8272C44.8183 56.5167 38.9763 58.5172 32.9647 58.5131H32.8772Z" fill="#594842"/>
<path d="M32.7678 58.4181C25.5278 58.3962 18.7395 55.5677 13.6526 50.455C8.56559 45.3422 5.76392 38.5332 5.76392 31.2816C5.76419 26.1901 7.19426 21.2014 9.89073 16.8855C12.5872 12.5696 16.4413 9.10056 21.0126 6.87486C25.5839 4.64917 30.688 3.75655 35.7418 4.29902C40.7955 4.84148 45.595 6.79715 49.5918 9.94255C54.2673 13.6344 57.6067 18.759 59.0991 24.5324C59.2485 25.1198 59.2665 25.7329 59.1519 26.3281C59.0373 26.9233 58.793 27.4858 58.4363 27.9754C58.0796 28.4651 57.6194 28.8698 57.0885 29.1606C56.5576 29.4515 55.9692 29.6214 55.3652 29.6581L44.0073 30.3557C43.8014 30.3687 43.5934 30.3747 43.3875 30.3747C38.8109 30.3747 34.8482 27.316 33.7488 22.9347C33.7249 22.8384 33.702 22.7407 33.6801 22.6417C33.2048 24.7508 32.1425 26.6816 30.6163 28.2105C29.0901 29.7393 27.1626 30.8035 25.0572 31.2796C27.1626 31.7558 29.0901 32.8199 30.6163 34.3488C32.1425 35.8776 33.2048 37.8085 33.6801 39.9175C33.702 39.8185 33.7249 39.7208 33.7488 39.6245C34.8472 35.2462 38.8109 32.1915 43.3875 32.1915C43.5924 32.1915 43.8014 32.1975 44.0073 32.2105L55.3652 32.9081C55.9702 32.9455 56.5594 33.1164 57.0908 33.4085C57.6222 33.7005 58.0826 34.1066 58.4391 34.5977C58.7956 35.0888 59.0393 35.6527 59.1529 36.2491C59.2665 36.8456 59.2471 37.4597 59.0961 38.0478C57.6001 43.8791 54.2096 49.046 49.459 52.7343C44.7084 56.4226 38.8677 58.4226 32.8573 58.4191L32.7678 58.4181Z" fill="#594842"/>
<path d="M32.6584 58.3244C25.4185 58.3015 18.6302 55.473 13.5432 50.3612C8.45623 45.2495 5.65356 38.4394 5.65356 31.1869C5.65402 26.0955 7.08423 21.1069 9.78077 16.7911C12.4773 12.4753 16.3314 9.00647 20.9027 6.7809C25.474 4.55532 30.578 3.66279 35.6317 4.20529C40.6853 4.7478 45.4847 6.70345 49.4814 9.8488C54.1569 13.5405 57.4966 18.6646 58.9898 24.4376C59.1391 25.0251 59.1571 25.6383 59.0426 26.2335C58.928 26.8288 58.6836 27.3913 58.327 27.881C57.9703 28.3707 57.5101 28.7755 56.9792 29.0665C56.4484 29.3575 55.8599 29.5275 55.2559 29.5643L43.897 30.262C43.692 30.2739 43.4831 30.2809 43.2771 30.2809C38.7005 30.2809 34.7378 27.2212 33.6394 22.84C33.6146 22.7403 33.5917 22.6457 33.5698 22.548C33.0944 24.6567 32.0321 26.5873 30.5061 28.1159C28.9802 29.6445 27.0529 30.7086 24.9479 31.1849C27.0529 31.6615 28.98 32.7259 30.506 34.2546C32.0319 35.7834 33.0942 37.714 33.5698 39.8228C33.5917 39.7231 33.6146 39.6234 33.6394 39.5307C34.7338 35.1455 38.7015 32.0898 43.2771 32.0898C43.4831 32.0898 43.691 32.0968 43.897 32.1088L55.2559 32.8064C55.8609 32.8439 56.4501 33.0149 56.9815 33.3071C57.5128 33.5993 57.9732 34.0055 58.3295 34.4967C58.6859 34.9879 58.9296 35.5519 59.043 36.1483C59.1565 36.7448 59.1369 37.359 58.9858 37.9471C57.491 43.7802 54.1007 48.949 49.3493 52.6385C44.5979 56.3281 38.7558 58.3285 32.744 58.3244H32.6584Z" fill="#594842"/>
<path d="M32.5468 58.2295C25.3079 58.2076 18.5186 55.3791 13.4316 50.2664C8.34462 45.1536 5.54395 38.3446 5.54395 31.095C5.54331 26.003 6.97284 21.0136 9.66913 16.6969C12.3654 12.3803 16.2197 8.91071 20.7914 6.68466C25.3631 4.45862 30.4678 3.56596 35.522 4.10872C40.5762 4.65148 45.376 6.60776 49.3728 9.75395C54.0483 13.446 57.388 18.5705 58.8811 24.3438C59.0305 24.9315 59.0485 25.545 58.9337 26.1404C58.8189 26.7359 58.5742 27.2986 58.217 27.7883C57.8599 28.278 57.3992 28.6826 56.8679 28.9733C56.3365 29.2639 55.7476 29.4333 55.1433 29.4695L43.7844 30.1671C43.5794 30.1801 43.3715 30.1861 43.1655 30.1861C38.5889 30.1861 34.6262 27.1274 33.5268 22.7462C33.5029 22.6498 33.4801 22.5521 33.4582 22.4531C32.9833 24.5625 31.9215 26.4938 30.3957 28.0234C28.8699 29.5529 26.9426 30.6179 24.8373 31.095C26.9426 31.5713 28.87 32.6355 30.3962 34.1643C31.9224 35.6931 32.9847 37.6239 33.4602 39.7329C33.4821 39.6346 33.5049 39.5369 33.5288 39.4399C34.6282 35.0596 38.5909 32 43.1675 32C43.3725 32 43.5814 32.0059 43.7864 32.0189L55.1453 32.7165C55.7502 32.7542 56.3393 32.9253 56.8706 33.2176C57.4019 33.5098 57.8621 33.916 58.2185 34.4072C58.5748 34.8983 58.8185 35.4622 58.932 36.0586C59.0455 36.655 59.0261 37.2692 58.8752 37.8572C57.3798 43.6894 53.9893 48.8571 49.2381 52.5458C44.487 56.2344 38.6454 58.2341 32.6344 58.2295H32.5468Z" fill="#594842"/>
<path d="M32.4375 58.1359C25.1975 58.113 18.4092 55.2845 13.3222 50.1727C8.23526 45.061 5.43359 38.2509 5.43359 30.9954C5.43461 25.9042 6.86523 20.916 9.56199 16.6007C12.2587 12.2854 16.1129 8.81698 20.6841 6.59176C25.2552 4.36655 30.3591 3.47428 35.4124 4.0169C40.4658 4.55951 45.2649 6.51513 49.2614 9.66032C53.9369 13.3518 57.2764 18.4761 58.7688 24.2491C58.9181 24.8366 58.9362 25.4498 58.8216 26.045C58.707 26.6403 58.4627 27.2028 58.106 27.6925C57.7493 28.1823 57.2891 28.5871 56.7583 28.878C56.2274 29.169 55.6389 29.339 55.0349 29.3759L43.677 30.0735C43.4711 30.0855 43.2631 30.0924 43.0572 30.0924C38.4806 30.0924 34.5178 27.0328 33.4195 22.6515C33.3946 22.5519 33.3717 22.4522 33.3498 22.3595C32.8742 24.4682 31.8117 26.3986 30.2855 27.9271C28.7594 29.4555 26.832 30.5194 24.7269 30.9954C26.8334 31.4713 28.7621 32.5356 30.2892 34.065C31.8163 35.5944 32.8793 37.5262 33.3548 39.6363C33.3767 39.5366 33.3996 39.4369 33.4244 39.3442C34.5188 34.959 38.4865 31.9033 43.0621 31.9033C43.2681 31.9033 43.476 31.9103 43.682 31.9223L55.0399 32.6199C55.645 32.6573 56.2343 32.8282 56.7658 33.1203C57.2973 33.4124 57.7577 33.8186 58.1142 34.3098C58.4707 34.801 58.7144 35.3651 58.8279 35.9616C58.9414 36.5582 58.9219 37.1725 58.7708 37.7606C57.275 43.5939 53.8836 48.7625 49.1313 52.4517C44.3791 56.1409 38.5363 58.1407 32.524 58.1359H32.4375Z" fill="#594842"/>
<path d="M32.3271 58.0414C25.0871 58.0195 18.2989 55.191 13.2119 50.0783C8.1249 44.9655 5.32322 38.1564 5.32422 30.9049C5.32463 25.8136 6.75478 20.8251 9.45127 16.5094C12.1478 12.1937 16.0018 8.72492 20.573 6.49943C25.1442 4.27394 30.2482 3.3815 35.3017 3.92409C40.3553 4.46668 45.1545 6.42242 49.1511 9.56782C53.8263 13.2597 57.166 18.3838 58.6594 24.1566C58.809 24.7441 58.8271 25.3574 58.7126 25.9527C58.5981 26.548 58.3538 27.1106 57.9971 27.6004C57.6404 28.0901 57.1801 28.4949 56.6491 28.7859C56.1182 29.0768 55.5296 29.2467 54.9255 29.2834L43.5666 29.981C43.3617 29.994 43.1527 29.9999 42.9478 29.9999C38.3712 29.9999 34.4075 26.9412 33.3091 22.56C33.2852 22.4604 33.2613 22.3607 33.2394 22.267C32.7642 24.3759 31.702 26.3067 30.176 27.8355C28.65 29.3643 26.7227 30.4286 24.6175 30.9049C26.7227 31.3812 28.65 32.4455 30.176 33.9743C31.702 35.5031 32.7642 37.4339 33.2394 39.5428C33.2613 39.4431 33.2842 39.3434 33.3091 39.2498C34.4035 34.8695 38.3712 31.8098 42.9468 31.8098C43.1527 31.8098 43.3607 31.8158 43.5666 31.8288L54.9255 32.5264C55.5311 32.5639 56.1209 32.7351 56.6527 33.0277C57.1845 33.3203 57.6451 33.7271 58.0016 34.219C58.358 34.7108 58.6015 35.2755 58.7146 35.8727C58.8276 36.4698 58.8074 37.0846 58.6555 37.6731C57.1591 43.5046 53.7681 48.6715 49.0168 52.3593C44.2656 56.0471 38.4243 58.0462 32.4137 58.0414H32.3271Z" fill="#594842"/>
<path d="M32.2165 57.9478C24.9775 57.9249 18.1883 55.0964 13.1013 49.9846C8.0143 44.8729 5.21362 38.0628 5.21362 30.8103C5.2131 25.7185 6.64258 20.7294 9.3387 16.4129C12.0348 12.0965 15.8888 8.62701 20.4602 6.40091C25.0316 4.17482 30.1359 3.28195 35.1899 3.82435C40.2439 4.36676 45.0436 6.32255 49.0405 9.46821C53.7165 13.1593 57.0564 18.2837 58.5488 24.057C58.6982 24.6445 58.7162 25.2577 58.6016 25.8529C58.487 26.4482 58.2427 27.0107 57.886 27.5004C57.5294 27.9902 57.0692 28.395 56.5383 28.6859C56.0074 28.9769 55.419 29.1469 54.8149 29.1837L43.456 29.8814C43.2511 29.8934 43.0431 29.9003 42.8372 29.9003C38.2606 29.9003 34.2979 26.8406 33.1985 22.4594C33.1746 22.3598 33.1517 22.2651 33.1298 22.1674C32.654 24.2761 31.5915 26.2066 30.0654 27.7352C28.5393 29.2637 26.612 30.3279 24.5069 30.8043C26.6122 31.2808 28.5395 32.345 30.0656 33.8738C31.5918 35.4026 32.6542 37.3333 33.1298 39.4422C33.1517 39.3425 33.1746 39.2428 33.1985 39.1502C34.2979 34.7649 38.2606 31.7092 42.8372 31.7092C43.0421 31.7092 43.2511 31.7162 43.456 31.7282L54.8149 32.4258C55.4208 32.463 56.0109 32.634 56.543 32.9265C57.0751 33.2191 57.536 33.626 57.8926 34.118C58.2492 34.61 58.4927 35.175 58.6057 35.7724C58.7186 36.3698 58.6982 36.9849 58.5458 37.5735C57.0501 43.4057 53.6593 48.5736 48.9081 52.2625C44.1569 55.9514 38.3153 57.9515 32.3041 57.9478H32.2165Z" fill="#594842"/>
<path d="M32.1072 57.8529C24.8673 57.831 18.079 55.0025 12.992 49.8897C7.90502 44.777 5.09937 37.9719 5.09937 30.7164C5.09905 25.6242 6.52894 20.6346 9.2256 16.318C11.9223 12.0014 15.7769 8.53192 20.3489 6.30608C24.9209 4.08024 30.0259 3.18788 35.0802 3.73098C40.1346 4.27408 44.9344 6.23074 48.9312 9.37732C53.6065 13.069 56.9458 18.1932 58.4386 23.9661C58.5881 24.5536 58.6062 25.1669 58.4917 25.7622C58.3772 26.3575 58.1329 26.9201 57.7762 27.4099C57.4195 27.8996 56.9592 28.3044 56.4283 28.5954C55.8973 28.8863 55.3088 29.0562 54.7047 29.0929L43.3467 29.7905C43.1408 29.8035 42.9329 29.8094 42.7269 29.8094C38.1503 29.8094 34.1876 26.7507 33.0892 22.3695C33.0643 22.2699 33.0415 22.1752 33.0196 22.0765C32.5449 24.1854 31.4833 26.1163 29.9578 27.6455C28.4324 29.1746 26.5055 30.2394 24.4006 30.7164C26.506 31.1925 28.4335 32.2567 29.9597 33.7855C31.4859 35.3144 32.5482 37.2452 33.0235 39.3543C33.0454 39.2546 33.0683 39.1549 33.0932 39.0612C34.1876 34.681 38.1553 31.6213 42.7309 31.6213C42.9368 31.6213 43.1448 31.6273 43.3507 31.6403L54.7086 32.3379C55.3137 32.3755 55.9029 32.5464 56.4343 32.8386C56.9657 33.1308 57.4261 33.537 57.7825 34.0282C58.139 34.5193 58.3827 35.0833 58.4963 35.6798C58.6099 36.2762 58.5905 36.8905 58.4396 37.4786C56.9441 43.3118 53.5529 48.4804 48.8007 52.1694C44.0486 55.8585 38.2058 57.8581 32.1938 57.8529H32.1072Z" fill="#594842"/>
<path d="M31.9968 57.7592C24.7568 57.7363 17.9685 54.9078 12.8816 49.7961C7.79457 44.6843 4.9939 37.8723 4.9939 30.6217C4.99412 25.5303 6.42414 20.5417 9.12055 16.2258C11.817 11.91 15.671 8.44108 20.2422 6.21547C24.8135 3.98986 29.9175 3.09733 34.9712 3.63989C40.0248 4.18244 44.8241 6.13819 48.8207 9.28364C53.4955 12.9756 56.8345 18.0997 58.3271 23.8725C58.4769 24.4599 58.4954 25.0733 58.3812 25.6688C58.267 26.2643 58.0229 26.8271 57.6664 27.3172C57.3099 27.8072 56.8497 28.2123 56.3188 28.5036C55.7879 28.7949 55.1994 28.9651 54.5952 29.0022L43.2363 29.6998C43.0313 29.7118 42.8224 29.7187 42.6175 29.7187C38.0409 29.7187 34.0771 26.6591 32.9788 22.2778C32.9549 22.1782 32.931 22.0785 32.9091 21.9858C32.4337 24.0945 31.3715 26.0251 29.8455 27.5537C28.3195 29.0824 26.3923 30.1465 24.2872 30.6227C26.3922 31.0993 28.3194 32.1637 29.8453 33.6925C31.3713 35.2212 32.4335 37.1518 32.9091 39.2606C32.931 39.1609 32.9549 39.0613 32.9788 38.9686C34.0732 34.5833 38.0409 31.5276 42.6165 31.5276C42.8224 31.5276 43.0313 31.5336 43.2363 31.5466L54.5952 32.2442C55.2005 32.2814 55.7901 32.4522 56.3218 32.7444C56.8534 33.0365 57.3141 33.4428 57.6707 33.9341C58.0273 34.4254 58.2711 34.9897 58.3846 35.5864C58.4981 36.1831 58.4784 36.7976 58.3271 37.3859C56.8314 43.2185 53.4403 48.3865 48.6887 52.0753C43.937 55.7641 38.0949 57.7638 32.0833 57.7592H31.9968Z" fill="#594842"/>
<path d="M31.8862 57.6652C24.6472 57.6423 17.8579 54.8148 12.772 49.702C7.68597 44.5893 4.8833 37.7802 4.8833 30.5287C4.88357 25.4372 6.31365 20.4485 9.01011 16.1325C11.7066 11.8166 15.5607 8.34763 20.132 6.12193C24.7033 3.89624 29.8074 3.00362 34.8612 3.54609C39.9149 4.08855 44.7144 6.04422 48.7111 9.18961C53.3864 12.8813 56.7258 18.0055 58.2185 23.7784C58.3677 24.3658 58.3856 24.9788 58.2709 25.5739C58.1563 26.1689 57.9119 26.7313 57.5552 27.2208C57.1985 27.7104 56.7384 28.115 56.2076 28.4058C55.6768 28.6966 55.0885 28.8664 54.4846 28.9032L43.1257 29.6008C42.9208 29.6138 42.7128 29.6197 42.5069 29.6197C37.9303 29.6197 33.9675 26.5611 32.8682 22.1798C32.8443 22.0828 32.8214 21.9851 32.7995 21.8868C32.3241 23.9958 31.2617 25.9266 29.7356 27.4554C28.2094 28.9842 26.2819 30.0484 24.1766 30.5247C26.2828 31.0013 28.2108 32.0664 29.7371 33.5963C31.2633 35.1263 32.3252 37.0584 32.7995 39.1685C32.8214 39.0695 32.8443 38.9719 32.8682 38.8755C33.9675 34.4903 37.9303 31.4356 42.5069 31.4356C42.7118 31.4356 42.9208 31.4416 43.1257 31.4546L54.4846 32.1522C55.0896 32.1897 55.6789 32.3607 56.2103 32.6529C56.7417 32.9451 57.202 33.3513 57.5585 33.8424C57.9149 34.3336 58.1587 34.8976 58.2723 35.494C58.3858 36.0905 58.3665 36.7048 58.2155 37.2929C56.7198 43.125 53.3291 48.2927 48.5778 51.9813C43.8265 55.6699 37.9848 57.6696 31.9737 57.6652H31.8862Z" fill="#594842"/>
<path d="M31.7768 57.5714C24.5369 57.5485 17.7486 54.7201 12.6616 49.6083C7.57462 44.4965 4.77295 37.6865 4.77295 30.4339C4.77341 25.3425 6.20362 20.3539 8.90016 16.0382C11.5967 11.7224 15.4508 8.25354 20.0221 6.02797C24.5934 3.80239 29.6974 2.90986 34.7511 3.45236C39.8047 3.99487 44.6041 5.95052 48.6008 9.09587C53.2763 12.7875 56.616 17.9117 58.1092 23.6847C58.2581 24.2721 58.2759 24.8852 58.1611 25.4803C58.0464 26.0754 57.802 26.6378 57.4454 27.1274C57.0888 27.617 56.6288 28.0218 56.0981 28.3129C55.5674 28.604 54.9792 28.7742 54.3753 28.8114L43.0164 29.509C42.8114 29.521 42.6025 29.528 42.3965 29.528C37.8199 29.528 33.8572 26.4683 32.7588 22.0871C32.7339 21.9874 32.7111 21.8927 32.6892 21.7951C32.2137 23.9039 31.1513 25.8345 29.6251 27.3632C28.0989 28.8918 26.1715 29.9559 24.0663 30.4319C26.1714 30.9083 28.0986 31.9725 29.6247 33.5011C31.1508 35.0297 32.2134 36.9601 32.6892 39.0688C32.7111 38.9692 32.7339 38.8695 32.7588 38.7768C33.8532 34.3916 37.8209 31.3359 42.3965 31.3359C42.6025 31.3359 42.8104 31.3419 43.0164 31.3548L54.3743 32.0525C54.9794 32.0898 55.5687 32.2607 56.1002 32.5529C56.6317 32.845 57.0921 33.2512 57.4486 33.7424C57.8051 34.2336 58.0488 34.7976 58.1623 35.3942C58.2758 35.9907 58.2563 36.605 58.1052 37.1931C56.6104 43.0265 53.2199 48.1955 48.4684 51.8853C43.7168 55.575 37.8744 57.5755 31.8624 57.5714H31.7768Z" fill="#594842"/>
<path d="M31.6635 57.476C24.4245 57.4531 17.6352 54.6256 12.5482 49.5129C7.46126 44.4001 4.66357 37.591 4.66357 30.3395C4.66361 25.248 6.0935 20.2592 8.78983 15.9433C11.4862 11.6273 15.3402 8.15822 19.9115 5.93249C24.4827 3.70675 29.5869 2.81414 34.6406 3.35666C39.6943 3.89917 44.4937 5.85493 48.4904 9.00043C53.1657 12.6923 56.5053 17.8164 57.9988 23.5892C58.1483 24.1767 58.1665 24.79 58.052 25.3853C57.9375 25.9806 57.6931 26.5432 57.3364 27.033C56.9797 27.5228 56.5194 27.9276 55.9885 28.2185C55.4575 28.5094 54.869 28.6793 54.2649 28.716L42.906 29.4136C42.701 29.4266 42.4931 29.4326 42.2871 29.4326C37.7105 29.4326 33.7478 26.3739 32.6484 21.9926C32.6246 21.893 32.6007 21.7983 32.5788 21.6996C32.1036 23.8085 31.0414 25.7393 29.5154 27.2681C27.9894 28.7969 26.0621 29.8612 23.9569 30.3375C26.0621 30.8138 27.9894 31.8781 29.5154 33.4069C31.0414 34.9357 32.1036 36.8665 32.5788 38.9754C32.6007 38.8757 32.6246 38.7761 32.6484 38.6824C33.7428 34.3021 37.7105 31.2424 42.2861 31.2424C42.4921 31.2424 42.701 31.2484 42.906 31.2614L54.2649 31.959C54.8699 31.9965 55.4591 32.1675 55.9905 32.4597C56.5218 32.7519 56.9822 33.1581 57.3385 33.6493C57.6949 34.1405 57.9386 34.7045 58.052 35.301C58.1654 35.8974 58.1459 36.5117 57.9948 37.0997C56.5002 42.9326 53.11 48.1012 48.3588 51.7906C43.6075 55.48 37.7656 57.4803 31.754 57.476H31.6635Z" fill="#594842"/>
<path d="M31.5559 57.3826C24.3169 57.3597 17.5276 54.5312 12.4416 49.4194C7.35564 44.3077 4.55298 37.4976 4.55298 30.2451C4.55388 25.1542 5.98422 20.1662 8.68061 15.851C11.377 11.5357 15.2307 8.06723 19.8014 5.84176C24.3722 3.61629 29.4757 2.72357 34.5288 3.2656C39.582 3.80763 44.3811 5.76254 48.3778 8.90699C53.0533 12.5985 56.3927 17.7228 57.8852 23.4958C58.0345 24.0833 58.0525 24.6965 57.938 25.2917C57.8234 25.887 57.5791 26.4495 57.2224 26.9392C56.8657 27.4289 56.4055 27.8337 55.8746 28.1247C55.3438 28.4157 54.7553 28.5857 54.1513 28.6225L42.7934 29.3202C42.5874 29.3321 42.3795 29.3391 42.1736 29.3391C37.597 29.3391 33.6342 26.2794 32.5349 21.8982C32.511 21.7985 32.4881 21.6989 32.4662 21.6062C31.9907 23.715 30.9283 25.6457 29.4021 27.1743C27.876 28.703 25.9485 29.767 23.8433 30.2431C25.9485 30.7195 27.8759 31.7838 29.402 33.3126C30.9281 34.8414 31.9906 36.7721 32.4662 38.8809C32.4881 38.7813 32.511 38.6816 32.5349 38.5889C33.6293 34.2037 37.597 31.148 42.1736 31.148C42.3785 31.148 42.5874 31.154 42.7934 31.167L54.1513 31.8646C54.7564 31.902 55.3457 32.0728 55.8772 32.365C56.4087 32.6571 56.8691 33.0633 57.2256 33.5545C57.5821 34.0457 57.8258 34.6098 57.9393 35.2063C58.0529 35.8029 58.0333 36.4172 57.8822 37.0053C56.3871 42.8376 52.9971 48.0057 48.2464 51.6952C43.4957 55.3846 37.6545 57.3855 31.6434 57.3826H31.5559Z" fill="#594842"/>
<path d="M31.4465 57.2883C24.2065 57.2653 17.4183 54.4379 12.3313 49.3251C7.2443 44.2123 4.44263 37.4033 4.44263 30.1517C4.4429 25.0602 5.87297 20.0715 8.56944 15.7556C11.2659 11.4397 15.12 7.97068 19.6913 5.74498C24.2626 3.51928 29.3668 2.62667 34.4205 3.16914C39.4742 3.7116 44.2737 5.66727 48.2705 8.81266C52.9457 12.5045 56.2854 17.6286 57.7788 23.4015C57.9279 23.9886 57.9459 24.6015 57.8315 25.1964C57.7171 25.7912 57.4731 26.3535 57.1169 26.8431C56.7607 27.3327 56.301 27.7376 55.7707 28.0288C55.2404 28.3201 54.6525 28.4906 54.0489 28.5282L42.69 29.2259C42.4851 29.2388 42.2761 29.2448 42.0702 29.2448C37.4936 29.2448 33.5309 26.1861 32.4325 21.8049C32.4076 21.7052 32.3847 21.6055 32.3628 21.5119C31.8876 23.6207 30.8254 25.5515 29.2994 27.0803C27.7734 28.6092 25.8461 29.6734 23.7409 30.1497C25.8458 30.6267 27.7727 31.6915 29.2981 33.2206C30.8236 34.7498 31.8852 36.6807 32.3598 38.7896C32.3817 38.6899 32.4046 38.5903 32.4295 38.4966C33.5239 34.1164 37.4916 31.0567 42.0672 31.0567C42.2731 31.0567 42.4811 31.0627 42.687 31.0756L54.0459 31.7733C54.6509 31.8108 55.2402 31.9817 55.7715 32.274C56.3029 32.5662 56.7632 32.9724 57.1196 33.4635C57.476 33.9547 57.7196 34.5187 57.8331 35.1152C57.9465 35.7117 57.927 36.3259 57.7759 36.9139C56.2806 42.7467 52.8899 47.9151 48.1384 51.6041C43.3868 55.2931 37.5447 57.2929 31.5331 57.2883H31.4465Z" fill="#594842"/>
<path d="M31.3361 57.1948C24.0972 57.1718 17.3079 54.3434 12.2209 49.2316C7.13393 44.1198 4.33325 37.3098 4.33325 30.0572C4.33347 24.9659 5.7635 19.9772 8.45991 15.6614C11.1563 11.3456 15.0104 7.87663 19.5816 5.65102C24.1528 3.42541 29.2569 2.53288 34.3105 3.07543C39.3642 3.61799 44.1635 5.57373 48.1601 8.71918C52.8356 12.4109 56.1753 17.535 57.6685 23.308C57.8178 23.8955 57.8358 24.5087 57.7212 25.1039C57.6067 25.6991 57.3623 26.2617 57.0057 26.7514C56.649 27.2411 56.1888 27.6459 55.6579 27.9369C55.127 28.2279 54.5386 28.3979 53.9346 28.4347L42.5757 29.1324C42.3707 29.1443 42.1628 29.1513 41.9568 29.1513C37.3802 29.1513 33.4175 26.0916 32.3181 21.7104C32.2942 21.6107 32.2714 21.516 32.2495 21.4184C31.7737 23.5271 30.7111 25.4575 29.185 26.9861C27.6589 28.5147 25.7317 29.5789 23.6266 30.0553C25.7317 30.5318 27.659 31.5962 29.1851 33.1249C30.7112 34.6537 31.7737 36.5843 32.2495 38.6931C32.2714 38.5935 32.2942 38.4938 32.3181 38.4011C33.4175 34.0159 37.3802 30.9602 41.9568 30.9602C42.1618 30.9602 42.3707 30.9662 42.5757 30.9791L53.9346 31.6768C54.5396 31.7143 55.1288 31.8853 55.6602 32.1775C56.1915 32.4697 56.6518 32.8759 57.0082 33.3671C57.3646 33.8582 57.6082 34.4222 57.7217 35.0187C57.8351 35.6152 57.8156 36.2294 57.6645 36.8175C56.1696 42.6503 52.7794 47.8189 48.0282 51.5084C43.2771 55.1979 37.4352 57.1985 31.4237 57.1948H31.3361Z" fill="#594842"/>
<path d="M31.2265 57.0998C23.9866 57.0769 17.1983 54.2494 12.1113 49.1366C7.02433 44.0239 4.22266 37.2148 4.22266 29.9633C4.22293 24.8718 5.653 19.883 8.34947 15.5671C11.0459 11.2512 14.9 7.7822 19.4713 5.5565C24.0426 3.33081 29.1468 2.43819 34.2005 2.98066C39.2542 3.52313 44.0537 5.47879 48.0505 8.62419C52.7258 12.3159 56.0652 17.4401 57.5579 23.213C57.7074 23.8005 57.7255 24.4138 57.611 25.0091C57.4965 25.6044 57.2522 26.167 56.8955 26.6568C56.5388 27.1465 56.0785 27.5513 55.5476 27.8422C55.0166 28.1332 54.4281 28.303 53.824 28.3397L42.4661 29.0374C42.2601 29.0503 42.0522 29.0563 41.8462 29.0563C37.2696 29.0563 33.3069 25.9976 32.2085 21.6164C32.1836 21.5167 32.1608 21.422 32.1389 21.3234C31.6636 23.4324 30.6012 25.3633 29.075 26.8921C27.5489 28.4209 25.6213 29.4851 23.516 29.9613C25.6213 30.4374 27.5489 31.5016 29.075 33.0304C30.6012 34.5593 31.6636 36.4901 32.1389 38.5991C32.1608 38.4995 32.1836 38.3998 32.2085 38.3061C33.3029 33.9259 37.2706 30.8652 41.8462 30.8652C42.0522 30.8652 42.2601 30.8722 42.4661 30.8851L53.824 31.5828C54.4291 31.6202 55.0184 31.791 55.5499 32.0832C56.0814 32.3753 56.5418 32.7815 56.8983 33.2727C57.2548 33.7639 57.4985 34.3279 57.612 34.9245C57.7255 35.521 57.706 36.1353 57.5549 36.7235C56.0599 42.5564 52.6695 47.7249 47.9181 51.4143C43.1668 55.1037 37.3247 57.1039 31.3131 57.0998H31.2265Z" fill="#594842"/>
<path d="M31.1162 57.0083C23.8762 56.9854 17.0879 54.1569 12.0009 49.0451C6.91396 43.9334 4.11229 37.1213 4.11328 29.8688C4.1135 24.7774 5.54352 19.7887 8.23994 15.4729C10.9363 11.1571 14.7904 7.68815 19.3616 5.46254C23.9329 3.23693 29.0369 2.34441 34.0906 2.88696C39.1442 3.42951 43.9435 5.38526 47.9401 8.53071C52.6161 12.2232 55.9559 17.3484 57.4485 23.1225C57.5978 23.71 57.6158 24.3232 57.5013 24.9184C57.3867 25.5137 57.1423 26.0762 56.7857 26.5659C56.429 27.0556 55.9688 27.4604 55.4379 27.7514C54.9071 28.0424 54.3186 28.2124 53.7146 28.2492L42.3557 28.9469C42.1507 28.9588 41.9418 28.9658 41.7368 28.9658C37.1603 28.9658 33.1965 25.9061 32.0981 21.5249C32.0733 21.4252 32.0504 21.3256 32.0285 21.2329C31.5529 23.3415 30.4904 25.272 28.9642 26.8004C27.438 28.3289 25.5107 29.3928 23.4056 29.8688C25.5106 30.3454 27.4378 31.4098 28.9637 32.9385C30.4896 34.4673 31.5519 36.3979 32.0275 38.5066C32.0494 38.407 32.0723 38.3073 32.0971 38.2146C33.1916 33.8294 37.1593 30.7737 41.7349 30.7737C41.9408 30.7737 42.1487 30.7797 42.3547 30.7927L53.7136 31.4903C54.3186 31.5278 54.9078 31.6988 55.4392 31.991C55.9705 32.2832 56.4309 32.6894 56.7873 33.1806C57.1436 33.6718 57.3873 34.2358 57.5007 34.8322C57.6142 35.4287 57.5946 36.0429 57.4435 36.631C55.9486 42.4638 52.5584 47.6324 47.8072 51.3219C43.0561 55.0114 37.2143 57.012 31.2027 57.0083H31.1162Z" fill="#594842"/>
<path d="M31.0058 56.908C23.7668 56.8851 16.9775 54.0576 11.8906 48.9448C6.80357 43.8321 4.00488 37.026 4.00488 29.7745C4.00521 24.6833 5.43519 19.695 8.13143 15.3793C10.8277 11.0637 14.6814 7.59488 19.2523 5.36922C23.8233 3.14356 28.927 2.25082 33.9804 2.79302C39.0338 3.33522 43.833 5.29048 47.8297 8.43539C52.505 12.1265 55.8447 17.2499 57.3381 23.0222C57.4876 23.6097 57.5058 24.223 57.3913 24.8183C57.2768 25.4136 57.0324 25.9762 56.6757 26.466C56.319 26.9557 55.8588 27.3605 55.3278 27.6515C54.7968 27.9424 54.2083 28.1123 53.6042 28.1489L42.2453 28.8466C42.0403 28.8595 41.8324 28.8655 41.6265 28.8655C37.0499 28.8655 33.0871 25.8068 31.9878 21.4256C31.9639 21.3286 31.941 21.2309 31.9191 21.1326C31.4435 23.2415 30.381 25.1721 28.8549 26.7009C27.3288 28.2297 25.4014 29.294 23.2962 29.7705C25.4015 30.2467 27.329 31.3109 28.8551 32.8398C30.3813 34.3686 31.4437 36.2994 31.9191 38.4084C31.941 38.3094 31.9639 38.2117 31.9878 38.1153C33.0871 33.7301 37.0499 30.6744 41.6265 30.6744C41.8314 30.6744 42.0403 30.6814 42.2453 30.6944L53.6042 31.392C54.2096 31.4296 54.7991 31.6009 55.3307 31.8935C55.8623 32.1861 56.3227 32.5929 56.6789 33.0846C57.0352 33.5764 57.2785 34.1409 57.3914 34.7379C57.5043 35.3349 57.4841 35.9494 57.3321 36.5377C55.8365 42.3691 52.4461 47.5362 47.6954 51.2244C42.9446 54.9126 37.1037 56.9122 31.0933 56.908H31.0058Z" fill="#594842"/>
<path d="M30.8962 56.8175C23.6562 56.7946 16.868 53.9662 11.781 48.8544C6.694 43.7426 3.89233 36.9326 3.89233 29.68C3.89279 24.5886 5.323 19.6 8.01954 15.2843C10.7161 10.9685 14.5702 7.49964 19.1415 5.27406C23.7127 3.04848 28.8168 2.15595 33.8704 2.69846C38.9241 3.24096 43.7235 5.19662 47.7202 8.34196C52.3975 12.0327 55.7387 17.1571 57.2325 22.9308C57.3818 23.5182 57.3999 24.1315 57.2853 24.7267C57.1707 25.3219 56.9264 25.8845 56.5697 26.3742C56.213 26.8639 55.7528 27.2687 55.222 27.5597C54.6911 27.8507 54.1026 28.0206 53.4986 28.0575L42.1407 28.7551C41.9348 28.7671 41.7268 28.7741 41.5209 28.7741C36.9443 28.7741 32.9816 25.7144 31.8832 21.3332C31.8583 21.2335 31.8354 21.1388 31.8135 21.0411C31.338 23.15 30.2756 25.0806 28.7495 26.6093C27.2233 28.1379 25.2959 29.202 23.1906 29.678C25.2958 30.1545 27.2232 31.2188 28.7493 32.7476C30.2754 34.2764 31.3379 36.2071 31.8135 38.3159C31.8354 38.2163 31.8583 38.1166 31.8832 38.0229C32.9776 33.6427 36.9453 30.583 41.5209 30.583C41.7268 30.583 41.9348 30.589 42.1407 30.6019L53.4986 31.2996C54.1037 31.3369 54.6931 31.5078 55.2245 31.8C55.756 32.0921 56.2165 32.4983 56.573 32.9895C56.9294 33.4807 57.1732 34.0447 57.2867 34.6413C57.4002 35.2378 57.3807 35.8521 57.2295 36.4402C55.7342 42.274 52.3431 47.4432 47.5907 51.1328C42.8384 54.8224 36.9953 56.8224 30.9828 56.8175H30.8962Z" fill="#594842"/>
<path d="M30.7859 56.7231C23.5459 56.7002 16.7576 53.8727 11.6706 48.7599C6.58363 43.6472 3.78296 36.8381 3.78296 29.5866C3.78299 24.4951 5.21288 19.5063 7.90922 15.1903C10.6056 10.8744 14.4596 7.40529 19.0309 5.17956C23.6021 2.95382 28.7063 2.06121 33.76 2.60373C38.8137 3.14624 43.6131 5.102 47.6098 8.2475C52.2851 11.9394 55.6247 17.0635 57.1182 22.8363C57.2677 23.4238 57.2858 24.0371 57.1713 24.6324C57.0568 25.2277 56.8125 25.7903 56.4558 26.2801C56.0991 26.7698 55.6388 27.1746 55.1079 27.4656C54.5769 27.7565 53.9884 27.9264 53.3843 27.963L42.0254 28.6607C41.8204 28.6736 41.6115 28.6796 41.4065 28.6796C36.8299 28.6796 32.8662 25.6209 31.7678 21.2387C31.7439 21.139 31.7201 21.0454 31.6982 20.9467C31.2229 23.0556 30.1608 24.9864 28.6348 26.5152C27.1088 28.044 25.1815 29.1083 23.0763 29.5846C25.1815 30.0609 27.1088 31.1251 28.6348 32.654C30.1608 34.1828 31.2229 36.1136 31.6982 38.2225C31.7201 38.1228 31.7439 38.0231 31.7678 37.9294C32.8622 33.5442 36.8299 30.4885 41.4055 30.4885C41.6115 30.4885 41.8204 30.4955 42.0254 30.5085L53.3843 31.2061C53.9893 31.2436 54.5785 31.4146 55.1099 31.7068C55.6412 31.999 56.1016 32.4052 56.4579 32.8964C56.8143 33.3876 57.0579 33.9516 57.1714 34.548C57.2848 35.1445 57.2653 35.7587 57.1142 36.3468C55.6194 42.1798 52.229 47.3484 47.4776 51.0378C42.7262 54.7272 36.8841 56.7274 30.8724 56.7231H30.7859Z" fill="#594842"/>
<path d="M30.6755 56.629C23.4365 56.6061 16.6472 53.7776 11.5613 48.6659C6.47527 43.5541 3.67261 36.744 3.67261 29.4915C3.67326 24.4002 5.10357 19.4117 7.80011 15.096C10.4967 10.7803 14.3507 7.31153 18.9218 5.0859C23.493 2.86027 28.597 1.96759 33.6505 2.50985C38.7041 3.05211 43.5036 5.00744 47.5004 8.15243C52.1758 11.8445 55.5152 16.969 57.0078 22.7422C57.1571 23.3297 57.1752 23.9429 57.0606 24.5382C56.946 25.1334 56.7017 25.6959 56.345 26.1857C55.9883 26.6754 55.5281 27.0802 54.9973 27.3711C54.4664 27.6621 53.8779 27.8321 53.2739 27.869L41.915 28.5666C41.7101 28.5786 41.5021 28.5855 41.2962 28.5855C36.7196 28.5855 32.7569 25.5259 31.6575 21.1446C31.6336 21.045 31.6107 20.9453 31.5888 20.8526C31.1131 22.9614 30.0506 24.8919 28.5245 26.4205C26.9984 27.9491 25.0711 29.0132 22.9659 29.4895C25.0711 29.966 26.9985 31.0303 28.5246 32.559C30.0507 34.0878 31.1132 36.0185 31.5888 38.1274C31.6107 38.0297 31.6336 37.932 31.6575 37.8344C32.7578 33.4561 36.7196 30.3974 41.2962 30.3974C41.5011 30.3974 41.7101 30.4034 41.915 30.4164L53.2739 31.114C53.879 31.1514 54.4684 31.3223 54.9998 31.6144C55.5313 31.9065 55.9918 32.3127 56.3483 32.8039C56.7047 33.2951 56.9485 33.8592 57.062 34.4557C57.1755 35.0523 57.156 35.6666 57.0048 36.2547C55.5093 42.0861 52.1193 47.2534 47.3691 50.9422C42.6188 54.631 36.7784 56.6317 30.768 56.629H30.6755Z" fill="#594842"/>
<path d="M30.5691 56.5343C23.3292 56.5114 16.5409 53.684 11.4539 48.5712C6.36691 43.4584 3.56226 36.6494 3.56226 29.4008C3.56197 24.3091 4.99164 19.3199 7.68788 15.0036C10.3841 10.6872 14.2382 7.21779 18.8096 4.99173C23.381 2.76567 28.4854 1.87279 33.5394 2.41515C38.5934 2.9575 43.3931 4.91321 47.3901 8.05876C52.0654 11.7504 55.4048 16.8746 56.8975 22.6476C57.047 23.235 57.0652 23.8482 56.9507 24.4434C56.8363 25.0386 56.592 25.6012 56.2354 26.091C55.8788 26.5807 55.4187 26.9855 54.8879 27.2765C54.357 27.5675 53.7686 27.7375 53.1646 27.7743L41.8057 28.4719C41.6007 28.4849 41.3918 28.4909 41.1858 28.4909C36.6092 28.4909 32.6465 25.4322 31.5481 21.05C31.5233 20.9503 31.5004 20.8566 31.4785 20.7579C31.004 22.8679 29.942 24.7998 28.4158 26.3296C26.8895 27.8594 24.9616 28.9243 22.8556 29.4008C24.9609 29.877 26.8885 30.9411 28.4146 32.47C29.9408 33.9988 31.0032 35.9297 31.4785 38.0387C31.5004 37.939 31.5233 37.8394 31.5481 37.7457C32.6425 33.3605 36.6102 30.3048 41.1858 30.3048C41.3918 30.3048 41.5997 30.3117 41.8057 30.3247L53.1636 31.0223C53.7687 31.0597 54.358 31.2306 54.8895 31.5227C55.421 31.8149 55.8814 32.2211 56.2379 32.7123C56.5944 33.2035 56.8381 33.7675 56.9516 34.3641C57.0651 34.9606 57.0456 35.5749 56.8945 36.163C55.3988 41.9951 52.008 47.1626 47.2566 50.851C42.5053 54.5395 36.6637 56.539 30.6527 56.5343H30.5691Z" fill="#594842"/>
<path d="M30.4555 56.441C23.2165 56.4181 16.4273 53.5896 11.3403 48.4779C6.25331 43.3661 3.45264 36.556 3.45264 29.3015C3.45284 24.2097 4.88305 19.2206 7.57981 14.9044C10.2766 10.5883 14.1311 7.1192 18.7029 4.89364C23.2746 2.66808 28.3792 1.77582 33.4332 2.31884C38.4873 2.86186 43.2868 4.81825 47.2835 7.96443C51.9572 11.6573 55.2954 16.7816 56.7878 22.5542C56.9372 23.1417 56.9552 23.7549 56.8406 24.3502C56.726 24.9454 56.4817 25.5079 56.125 25.9977C55.7684 26.4874 55.3082 26.8922 54.7773 27.1831C54.2464 27.4741 53.658 27.6441 53.0539 27.681L41.695 28.3786C41.4901 28.3906 41.2812 28.3975 41.0762 28.3975C36.4996 28.3975 32.5369 25.3379 31.4375 20.9566C31.4136 20.857 31.3897 20.7623 31.3679 20.6646C30.8925 22.7733 29.8302 24.7039 28.3042 26.2325C26.7782 27.7612 24.851 28.8253 22.746 29.3015C24.8507 29.7787 26.7775 30.8435 28.3029 32.3727C29.8283 33.9018 30.89 35.8326 31.3649 37.9414C31.3868 37.8417 31.4106 37.742 31.4345 37.6484C32.5289 33.2681 36.4966 30.2084 41.0722 30.2084C41.2782 30.2084 41.4871 30.2144 41.692 30.2274L53.0509 30.925C53.6559 30.9625 54.2452 31.1335 54.7766 31.4257C55.3079 31.7179 55.7682 32.1241 56.1246 32.6153C56.481 33.1065 56.7246 33.6705 56.8381 34.267C56.9515 34.8634 56.932 35.4777 56.7809 36.0657C55.2857 41.8978 51.8956 47.0657 47.1449 50.7548C42.3942 54.4439 36.553 56.4444 30.5421 56.441H30.4555Z" fill="#594842"/>
<path d="M30.3452 56.3458C23.1062 56.3229 16.3169 53.4954 11.2309 48.3826C6.14495 43.2699 3.34229 36.4608 3.34229 29.2093C3.34312 24.118 4.7736 19.1297 7.47028 14.8142C10.167 10.4988 14.0211 7.03021 18.5923 4.80487C23.1635 2.57954 28.2674 1.68718 33.3209 2.22976C38.3743 2.77234 43.1735 4.72797 47.1701 7.87321C51.8454 11.5649 55.1848 16.6891 56.6775 22.462C56.827 23.0495 56.8452 23.6628 56.7307 24.2581C56.6162 24.8534 56.3718 25.416 56.0151 25.9058C55.6584 26.3955 55.1982 26.8003 54.6672 27.0913C54.1362 27.3822 53.5477 27.5521 52.9436 27.5887L41.5857 28.2864C41.3797 28.2993 41.1718 28.3053 40.9659 28.3053C36.3893 28.3053 32.4265 25.2466 31.3271 20.8644C31.3033 20.7647 31.2804 20.6711 31.2585 20.5724C30.7831 22.6814 29.7207 24.6122 28.1945 26.141C26.6684 27.6698 24.7409 28.734 22.6356 29.2103C24.7408 29.6863 26.6683 30.7504 28.1944 32.279C29.7206 33.8077 30.783 35.7383 31.2585 37.8472C31.2804 37.7475 31.3033 37.6478 31.3271 37.5551C32.4265 33.1699 36.3893 30.1142 40.9659 30.1142C41.1708 30.1142 41.3797 30.1212 41.5857 30.1342L52.9436 30.8318C53.5487 30.8692 54.138 31.04 54.6695 31.3322C55.201 31.6243 55.6614 32.0305 56.0179 32.5217C56.3744 33.0129 56.6181 33.577 56.7316 34.1735C56.8451 34.7701 56.8256 35.3844 56.6745 35.9725C55.179 41.8048 51.7883 46.9727 47.037 50.6615C42.2857 54.3503 36.444 56.3501 30.4327 56.3458H30.3452Z" fill="#594842"/>
<path d="M30.2358 56.2521C22.9958 56.2292 16.2076 53.4007 11.1206 48.2889C6.0336 43.1772 3.23193 36.3671 3.23193 29.1146C3.23222 24.0231 4.66225 19.0343 7.35865 14.7184C10.055 10.4024 13.909 6.9333 18.4803 4.70743C23.0515 2.48156 28.1556 1.58871 33.2094 2.13089C38.2631 2.67308 43.0627 4.62843 47.0598 7.77352C51.7353 11.4656 55.075 16.5901 56.5681 22.3633C56.7171 22.9508 56.7348 23.5639 56.6201 24.159C56.5054 24.7541 56.261 25.3165 55.9044 25.8061C55.5478 26.2957 55.0878 26.7005 54.5571 26.9916C54.0264 27.2826 53.4381 27.4528 52.8342 27.49L41.4753 28.1877C41.2704 28.1997 41.0615 28.2066 40.8555 28.2066C36.2789 28.2066 32.3162 25.1469 31.2178 20.7657C31.1929 20.6661 31.17 20.5664 31.1482 20.4737C30.6727 22.5824 29.6105 24.513 28.0845 26.0416C26.5585 27.5702 24.6313 28.6344 22.5263 29.1106C24.6313 29.5871 26.5585 30.6514 28.0845 32.1802C29.6104 33.709 30.6727 35.6397 31.1482 37.7485C31.17 37.6488 31.1929 37.5491 31.2178 37.4555C32.3122 33.0752 36.2799 30.0155 40.8555 30.0155C41.0615 30.0155 41.2694 30.0215 41.4753 30.0345L52.8332 30.7321C53.439 30.7693 54.029 30.9403 54.561 31.2328C55.093 31.5253 55.5538 31.9321 55.9104 32.424C56.267 32.9159 56.5106 33.4807 56.6236 34.078C56.7366 34.6753 56.7163 35.2903 56.5642 35.8788C55.0685 41.711 51.6778 46.8788 46.9265 50.5676C42.1752 54.2563 36.3336 56.2562 30.3224 56.2521H30.2358Z" fill="#594842"/>
<path d="M30.1252 56.1577C22.8862 56.1347 16.097 53.3073 11.01 48.1945C5.92299 43.0817 3.12231 36.2777 3.12231 29.0201C3.12254 23.9287 4.55256 18.9401 7.24897 14.6243C9.94538 10.3084 13.7994 6.83952 18.3707 4.61391C22.9419 2.3883 28.046 1.49577 33.0996 2.03833C38.1532 2.58088 42.9525 4.53662 46.9492 7.68207C51.6244 11.374 54.9641 16.498 56.4575 22.2709C56.607 22.8584 56.6252 23.4716 56.5107 24.0669C56.3962 24.6623 56.1519 25.2249 55.7952 25.7146C55.4385 26.2044 54.9782 26.6092 54.4472 26.9001C53.9163 27.1911 53.3277 27.3609 52.7236 27.3976L41.3647 28.0953C41.1598 28.1082 40.9518 28.1142 40.7459 28.1142C36.1693 28.1142 32.2066 25.0555 31.1072 20.6733C31.0833 20.5736 31.0594 20.4799 31.0375 20.3813C30.5623 22.4902 29.5001 24.4209 27.9741 25.9498C26.4481 27.4786 24.5208 28.5428 22.4156 29.0191C24.5207 29.4954 26.4479 30.5595 27.9739 32.0881C29.4999 33.6168 30.5621 35.5473 31.0375 37.656C31.0594 37.5564 31.0833 37.4567 31.1072 37.364C32.2016 32.9788 36.1693 29.9231 40.7449 29.9231C40.9508 29.9231 41.1598 29.9301 41.3647 29.943L52.7236 30.6407C53.3286 30.6782 53.9179 30.8492 54.4492 31.1414C54.9806 31.4336 55.4409 31.8398 55.7973 32.331C56.1537 32.8221 56.3973 33.3861 56.5107 33.9826C56.6242 34.5791 56.6047 35.1933 56.4535 35.7813C54.9589 41.6143 51.5687 46.7829 46.8175 50.4723C42.0663 54.1617 36.2243 56.1619 30.2128 56.1577H30.1252Z" fill="#594842"/>
<path d="M30.0159 56.0642C22.7759 56.0412 15.9876 53.2128 10.9007 48.101C5.81367 42.9893 3.01001 36.1782 3.01001 28.9267C3.01037 23.835 4.44059 18.8461 7.13723 14.5301C9.83387 10.214 13.6882 6.74498 18.2597 4.51928C22.8312 2.29359 27.9355 1.40103 32.9895 1.94361C38.0434 2.48618 42.843 4.44201 46.8398 7.58759C51.5154 11.2794 54.8548 16.404 56.3472 22.1774C56.4972 22.7651 56.5158 23.3788 56.4015 23.9745C56.2873 24.5702 56.043 25.1333 55.6863 25.6235C55.3296 26.1137 54.8691 26.5189 54.3379 26.8101C53.8067 27.1013 53.2178 27.2714 52.6133 27.3081L41.2554 28.0058C41.0495 28.0177 40.8415 28.0247 40.6356 28.0247C36.059 28.0247 32.0962 24.965 30.9969 20.5838C30.973 20.4841 30.9501 20.3894 30.9282 20.2918C30.4527 22.4006 29.3903 24.3313 27.8642 25.8599C26.338 27.3885 24.4106 28.4526 22.3053 28.9286C24.4106 29.4049 26.3381 30.4691 27.8643 31.9979C29.3904 33.5268 30.4528 35.4576 30.9282 37.5665C30.9501 37.4669 30.973 37.3672 30.9979 37.2735C32.0923 32.8883 36.059 29.8336 40.6356 29.8336C40.8415 29.8336 41.0495 29.8396 41.2554 29.8525L52.6133 30.5502C53.2184 30.5876 53.8078 30.7584 54.3392 31.0506C54.8707 31.3427 55.3312 31.7489 55.6877 32.2401C56.0441 32.7313 56.2879 33.2953 56.4014 33.8919C56.5149 34.4884 56.4954 35.1027 56.3442 35.6908C54.8482 41.5229 51.4575 46.6906 46.7062 50.3792C41.955 54.0679 36.1135 56.068 30.1024 56.0642H30.0159Z" fill="#594842"/>
<path d="M29.9055 55.9692C22.6655 55.9463 15.8772 53.1188 10.7902 48.006C5.70326 42.8933 2.90159 36.0842 2.90259 28.8317C2.90281 23.7403 4.33283 18.7516 7.02924 14.4358C9.72566 10.12 13.5797 6.65104 18.1509 4.42543C22.7222 2.19982 27.8262 1.3073 32.8799 1.84985C37.9335 2.3924 42.7328 4.34815 46.7294 7.4936C51.4047 11.1855 54.7443 16.3096 56.2378 22.0824C56.3871 22.6698 56.4052 23.283 56.2906 23.8782C56.176 24.4734 55.9317 25.0358 55.575 25.5255C55.2183 26.0151 54.7581 26.4198 54.2272 26.7107C53.6963 27.0016 53.1079 27.1714 52.5039 27.2081L41.145 27.9058C40.94 27.9187 40.7311 27.9247 40.5262 27.9247C35.9496 27.9247 31.9858 24.866 30.8875 20.4838C30.8626 20.3841 30.8397 20.2905 30.8178 20.1918C30.3426 22.3007 29.2804 24.2315 27.7544 25.7603C26.2284 27.2891 24.3011 28.3534 22.1959 28.8297C24.3019 29.3064 26.2297 30.3716 27.7558 31.9015C29.2818 33.4315 30.3436 35.3635 30.8178 37.4735C30.8397 37.3739 30.8626 37.2742 30.8875 37.1815C31.9819 32.7963 35.9496 29.7406 40.5252 29.7406C40.7311 29.7406 40.939 29.7476 41.145 29.7605L52.5039 30.4582C53.1089 30.4952 53.6983 30.6657 54.2299 30.9575C54.7614 31.2493 55.2221 31.6552 55.5788 32.146C55.9356 32.6369 56.1797 33.2007 56.2936 33.7971C56.4075 34.3935 56.3885 35.0077 56.2378 35.5959C54.7423 41.429 51.351 46.5974 46.5989 50.2863C41.8467 53.9752 36.004 55.9746 29.992 55.9692H29.9055Z" fill="#594842"/>
<path d="M29.7949 55.8754C22.5559 55.8525 15.7666 53.024 10.6797 47.9122C5.59267 42.8004 2.79199 35.9904 2.79199 28.7379C2.79241 23.6465 4.22253 18.658 6.91895 14.3423C9.61536 10.0265 13.4693 6.55766 18.0405 4.332C22.6116 2.10634 27.7155 1.21366 32.7691 1.75597C37.8227 2.29828 42.6221 4.25369 46.6188 7.39879C51.2947 11.0906 54.6344 16.2152 56.1272 21.9886C56.2765 22.5761 56.2946 23.1893 56.18 23.7845C56.0654 24.3798 55.8211 24.9423 55.4644 25.432C55.1077 25.9217 54.6475 26.3265 54.1167 26.6175C53.5858 26.9085 52.9973 27.0785 52.3933 27.1153L41.0344 27.813C40.8295 27.8249 40.6215 27.8319 40.4156 27.8319C35.839 27.8319 31.8762 24.7722 30.7769 20.391C30.753 20.2913 30.7301 20.1917 30.7082 20.099C30.2324 22.2077 29.1699 24.1381 27.6438 25.6667C26.1176 27.1953 24.1904 28.2595 22.0853 28.7359C24.1905 29.2123 26.1179 30.2766 27.644 31.8054C29.1701 33.3342 30.2326 35.2649 30.7082 37.3737C30.7301 37.2761 30.753 37.1784 30.7769 37.0807C31.8762 32.7025 35.842 29.6428 40.4186 29.6428C40.6235 29.6428 40.8324 29.6488 41.0374 29.6617L52.3963 30.3594C53.0013 30.3969 53.5905 30.5679 54.1219 30.8601C54.6533 31.1523 55.1136 31.5585 55.47 32.0497C55.8264 32.5408 56.07 33.1048 56.1834 33.7013C56.2969 34.2978 56.2773 34.912 56.1262 35.5001C54.6308 41.333 51.24 46.5015 46.4883 50.1907C41.7365 53.8799 35.8942 55.8799 29.8824 55.8754H29.7949Z" fill="#594842"/>
<path d="M29.6855 55.7814C22.4456 55.7585 15.6573 52.931 10.5703 47.8183C5.48331 42.7055 2.68164 35.8964 2.68164 28.6439C2.6821 23.5525 4.11231 18.5639 6.80885 14.2481C9.50538 9.93236 13.3595 6.4635 17.9308 4.23793C22.502 2.01235 27.6061 1.11982 32.6597 1.66233C37.7134 2.20483 42.5128 4.16048 46.5095 7.30583C51.1847 10.9975 54.5241 16.1217 56.0168 21.8946C56.1664 22.4821 56.1845 23.0954 56.07 23.6907C55.9555 24.286 55.7112 24.8486 55.3545 25.3384C54.9978 25.8281 54.5375 26.233 54.0066 26.5239C53.4756 26.8148 52.887 26.9847 52.2829 27.0214L40.925 27.719C40.7191 27.732 40.5112 27.7379 40.3052 27.7379C35.7286 27.7379 31.7659 24.6793 30.6675 20.297C30.6426 20.1974 30.6197 20.1027 30.5979 20.005C30.1224 22.114 29.0601 24.0448 27.5339 25.5736C26.0077 27.1024 24.0803 28.1666 21.975 28.6429C24.0802 29.119 26.0076 30.183 27.5338 31.7116C29.06 33.2403 30.1224 35.1709 30.5979 37.2798C30.6197 37.1801 30.6426 37.0804 30.6675 36.9878C31.7619 32.6025 35.7296 29.5468 40.3052 29.5468C40.5112 29.5468 40.7191 29.5538 40.925 29.5668L52.2829 30.2644C52.888 30.3018 53.4774 30.4727 54.0089 30.7648C54.5403 31.057 55.0008 31.4632 55.3573 31.9543C55.7138 32.4455 55.9575 33.0096 56.071 33.6061C56.1845 34.2027 56.165 34.817 56.0139 35.4051C54.519 41.2378 51.1287 46.4063 46.3775 50.0956C41.6263 53.785 35.7845 55.7854 29.7731 55.7814H29.6855Z" fill="#594842"/>
<path d="M29.5742 55.6879C22.3342 55.665 15.5459 52.8365 10.4589 47.7247C5.37195 42.613 2.57227 35.8029 2.57227 28.5504C2.57268 23.459 4.0028 18.4705 6.69922 14.1548C9.39563 9.83904 13.2496 6.37016 17.8207 4.1445C22.3919 1.91884 27.4958 1.02616 32.5494 1.56847C37.6029 2.11078 42.4023 4.06619 46.3991 7.21129C51.0746 10.9034 54.4143 16.0279 55.9075 21.8011C56.0568 22.3886 56.0748 23.0018 55.9602 23.597C55.8457 24.1923 55.6013 24.7548 55.2447 25.2445C54.888 25.7342 54.4278 26.139 53.8969 26.43C53.3661 26.721 52.7776 26.891 52.1736 26.9278L40.8147 27.6255C40.6097 27.6384 40.4008 27.6454 40.1958 27.6454C35.6192 27.6454 31.6555 24.5857 30.5571 20.2045C30.5333 20.1048 30.5094 20.0101 30.4875 19.9125C30.0121 22.0212 28.9498 23.9517 27.4238 25.4804C25.8979 27.009 23.9706 28.0731 21.8656 28.5494C23.9707 29.0259 25.8978 30.0902 27.4238 31.619C28.9498 33.1478 30.012 35.0785 30.4875 37.1872C30.5094 37.0876 30.5323 36.9879 30.5571 36.8942C31.6515 32.514 35.6192 29.4543 40.1948 29.4543C40.4008 29.4543 40.6087 29.4603 40.8147 29.4732L52.1736 30.1709C52.7786 30.2084 53.3678 30.3794 53.8992 30.6716C54.4305 30.9638 54.8909 31.37 55.2472 31.8612C55.6036 32.3524 55.8473 32.9163 55.9607 33.5128C56.0742 34.1093 56.0546 34.7235 55.9035 35.3116C54.4084 41.1444 51.0179 46.3129 46.2666 50.0022C41.5152 53.6915 35.6733 55.6919 29.6617 55.6879H29.5742Z" fill="#594842"/>
<path d="M29.4646 55.5931C22.2256 55.5702 15.4363 52.7427 10.3503 47.63C5.26434 42.5172 2.46167 35.7082 2.46167 28.4556C2.46227 23.3644 3.89253 18.376 6.58902 14.0604C9.28551 9.7448 13.1395 6.27607 17.7106 4.05053C22.2817 1.82499 27.3855 0.932401 32.439 1.47475C37.4925 2.01709 42.2918 3.9725 46.2885 7.11755C50.9638 10.8092 54.3032 15.9334 55.7959 21.7064C55.9454 22.2941 55.9635 22.9076 55.8489 23.5031C55.7342 24.0986 55.4896 24.6614 55.1326 25.1512C54.7755 25.641 54.3149 26.0458 53.7836 26.3365C53.2522 26.6273 52.6634 26.7968 52.059 26.8331L40.7001 27.5307C40.4951 27.5437 40.2872 27.5497 40.0813 27.5497C35.5047 27.5497 31.5419 24.49 30.4426 20.1088C30.4187 20.0091 30.3958 19.9144 30.3739 19.8167C29.8982 21.9256 28.8357 23.8562 27.3096 25.3849C25.7834 26.9137 23.8562 27.978 21.751 28.4546C23.8562 28.9307 25.7837 29.9947 27.3098 31.5234C28.836 33.052 29.8984 34.9827 30.3739 37.0915C30.3958 36.9918 30.4187 36.8922 30.4426 36.7995C31.5419 32.4143 35.5047 29.3586 40.0813 29.3586C40.2862 29.3586 40.4951 29.3655 40.7001 29.3775L52.059 30.0752C52.6641 30.1125 53.2535 30.2834 53.7849 30.5755C54.3164 30.8677 54.7769 31.2739 55.1334 31.7651C55.4898 32.2563 55.7336 32.8203 55.8471 33.4169C55.9606 34.0134 55.9411 34.6277 55.7899 35.2158C54.2953 41.0483 50.9056 46.2166 46.155 49.906C41.4044 53.5955 35.5632 55.5964 29.5521 55.5931H29.4646Z" fill="#594842"/>
<path d="M29.3552 55.4991C22.1152 55.4762 15.327 52.6477 10.24 47.536C5.15299 42.4242 2.35132 35.6142 2.35132 28.3616C2.35197 23.2703 3.78228 18.2818 6.47882 13.9661C9.17537 9.65046 13.0294 6.18164 17.6006 3.95602C22.1717 1.73039 27.2757 0.837711 32.3293 1.37997C37.3829 1.92223 42.1823 3.87755 46.1792 7.02255C50.8547 10.7144 54.1942 15.839 55.6865 21.6124C55.8359 22.1998 55.8539 22.813 55.7393 23.4083C55.6247 24.0035 55.3804 24.5661 55.0237 25.0558C54.6671 25.5455 54.2069 25.9503 53.676 26.2413C53.1451 26.5322 52.5567 26.7022 51.9526 26.7391L40.5947 27.4367C40.3898 27.4497 40.1808 27.4567 39.9749 27.4567C35.3983 27.4567 31.4356 24.397 30.3372 20.0157C30.3123 19.9161 30.2894 19.8164 30.2675 19.7237C29.7921 21.8326 28.7296 23.7632 27.2035 25.2919C25.6773 26.8205 23.7499 27.8845 21.6446 28.3606C23.7506 28.8364 25.6788 29.9006 27.2056 31.4296C28.7323 32.9587 29.795 34.8899 30.2705 36.9995C30.2924 36.8998 30.3153 36.8002 30.3402 36.7065C31.4346 32.3262 35.4023 29.2666 39.9779 29.2666C40.1838 29.2666 40.3918 29.2725 40.5977 29.2855L51.9556 29.9831C52.5607 30.0205 53.1501 30.1914 53.6815 30.4835C54.213 30.7757 54.6735 31.1819 55.03 31.6731C55.3864 32.1643 55.6302 32.7283 55.7437 33.3248C55.8572 33.9214 55.8377 34.5357 55.6865 35.1238C54.191 40.9569 50.7999 46.1254 46.048 49.8145C41.2961 53.5037 35.4537 55.5037 29.4418 55.4991H29.3552Z" fill="#594842"/>
<path d="M29.2448 55.4047C22.0059 55.3818 15.2166 52.5543 10.1296 47.4416C5.04262 42.3288 2.24194 35.5198 2.24194 28.2672C2.24216 23.1758 3.67219 18.1872 6.3686 13.8713C9.06501 9.55551 12.919 6.08659 17.4903 3.86098C22.0615 1.63537 27.1656 0.742843 32.2192 1.2854C37.2728 1.82795 42.0722 3.78369 46.0688 6.92914C50.744 10.621 54.0837 15.7451 55.5771 21.518C55.7267 22.1054 55.7448 22.7187 55.6303 23.314C55.5158 23.9093 55.2715 24.472 54.9148 24.9617C54.5581 25.4515 54.0978 25.8563 53.5668 26.1472C53.0359 26.4381 52.4473 26.608 51.8432 26.6447L40.4843 27.3423C40.2794 27.3553 40.0705 27.3613 39.8655 27.3613C35.2889 27.3613 31.3252 24.3016 30.2268 19.9203C30.2029 19.8207 30.1791 19.726 30.1572 19.6283C29.6817 21.7371 28.6194 23.6678 27.0935 25.1966C25.5675 26.7254 23.6403 27.7897 21.5353 28.2662C23.6403 28.7424 25.5675 29.8066 27.0935 31.3352C28.6195 32.8638 29.6818 34.7944 30.1572 36.9031C30.1791 36.8034 30.2029 36.7038 30.2268 36.6111C31.3212 32.2259 35.2889 29.1702 39.8645 29.1702C40.0705 29.1702 40.2794 29.1771 40.4843 29.1891L51.8432 29.8868C52.4482 29.9243 53.0375 30.0952 53.5688 30.3874C54.1002 30.6796 54.5605 31.0859 54.9169 31.577C55.2733 32.0682 55.5169 32.6322 55.6304 33.2287C55.7438 33.8252 55.7243 34.4394 55.5732 35.0274C54.0786 40.8606 50.6883 46.0295 45.9368 49.7191C41.1854 53.4086 35.3432 55.409 29.3314 55.4047H29.2448Z" fill="#594842"/>
<path d="M29.1342 55.3136C21.8953 55.2907 15.106 52.4623 10.02 47.3505C4.93401 42.2387 2.13135 35.4257 2.13135 28.1731C2.132 23.0818 3.56231 18.0933 6.25885 13.7777C8.95539 9.46198 12.8094 5.99317 17.3806 3.76754C21.9517 1.54191 27.0557 0.649234 32.1093 1.19149C37.1629 1.73375 41.9623 3.68908 45.9592 6.83407C50.6355 10.5269 53.975 15.6531 55.4666 21.4279C55.6159 22.0153 55.6339 22.6286 55.5193 23.2238C55.4048 23.819 55.1604 24.3816 54.8037 24.8713C54.4471 25.361 53.9869 25.7658 53.456 26.0568C52.9251 26.3478 52.3367 26.5177 51.7326 26.5546L40.3737 27.2522C40.1688 27.2652 39.9609 27.2722 39.7549 27.2722C35.1783 27.2722 31.2156 24.2125 30.1162 19.8313C30.0923 19.7316 30.0695 19.6369 30.0476 19.5392C29.5719 21.648 28.5094 23.5785 26.9832 25.1071C25.4571 26.6357 23.5298 27.6998 21.4247 28.1761C23.53 28.6524 25.4574 29.7166 26.9836 31.2454C28.5098 32.7742 29.5721 34.705 30.0476 36.814C30.0695 36.7143 30.0923 36.6147 30.1162 36.521C31.2156 32.1358 35.1783 29.0811 39.7549 29.0811C39.9599 29.0811 40.1688 29.0871 40.3747 29.1L51.7326 29.7977C52.3377 29.835 52.9271 30.0059 53.4586 30.298C53.9901 30.5902 54.4505 30.9964 54.807 31.4876C55.1635 31.9788 55.4072 32.5428 55.5207 33.1394C55.6342 33.7359 55.6147 34.3502 55.4636 34.9383C53.968 40.7708 50.5773 45.9389 45.8261 49.6279C41.0748 53.317 35.2332 55.3174 29.2218 55.3136H29.1342Z" fill="#594842"/>
<path d="M29.0249 55.214C21.7849 55.1911 14.9966 52.3636 9.90965 47.2508C4.82267 42.1381 2.021 35.331 2.021 28.0785C2.02145 22.9871 3.45166 17.9985 6.1482 13.6827C8.84474 9.36693 12.6988 5.89807 17.2701 3.6725C21.8414 1.44692 26.9455 0.554392 31.9991 1.0969C37.0527 1.6394 41.8521 3.59505 45.8488 6.7404C50.5239 10.432 53.8636 15.5557 55.3572 21.3282C55.5064 21.9157 55.5242 22.5288 55.4096 23.124C55.2949 23.7191 55.0506 24.2816 54.6939 24.7713C54.3373 25.261 53.8772 25.6657 53.3464 25.9568C52.8156 26.2478 52.2273 26.4179 51.6233 26.4549L40.2644 27.1526C40.0594 27.1655 39.8505 27.1715 39.6446 27.1715C35.068 27.1715 31.1052 24.1118 30.0069 19.7306C29.982 19.6309 29.9591 19.5363 29.9372 19.4386C29.4624 21.5478 28.4006 23.4791 26.8748 25.0085C25.3489 26.5378 23.4216 27.6026 21.3163 28.0795C23.4215 28.5555 25.349 29.6196 26.8751 31.1482C28.4013 32.6768 29.4637 34.6075 29.9392 36.7163C29.9611 36.6167 29.984 36.517 30.0088 36.4243C31.1033 32.0391 35.071 28.9834 39.6466 28.9834C39.8525 28.9834 40.0604 28.9904 40.2664 29.0023L51.6243 29.7C52.2294 29.7374 52.8187 29.9082 53.3502 30.2004C53.8817 30.4925 54.3422 30.8987 54.6986 31.3899C55.0551 31.8811 55.2988 32.4451 55.4123 33.0417C55.5259 33.6382 55.5063 34.2525 55.3552 34.8407C53.8598 40.6734 50.4688 45.8417 45.7171 49.5305C40.9653 53.2193 35.1231 55.2189 29.1114 55.214H29.0249Z" fill="#594842"/>
<path d="M28.9144 55.1222C21.6755 55.0993 14.8862 52.2709 9.79921 47.1591C4.71222 42.0473 1.91553 35.2373 1.91553 27.9847C1.91653 22.8941 3.34684 17.9064 6.04305 13.5914C8.73927 9.27632 12.5927 5.80794 17.1631 3.58242C21.7335 1.3569 26.8367 0.463977 31.8896 1.00565C36.9426 1.54732 41.7416 3.50174 45.7384 6.64566C50.4124 10.3384 53.7507 15.4628 55.2428 21.2355C55.3921 21.8229 55.4101 22.4362 55.2956 23.0314C55.181 23.6266 54.9366 24.1892 54.58 24.6789C54.2233 25.1686 53.7631 25.5734 53.2322 25.8644C52.7014 26.1554 52.1129 26.3253 51.5089 26.3622L40.15 27.0598C39.945 27.0728 39.7371 27.0798 39.5311 27.0798C34.9545 27.0798 30.9918 24.0201 29.8924 19.6389C29.8686 19.5392 29.8447 19.4445 29.8228 19.3458C29.3476 21.4547 28.2854 23.3855 26.7594 24.9143C25.2334 26.4432 23.3061 27.5074 21.2009 27.9837C23.306 28.4603 25.2332 29.5246 26.7591 31.0534C28.2851 32.5822 29.3473 34.5128 29.8228 36.6216C29.8447 36.5219 29.8686 36.4223 29.8924 36.3286C30.9868 31.9484 34.9545 28.8887 39.5301 28.8887C39.7361 28.8887 39.945 28.8947 40.15 28.9076L51.5089 29.6053C52.1146 29.6421 52.7046 29.8127 53.2367 30.1049C53.7688 30.397 54.2298 30.8035 54.5867 31.2951C54.9435 31.7867 55.1874 32.3513 55.3009 32.9484C55.4143 33.5455 55.3945 34.1604 55.2428 34.7489C53.7472 40.581 50.3566 45.7487 45.6055 49.4374C40.8544 53.1262 35.013 55.1262 29.002 55.1222H28.9144Z" fill="#594842"/>
<path d="M28.8052 55.0275C21.5652 55.0046 14.7769 52.1771 9.68992 47.0643C4.60294 41.9516 1.80127 35.1425 1.80127 27.89C1.80173 22.7986 3.23194 17.81 5.92848 13.4942C8.62502 9.17845 12.4791 5.7096 17.0504 3.48402C21.6217 1.25844 26.7257 0.365915 31.7794 0.908419C36.833 1.45092 41.6324 3.40658 45.6291 6.55192C50.3044 10.2436 53.6438 15.3678 55.1365 21.1407C55.286 21.7282 55.3042 22.3415 55.1897 22.9368C55.0752 23.5321 54.8308 24.0947 54.4741 24.5845C54.1174 25.0742 53.6572 25.479 53.1262 25.77C52.5952 26.0609 52.0067 26.2308 51.4026 26.2675L40.0447 26.9651C39.8387 26.9781 39.6308 26.984 39.4248 26.984C34.8483 26.984 30.8855 23.9244 29.7861 19.5431C29.7623 19.4435 29.7394 19.3438 29.7175 19.2511C29.2418 21.36 28.1794 23.2907 26.6533 24.8194C25.1271 26.3482 23.1998 27.4125 21.0946 27.889C23.1998 28.3651 25.1273 29.4291 26.6534 30.9577C28.1796 32.4864 29.242 34.417 29.7175 36.5259C29.7394 36.4262 29.7623 36.3265 29.7861 36.2339C30.8855 31.8486 34.8483 28.7929 39.4248 28.7929C39.6298 28.7929 39.8387 28.7999 40.0447 28.8119L51.4026 29.5095C52.0077 29.5469 52.597 29.7178 53.1285 30.0099C53.66 30.3021 54.1204 30.7083 54.4769 31.1994C54.8334 31.6906 55.0771 32.2547 55.1906 32.8512C55.3041 33.4478 55.2846 34.0621 55.1335 34.6502C53.6387 40.4833 50.2484 45.6521 45.497 49.3416C40.7456 53.0312 34.9035 55.0316 28.8917 55.0275H28.8052Z" fill="#594842"/>
<path d="M28.6946 54.9337C21.4546 54.9108 14.6663 52.0823 9.57933 46.9705C4.49234 41.8588 1.69067 35.0487 1.69067 27.7962C1.69133 22.7048 3.12164 17.7164 5.81818 13.4007C8.51472 9.08503 12.3687 5.61621 16.9399 3.39059C21.5111 1.16496 26.615 0.272281 31.6686 0.814539C36.7222 1.3568 41.5216 3.31212 45.5185 6.45712C50.194 10.1492 53.5337 15.2737 55.0269 21.0469C55.1762 21.6344 55.1942 22.2476 55.0797 22.8428C54.9651 23.4381 54.7207 24.0006 54.3641 24.4903C54.0074 24.9801 53.5472 25.3848 53.0163 25.6758C52.4855 25.9668 51.897 26.1368 51.293 26.1736L39.9341 26.8713C39.7291 26.8842 39.5202 26.8912 39.3142 26.8912C34.7376 26.8912 30.7749 23.8315 29.6765 19.4503C29.6517 19.3506 29.6288 19.256 29.6069 19.1573C29.1317 21.2662 28.0695 23.197 26.5435 24.7258C25.0175 26.2546 23.0902 27.3189 20.985 27.7952C23.0901 28.2717 25.0173 29.336 26.5432 30.8648C28.0692 32.3936 29.1314 34.3243 29.6069 36.4331C29.6288 36.3334 29.6517 36.2337 29.6765 36.14C30.7709 31.7598 34.7386 28.7001 39.3142 28.7001C39.5202 28.7001 39.7281 28.7061 39.9341 28.7191L51.293 29.4167C51.898 29.4542 52.4872 29.6252 53.0186 29.9174C53.5499 30.2096 54.0103 30.6158 54.3666 31.107C54.723 31.5982 54.9667 32.1622 55.0801 32.7586C55.1936 33.3551 55.174 33.9693 55.0229 34.5574C53.5277 40.3907 50.1367 45.5595 45.3848 49.2489C40.6329 52.9383 34.7902 54.9383 28.7781 54.9337H28.6946Z" fill="#594842"/>
<path d="M28.5842 54.8393C21.3452 54.8164 14.5559 51.9889 9.46896 46.8761C4.38197 41.7634 1.5813 34.9543 1.5813 27.7068C1.58059 22.6149 3.00993 17.6256 5.70598 13.3091C8.40202 8.99252 12.256 5.52286 16.8274 3.29664C21.3988 1.07042 26.5033 0.177467 31.5573 0.719833C36.6114 1.2622 41.4112 3.218 45.4081 6.36371C50.0836 10.0554 53.4233 15.1796 54.9165 20.9525C55.066 21.54 55.0842 22.1533 54.9697 22.7486C54.8552 23.3439 54.6109 23.9065 54.2542 24.3963C53.8975 24.886 53.4372 25.2908 52.9062 25.5818C52.3752 25.8727 51.7867 26.0426 51.1826 26.0793L39.8237 26.7769C39.6188 26.7899 39.4108 26.7958 39.2049 26.7958C34.6283 26.7958 30.6655 23.7361 29.5662 19.3549C29.5423 19.2553 29.5194 19.1606 29.4975 19.0629C29.0225 21.1727 27.9604 23.1045 26.4343 24.6344C24.9081 26.1642 22.9804 27.2295 20.8746 27.7068C22.9798 28.183 24.9071 29.2472 26.4332 30.7758C27.9593 32.3044 29.0218 34.2349 29.4975 36.3436C29.5194 36.244 29.5423 36.1443 29.5662 36.0516C30.6685 31.6664 34.6283 28.6037 39.2049 28.6037C39.4098 28.6037 39.6188 28.6107 39.8237 28.6227L51.1826 29.3203C51.7876 29.3578 52.3769 29.5288 52.9082 29.821C53.4396 30.1132 53.8999 30.5194 54.2563 31.0106C54.6127 31.5018 54.8563 32.0658 54.9697 32.6623C55.0832 33.2587 55.0636 33.873 54.9125 34.461C53.4183 40.2943 50.0283 45.4634 45.277 49.1531C40.5257 52.8429 34.6836 54.8435 28.6717 54.8393H28.5842Z" fill="#594842"/>
<path d="M28.4798 54.7452C21.2398 54.7223 14.4516 51.8938 9.36458 46.7821C4.27759 41.6703 1.47095 34.8603 1.47095 27.6067C1.47179 22.5155 2.90223 17.5271 5.59885 13.2116C8.29547 8.89606 12.1495 5.4274 16.7206 3.20189C21.2918 0.976388 26.3956 0.0837937 31.4491 0.626089C36.5026 1.16839 41.302 3.1237 45.2988 6.26864C49.9744 9.96048 53.3138 15.0851 54.8062 20.8585C54.9555 21.4459 54.9735 22.0591 54.8589 22.6544C54.7444 23.2496 54.5 23.8122 54.1434 24.3019C53.7867 24.7916 53.3265 25.1964 52.7956 25.4874C52.2647 25.7783 51.6763 25.9483 51.0723 25.9852L39.7144 26.6828C39.5084 26.6958 39.3005 26.7028 39.0945 26.7028C34.5179 26.7028 30.5552 23.6431 29.4568 19.2618C29.4319 19.1622 29.4091 19.0675 29.3872 18.9688C28.9119 21.0778 27.8495 23.0087 26.3233 24.5375C24.7972 26.0664 22.8696 27.1306 20.7643 27.6067C22.8696 28.083 24.797 29.1472 26.3232 30.676C27.8494 32.2048 28.9117 34.1356 29.3872 36.2446C29.4091 36.1449 29.4319 36.0453 29.4568 35.9516C30.5512 31.5713 34.5189 28.5117 39.0945 28.5117C39.3005 28.5117 39.5084 28.5176 39.7144 28.5306L51.0723 29.2282C51.6772 29.2656 52.2665 29.4365 52.7979 29.7286C53.3293 30.0207 53.7897 30.4268 54.1461 30.9178C54.5026 31.4089 54.7464 31.9728 54.8599 32.5692C54.9735 33.1657 54.9541 33.7799 54.8032 34.3679C53.3081 40.2008 49.9177 45.3694 45.1664 49.0589C40.415 52.7484 34.5731 54.749 28.5614 54.7452H28.4798Z" fill="#594842"/>
<path d="M28.3642 54.6507C21.1242 54.6278 14.336 51.8003 9.24899 46.6876C4.162 41.5748 1.36033 34.7658 1.36133 27.5132C1.3623 22.4222 2.79286 17.434 5.48957 13.1188C8.18627 8.80356 12.0404 5.33523 16.6115 3.11011C21.1826 0.88498 26.2863 -0.00720099 31.3396 0.535502C36.3929 1.0782 41.1918 3.0339 45.1882 6.17914C49.8636 9.87083 53.2034 14.995 54.6965 20.768C54.8454 21.355 54.863 21.9677 54.7483 22.5624C54.6336 23.157 54.3894 23.719 54.0329 24.2083C53.6765 24.6975 53.2167 25.102 52.6864 25.3928C52.156 25.6836 51.5681 25.8536 50.9646 25.8907L39.6057 26.5883C39.4008 26.6013 39.1918 26.6073 38.9869 26.6073C34.4103 26.6073 30.4466 23.5476 29.3482 19.1664C29.3243 19.0667 29.3004 18.967 29.2785 18.8743C28.803 20.9831 27.7407 22.9137 26.2147 24.4424C24.6888 25.9712 22.7617 27.0356 20.6566 27.5122C22.7614 27.9891 24.6882 29.0537 26.2136 30.5827C27.739 32.1117 28.8007 34.0424 29.2756 36.1511C29.2974 36.0514 29.3203 35.9518 29.3452 35.8591C30.4396 31.4739 34.4073 28.4182 38.9829 28.4182C39.1889 28.4182 39.3968 28.4251 39.6027 28.4371L50.9616 29.1348C51.5666 29.1723 52.1559 29.3432 52.6872 29.6354C53.2186 29.9276 53.6789 30.3339 54.0353 30.825C54.3917 31.3162 54.6353 31.8802 54.7488 32.4767C54.8622 33.0732 54.8427 33.6874 54.6916 34.2754C53.1966 40.1081 49.8063 45.2764 45.0551 48.9656C40.3039 52.6547 34.4621 54.6549 28.4508 54.6507H28.3642Z" fill="#594842"/>
<path d="M28.2539 54.5574C21.0149 54.5345 14.2256 51.706 9.13864 46.5943C4.05165 41.4825 1.25098 34.6725 1.25098 27.4199C1.25098 23.8562 1.9517 20.3274 3.31313 17.035C4.67457 13.7426 6.67005 10.751 9.18565 8.23113C11.7012 5.71126 14.6877 3.71242 17.9744 2.34874C21.2612 0.985066 24.7839 0.283256 28.3414 0.283386C34.4146 0.260917 40.3154 2.3046 45.0778 6.07984C49.7542 9.77159 53.094 14.8967 54.5862 20.6707C54.7355 21.2581 54.7535 21.8713 54.639 22.4666C54.5244 23.0618 54.2801 23.6244 53.9234 24.1141C53.5667 24.6038 53.1065 25.0086 52.5756 25.2996C52.0448 25.5905 51.4563 25.7605 50.8523 25.7974L39.4934 26.495C39.2884 26.508 39.0805 26.515 38.8746 26.515C34.298 26.515 30.3352 23.4553 29.2358 19.074C29.212 18.9777 29.1891 18.88 29.1672 18.781C28.6916 20.8899 27.6291 22.8206 26.103 24.3494C24.5768 25.8781 22.6495 26.9424 20.5443 27.4189C22.6496 27.8952 24.5771 28.9594 26.1032 30.4882C27.6294 32.017 28.6918 33.9478 29.1672 36.0568C29.1891 35.9571 29.212 35.8575 29.2358 35.7638C30.3303 31.3786 34.298 28.3239 38.8746 28.3239C39.0795 28.3239 39.2884 28.3298 39.4934 28.3428L50.8523 29.0404C51.4577 29.0779 52.0475 29.2489 52.5792 29.5413C53.1109 29.8338 53.5715 30.2404 53.9281 30.732C54.2846 31.2236 54.5282 31.7881 54.6415 32.3851C54.7547 32.9821 54.7348 33.5967 54.5832 34.1851C53.0872 40.0171 49.6964 45.1846 44.9451 48.8731C40.1939 52.5616 34.3524 54.5615 28.3414 54.5574H28.2539Z" fill="#594842"/>
<path d="M28.1445 54.4621C20.9045 54.4391 14.1163 51.6117 9.02928 46.4989C3.9423 41.3862 1.14062 34.5771 1.14062 27.3246C1.14108 22.2331 2.57129 17.2445 5.26783 12.9288C7.96437 8.61302 11.8185 5.14417 16.3897 2.91859C20.961 0.693014 26.0651 -0.199514 31.1187 0.34299C36.1724 0.885494 40.9718 2.84115 44.9685 5.98649C49.644 9.67797 52.9834 14.8023 54.4758 20.5753C54.6253 21.1628 54.6435 21.7761 54.529 22.3714C54.4145 22.9667 54.1702 23.5293 53.8135 24.0191C53.4568 24.5088 52.9965 24.9136 52.4655 25.2045C51.9346 25.4955 51.346 25.6653 50.7419 25.702L39.384 26.3997C39.1781 26.4126 38.9701 26.4186 38.7642 26.4186C34.1876 26.4186 30.2249 23.3589 29.1265 18.9777C29.1016 18.878 29.0787 18.7833 29.0568 18.6857C28.5812 20.7945 27.5188 22.7252 25.9926 24.254C24.4665 25.7828 22.5392 26.8471 20.4339 27.3236C22.5392 27.7996 24.4666 28.8637 25.9928 30.3923C27.519 31.9209 28.5814 33.8516 29.0568 35.9604C29.0787 35.8608 29.1016 35.7611 29.1265 35.6684C30.2209 31.2832 34.1886 28.2275 38.7642 28.2275C38.9701 28.2275 39.1781 28.2345 39.384 28.2464L50.7419 28.9441C51.347 28.9815 51.9364 29.1523 52.4679 29.4445C52.9993 29.7366 53.4598 30.1428 53.8163 30.634C54.1728 31.1252 54.4165 31.6893 54.53 32.2858C54.6435 32.8823 54.624 33.4967 54.4729 34.0848C52.9781 39.9179 49.5877 45.0866 44.8363 48.7762C40.085 52.4658 34.2428 54.4662 28.2311 54.4621H28.1445Z" fill="#594842"/>
<path d="M28.0339 54.3689C20.7939 54.3459 14.0056 51.5175 8.91866 46.4057C3.83168 41.2939 1.03101 34.4839 1.03101 27.2313C1.03233 20.0352 3.88697 13.1342 8.96708 8.04615C14.0472 2.95815 20.9368 0.0998114 28.1205 0.0998115C34.1934 0.076219 40.0945 2.11847 44.8578 5.89228C49.5333 9.58437 52.873 14.7088 54.3662 20.4821C54.5164 21.0699 54.5351 21.6836 54.4209 22.2795C54.3067 22.8753 54.0625 23.4386 53.7058 23.9289C53.349 24.4192 52.8885 24.8245 52.3572 25.1157C51.8259 25.407 51.2369 25.5771 50.6323 25.6138L39.2734 26.3114C39.0685 26.3244 38.8595 26.3314 38.6546 26.3314C34.078 26.3314 30.1143 23.2717 29.0159 18.8905C28.992 18.7908 28.9681 18.6961 28.9462 18.5975C28.4701 20.706 27.4072 22.6362 25.8807 24.1643C24.3541 25.6924 22.4266 26.7558 20.3213 27.2313C22.4265 27.7077 24.3538 28.7719 25.8798 30.3007C27.4058 31.8296 28.468 33.7603 28.9432 35.8692C28.9651 35.7696 28.989 35.6699 29.0129 35.5762C30.1073 31.196 34.075 28.1363 38.6506 28.1363C38.8565 28.1363 39.0655 28.1423 39.2704 28.1552L50.6293 28.8529C51.2342 28.8904 51.8234 29.0614 52.3546 29.3535C52.8859 29.6457 53.3462 30.0518 53.7025 30.5428C54.0589 31.0339 54.3026 31.5977 54.4161 32.1941C54.5296 32.7905 54.5102 33.4046 54.3593 33.9925C52.8643 39.8249 49.4742 44.993 44.7235 48.6823C39.9728 52.3715 34.1315 54.3722 28.1205 54.3689H28.0339Z" fill="#594842"/>
<path d="M27.9235 54.2742C20.6846 54.2513 13.8953 51.4238 8.80931 46.311C3.72332 41.1983 0.920654 34.3892 0.920654 27.1367C0.920654 23.573 1.62138 20.0442 2.98281 16.7518C4.34425 13.4593 6.33973 10.4678 8.85532 7.94792C11.3709 5.42805 14.3574 3.42921 17.6441 2.06553C20.9309 0.70185 24.4536 3.93854e-05 28.0111 0.000170269C34.0848 -0.0214839 39.9858 2.02287 44.7485 5.79862C49.424 9.49011 52.7634 14.6144 54.2559 20.3874C54.4054 20.9749 54.4235 21.5882 54.309 22.1835C54.1945 22.7788 53.9502 23.3414 53.5935 23.8312C53.2368 24.3209 52.7765 24.7257 52.2456 25.0167C51.7146 25.3076 51.1261 25.4775 50.522 25.5142L39.1631 26.2118C38.9581 26.2248 38.7502 26.2307 38.5442 26.2307C33.9676 26.2307 30.0049 23.1711 28.9055 18.7898C28.8816 18.6902 28.8588 18.5905 28.8369 18.4978C28.3611 20.6066 27.2986 22.5373 25.7725 24.066C24.2464 25.5948 22.3191 26.6591 20.214 27.1357C22.3201 27.6123 24.2482 28.6774 25.7744 30.2073C27.3007 31.7373 28.3626 33.6694 28.8369 35.7795C28.8588 35.6799 28.8816 35.5802 28.9055 35.4875C30.0049 31.1023 33.9676 28.0466 38.5442 28.0466C38.7492 28.0466 38.9581 28.0536 39.1631 28.0656L50.522 28.7632C51.1271 28.8006 51.7164 28.9714 52.2479 29.2636C52.7794 29.5557 53.2398 29.9619 53.5963 30.4531C53.9528 30.9443 54.1965 31.5084 54.31 32.1049C54.4235 32.7015 54.404 33.3158 54.2529 33.9039C52.7566 39.7356 49.3657 44.9027 44.6145 48.5909C39.8632 52.279 34.0219 54.2785 28.0111 54.2742H27.9235Z" fill="#594842"/>
<path d="M39.0495 29.9028L39.0499 29.9029L50.4084 30.6005C50.4085 30.6005 50.4086 30.6005 50.4087 30.6005C50.7426 30.6215 51.0677 30.7161 51.361 30.8776C51.6543 31.0391 51.9084 31.2635 52.1053 31.5348C52.3021 31.8062 52.4367 32.1177 52.4994 32.4473C52.5621 32.7769 52.5515 33.1162 52.4681 33.4412L52.4681 33.4412C49.6633 44.386 39.7346 52.4715 27.9297 52.4292H27.9288C24.6182 52.4255 21.3409 51.7682 18.284 50.4949C15.2272 49.2215 12.4508 47.3572 10.1136 45.0083C7.77633 42.6595 5.92412 39.8722 4.66284 36.8058C3.40155 33.7393 2.75593 30.454 2.7629 27.1374V27.1367C2.7629 13.1682 14.0681 1.84512 28.011 1.84512C39.7855 1.84512 49.6776 9.91956 52.4708 20.844C52.5526 21.1681 52.5619 21.5063 52.4983 21.8345C52.4347 22.1627 52.2995 22.4728 52.1026 22.7426L52.3853 22.949L52.1026 22.7426C51.9056 23.0125 51.6517 23.2355 51.359 23.3957C51.0663 23.556 50.7419 23.6495 50.409 23.6698L50.4089 23.6698L39.0499 24.3675L39.0499 24.3675C35.1821 24.6056 31.6343 22.0928 30.6926 18.3383C30.6705 18.2488 30.6493 18.1581 30.629 18.067C30.629 18.067 30.629 18.0669 30.6289 18.0668L29.5908 13.3543C29.5908 13.354 29.5907 13.3537 29.5906 13.3533C29.5534 13.1812 29.4584 13.0268 29.3214 12.916C29.1841 12.8049 29.0129 12.7443 28.8363 12.7443C28.6596 12.7443 28.4884 12.8049 28.3511 12.916C28.2141 13.0268 28.1192 13.1811 28.0819 13.3533C28.0818 13.3536 28.0818 13.354 28.0817 13.3543L27.0434 18.0726C27.0434 18.0727 27.0434 18.0727 27.0434 18.0728C26.6512 19.8515 25.7597 21.4808 24.4739 22.7687C23.1881 24.0566 21.5616 24.9494 19.7861 25.3418L15.0809 26.3819C15.0807 26.382 15.0804 26.3821 15.0801 26.3821C14.9078 26.4195 14.7535 26.5148 14.6429 26.652L14.9153 26.8717L14.6429 26.652C14.5321 26.7894 14.4717 26.9607 14.4717 27.1372C14.4717 27.3137 14.5321 27.4849 14.6429 27.6223C14.7535 27.7595 14.9077 27.8548 15.08 27.8922C15.0803 27.8923 15.0806 27.8923 15.0809 27.8924L19.7861 28.9325C21.5616 29.325 23.1881 30.2177 24.4739 31.5056C25.7597 32.7935 26.6512 34.4228 27.0434 36.2016C27.0434 36.2016 27.0434 36.2017 27.0434 36.2017L28.0807 40.916C28.0808 40.9164 28.0808 40.9167 28.0809 40.9171C28.1182 41.0892 28.2131 41.2435 28.3501 41.3544L28.5702 41.0823L28.3501 41.3544C28.4874 41.4654 28.6586 41.5261 28.8353 41.5261C29.0119 41.5261 29.1831 41.4654 29.3204 41.3544L29.1003 41.0823L29.3204 41.3544C29.4574 41.2435 29.5524 41.0892 29.5896 40.9171C29.5897 40.9167 29.5898 40.9164 29.5898 40.916L30.6279 36.2025C30.628 36.2024 30.628 36.2023 30.628 36.2021C30.6482 36.1117 30.6694 36.0219 30.6918 35.9304C31.6348 32.1761 35.1874 29.6609 39.0495 29.9028Z" fill="white" stroke="#594842" stroke-width="0.7"/>
</svg>
