<svg width="60" height="61" viewBox="0 0 60 61" fill="none" xmlns="http://www.w3.org/2000/svg">
<path d="M33.5378 59.5356C26.2978 59.5127 19.5096 56.6852 14.4226 51.5724C9.33559 46.4597 6.53491 39.6506 6.53491 32.3981C6.53513 27.3067 7.96516 22.318 10.6616 18.0022C13.358 13.6864 17.212 10.2174 21.7833 7.99184C26.3545 5.76623 31.4586 4.8737 36.5122 5.41626C41.5658 5.95881 46.3651 7.91455 50.3618 11.06C55.0372 14.7517 58.3769 19.8758 59.8701 25.6488C60.0196 26.2361 60.0378 26.8493 59.9234 27.4444C59.8091 28.0396 59.5649 28.6021 59.2084 29.0918C58.8519 29.5816 58.3919 29.9864 57.8612 30.2775C57.3305 30.5685 56.7421 30.7386 56.1382 30.7755L44.7793 31.4732C44.5744 31.4851 44.3654 31.4921 44.1605 31.4921C39.5839 31.4921 35.6202 28.4324 34.5218 24.0512C34.4979 23.9515 34.474 23.8569 34.4521 23.7592C33.9766 25.8679 32.9143 27.7985 31.3883 29.3273C29.8624 30.8561 27.9352 31.9204 25.8302 32.3971C27.935 32.874 29.8617 33.9386 31.3872 35.4676C32.9126 36.9965 33.9743 38.9273 34.4491 41.0359C34.471 40.9363 34.4939 40.8366 34.5188 40.7439C35.6132 36.3587 39.5809 33.303 44.1565 33.303C44.3624 33.303 44.5704 33.31 44.7763 33.322L56.1352 34.0196C56.7402 34.0571 57.3295 34.2281 57.8608 34.5203C58.3922 34.8125 58.8525 35.2187 59.2089 35.7099C59.5653 36.2011 59.8089 36.7651 59.9224 37.3615C60.0358 37.958 60.0163 38.5722 59.8651 39.1603C58.37 44.9928 54.9797 50.161 50.2285 53.8502C45.4774 57.5393 39.6357 59.5396 33.6244 59.5356H33.5378Z" fill="white"/>
<path d="M33.4275 59.4416C26.1885 59.4196 19.3992 56.5912 14.3132 51.4784C9.22723 46.3656 6.42456 39.5576 6.42456 32.305C6.42483 27.2136 7.85491 22.2248 10.5514 17.9089C13.2478 13.593 17.1019 10.124 21.6732 7.8983C26.2445 5.6726 31.3487 4.77999 36.4024 5.32246C41.4562 5.86492 46.2556 7.82059 50.2524 10.966C54.928 14.6578 58.2674 19.7824 59.7598 25.5558C59.9091 26.1432 59.9271 26.7564 59.8126 27.3516C59.698 27.9467 59.4536 28.5092 59.0969 28.9989C58.7403 29.4885 58.28 29.8932 57.7492 30.1841C57.2183 30.475 56.6298 30.6448 56.0259 30.6815L44.667 31.3792C44.462 31.3921 44.2541 31.3981 44.0481 31.3981C39.4715 31.3981 35.5088 28.3394 34.4094 23.9582C34.3855 23.8618 34.3627 23.7642 34.3408 23.6652C33.8651 25.774 32.8027 27.7047 31.2766 29.2335C29.7504 30.7623 27.8231 31.8266 25.7179 32.303C27.8232 32.7792 29.7508 33.8434 31.2769 35.3722C32.8031 36.901 33.8655 38.8319 34.3408 40.9409C34.3627 40.8426 34.3855 40.7449 34.4094 40.6479C35.5038 36.2677 39.4715 33.208 44.0481 33.208C44.2531 33.208 44.462 33.214 44.667 33.2269L56.0259 33.9246C56.6308 33.962 57.2201 34.1328 57.7515 34.4249C58.2829 34.717 58.7433 35.1231 59.0997 35.6142C59.4562 36.1053 59.7 36.6692 59.8135 37.2656C59.9271 37.862 59.9077 38.4762 59.7568 39.0643C58.2619 44.8974 54.8715 50.0662 50.1202 53.7559C45.3689 57.4456 39.5268 59.4463 33.515 59.4426L33.4275 59.4416Z" fill="white"/>
<path d="M33.3179 59.3478C26.0779 59.3249 19.2896 56.4964 14.2026 51.3847C9.11564 46.2729 6.31396 39.4628 6.31396 32.2103C6.31442 27.1189 7.74463 22.1303 10.4412 17.8145C13.1377 13.4988 16.9918 10.0299 21.5631 7.80433C26.1344 5.57876 31.2384 4.68623 36.2921 5.22873C41.3457 5.77124 46.1451 7.72689 50.1418 10.8722C54.8173 14.5637 58.1567 19.688 59.6492 25.461C59.7985 26.0485 59.8165 26.6617 59.702 27.257C59.5874 27.8522 59.343 28.4147 58.9864 28.9045C58.6297 29.3942 58.1695 29.799 57.6386 30.0899C57.1078 30.3809 56.5193 30.5509 55.9153 30.5878L44.5574 31.2854C44.3524 31.2974 44.1435 31.3043 43.9375 31.3043C39.361 31.3043 35.3982 28.2447 34.2998 23.8634C34.275 23.7638 34.2521 23.6641 34.2302 23.5714C33.7545 25.6803 32.6921 27.611 31.166 29.1398C29.6398 30.6685 27.7125 31.7328 25.6073 32.2093C27.7125 32.6854 29.64 33.7494 31.1661 35.278C32.6923 36.8067 33.7547 38.7373 34.2302 40.8462C34.2521 40.7465 34.275 40.6469 34.2998 40.5542C35.3942 36.1689 39.3619 33.1133 43.9375 33.1133C44.1435 33.1133 44.3514 33.1202 44.5574 33.1322L55.9153 33.8298C56.5204 33.8672 57.1097 34.0381 57.6412 34.3302C58.1727 34.6224 58.6331 35.0286 58.9896 35.5198C59.3461 36.0109 59.5898 36.575 59.7033 37.1715C59.8168 37.7681 59.7973 38.3824 59.6462 38.9705C58.1513 44.8035 54.7609 49.9722 50.0095 53.6617C45.2582 57.3513 39.4161 59.3517 33.4044 59.3478H33.3179Z" fill="white"/>
<path d="M33.2075 59.2533C25.9685 59.2314 19.1792 56.403 14.0922 51.2902C9.00527 46.1774 6.20459 39.3684 6.20459 32.1168C6.20462 27.0254 7.63451 22.0366 10.3308 17.7206C13.0272 13.4046 16.8812 9.93556 21.4525 7.70983C26.0238 5.4841 31.1279 4.59149 36.1816 5.134C41.2353 5.67652 46.0348 7.63227 50.0314 10.7778C54.7069 14.4699 58.0466 19.5943 59.5398 25.3676C59.6891 25.955 59.7072 26.5682 59.5926 27.1633C59.478 27.7585 59.2337 28.321 58.877 28.8107C58.5203 29.3003 58.0601 29.705 57.5292 29.9959C56.9983 30.2867 56.4099 30.4566 55.8059 30.4933L44.447 31.191C44.242 31.2039 44.0331 31.2099 43.8282 31.2099C39.2516 31.2099 35.2878 28.1512 34.1895 23.77C34.1656 23.6703 34.1417 23.5756 34.1198 23.477C33.6447 25.5866 32.5822 27.5181 31.0556 29.0473C29.529 30.5765 27.6009 31.6409 25.4949 32.1168C27.6001 32.5931 29.5274 33.6574 31.0534 35.1862C32.5794 36.715 33.6416 38.6458 34.1168 40.7547C34.1387 40.6551 34.1626 40.5554 34.1865 40.4617C35.2809 36.0815 39.2486 33.0218 43.8242 33.0218C44.0301 33.0218 44.2391 33.0278 44.444 33.0407L55.8029 33.7384C56.4078 33.7759 56.9969 33.9469 57.5282 34.239C58.0595 34.5311 58.5197 34.9373 58.8761 35.4283C59.2325 35.9194 59.4761 36.4832 59.5897 37.0796C59.7032 37.676 59.6838 38.2901 59.5328 38.878C58.0379 44.7104 54.6478 49.8785 49.8971 53.5677C45.1464 57.257 39.3051 59.2577 33.294 59.2543L33.2075 59.2533Z" fill="white"/>
<path d="M33.0971 59.1603C25.8582 59.1374 19.0689 56.309 13.9829 51.1972C8.8969 46.0854 6.09424 39.2744 6.09424 32.0218C6.0947 26.9304 7.52491 21.9418 10.2214 17.6261C12.918 13.3103 16.7721 9.84143 21.3434 7.61586C25.9146 5.39028 31.0187 4.49775 36.0723 5.04026C41.126 5.58276 45.9254 7.53841 49.9221 10.6838C54.5979 14.3758 57.9374 19.5008 59.4294 25.2746C59.5788 25.862 59.5968 26.4753 59.4822 27.0705C59.3676 27.6657 59.1233 28.2283 58.7666 28.718C58.41 29.2077 57.9498 29.6125 57.4189 29.9035C56.888 30.1944 56.2996 30.3644 55.6955 30.4013L44.3366 31.0989C44.1317 31.1109 43.9237 31.1179 43.7178 31.1179C39.1412 31.1179 35.1785 28.0582 34.0791 23.677C34.0552 23.5773 34.0323 23.4826 34.0105 23.3849C33.5347 25.4938 32.4722 27.4244 30.9461 28.9531C29.42 30.4819 27.4927 31.5462 25.3876 32.0228C27.4928 32.4989 29.4202 33.5629 30.9464 35.0916C32.4726 36.6202 33.535 38.5509 34.0105 40.6597C34.0323 40.56 34.0552 40.4604 34.0791 40.3677C35.1785 35.9825 39.1412 32.9268 43.7178 32.9268C43.9228 32.9268 44.1317 32.9338 44.3376 32.9457L55.6955 33.6434C56.3006 33.6807 56.89 33.8516 57.4215 34.1437C57.9529 34.4359 58.4134 34.8421 58.7699 35.3333C59.1264 35.8245 59.3701 36.3885 59.4836 36.9851C59.5971 37.5816 59.5776 38.1959 59.4265 38.784C57.9313 44.6168 54.5409 49.7853 49.7895 53.4747C45.0382 57.164 39.1963 59.1643 33.1847 59.1603H33.0971Z" fill="white"/>
<path d="M32.9875 59.0606C25.7476 59.0387 18.9593 56.2102 13.8723 51.0975C8.78531 45.9847 5.98364 39.1796 5.98364 31.9281C5.98391 26.8366 7.41399 21.8479 10.1105 17.532C12.8069 13.216 16.661 9.74704 21.2323 7.52135C25.8036 5.29565 30.9078 4.40304 35.9615 4.9455C41.0152 5.48797 45.8147 7.44363 49.8115 10.589C54.487 14.2798 57.8273 19.4028 59.3218 25.1749C59.471 25.7622 59.4889 26.3754 59.3742 26.9705C59.2596 27.5656 59.0152 28.128 58.6586 28.6176C58.3019 29.1072 57.8418 29.5119 57.311 29.8028C56.7802 30.0937 56.1918 30.2637 55.5879 30.3006L44.229 30.9982C44.0241 31.0112 43.8151 31.0172 43.6092 31.0172C39.0326 31.0172 35.0699 27.9585 33.9715 23.5772C33.9466 23.4776 33.9237 23.3829 33.9018 23.2842C33.4265 25.3933 32.3642 27.3241 30.838 28.853C29.3118 30.3818 27.3843 31.446 25.279 31.9221C27.3843 32.3983 29.3118 33.4624 30.838 34.9913C32.3642 36.5201 33.4265 38.451 33.9018 40.56C33.9237 40.4603 33.9466 40.3607 33.9715 40.267C35.0659 35.8867 39.0336 32.8271 43.6092 32.8271C43.8151 32.8271 44.0231 32.833 44.229 32.846L55.5869 33.5436C56.1919 33.581 56.7812 33.7519 57.3126 34.044C57.8439 34.3361 58.3043 34.7422 58.6608 35.2332C59.0173 35.7243 59.261 36.2882 59.3746 36.8846C59.4882 37.4811 59.4688 38.0953 59.3179 38.6833C57.8238 44.5176 54.4335 49.6876 49.6817 53.3782C44.9298 57.0687 39.0868 59.0697 33.0741 59.0656L32.9875 59.0606Z" fill="white"/>
<path d="M32.8772 58.9711C25.6382 58.9482 18.8489 56.1197 13.7619 51.008C8.67494 45.8962 5.87427 39.0862 5.87427 31.8336C5.87449 26.7422 7.30451 21.7536 10.0009 17.4377C12.6973 13.1219 16.5514 9.653 21.1226 7.42738C25.6939 5.20177 30.7979 4.30925 35.8515 4.8518C40.9052 5.39436 45.7045 7.3501 49.7011 10.4956C54.3766 14.1872 57.7163 19.3114 59.2095 25.0844C59.3588 25.6718 59.3768 26.2851 59.2623 26.8803C59.1477 27.4755 58.9033 28.0381 58.5467 28.5278C58.19 29.0175 57.7298 29.4223 57.1989 29.7133C56.6681 30.0042 56.0796 30.1742 55.4756 30.2111L44.1167 30.9087C43.9117 30.9207 43.7038 30.9277 43.4978 30.9277C38.9212 30.9277 34.9585 27.868 33.8591 23.4868C33.8353 23.3871 33.8114 23.2874 33.7895 23.1947C33.3141 25.3034 32.2518 27.234 30.7258 28.7626C29.1999 30.2913 27.2726 31.3554 25.1676 31.8316C27.2726 32.3083 29.1997 33.3726 30.7257 34.9014C32.2516 36.4302 33.3139 38.3608 33.7895 40.4695C33.8114 40.3698 33.8353 40.2702 33.8591 40.1775C34.9535 35.7923 38.9212 32.7366 43.4968 32.7366C43.7028 32.7366 43.9117 32.7435 44.1167 32.7555L55.4756 33.4532C56.0806 33.4907 56.6698 33.6616 57.2012 33.9538C57.7325 34.246 58.1929 34.6523 58.5492 35.1434C58.9056 35.6346 59.1493 36.1986 59.2627 36.7951C59.3762 37.3916 59.3566 38.0058 59.2055 38.5938C57.7109 44.4268 54.3208 49.5956 49.5695 53.2852C44.8183 56.9747 38.9763 58.9752 32.9647 58.9711H32.8772Z" fill="white"/>
<path d="M32.7678 58.8761C25.5278 58.8542 18.7395 56.0257 13.6526 50.913C8.56559 45.8002 5.76392 38.9912 5.76392 31.7396C5.76419 26.6481 7.19426 21.6594 9.89073 17.3435C12.5872 13.0276 16.4413 9.55857 21.0126 7.33287C25.5839 5.10717 30.688 4.21456 35.7418 4.75703C40.7955 5.29949 45.595 7.25516 49.5918 10.4006C54.2673 14.0924 57.6067 19.217 59.0991 24.9904C59.2485 25.5778 59.2665 26.1909 59.1519 26.7861C59.0373 27.3813 58.793 27.9438 58.4363 28.4334C58.0796 28.9231 57.6194 29.3278 57.0885 29.6187C56.5576 29.9095 55.9692 30.0794 55.3652 30.1161L44.0073 30.8137C43.8014 30.8267 43.5934 30.8327 43.3875 30.8327C38.8109 30.8327 34.8482 27.774 33.7488 23.3928C33.7249 23.2964 33.702 23.1987 33.6801 23.0997C33.2048 25.2088 32.1425 27.1396 30.6163 28.6685C29.0901 30.1973 27.1626 31.2615 25.0572 31.7376C27.1626 32.2138 29.0901 33.2779 30.6163 34.8068C32.1425 36.3356 33.2048 38.2665 33.6801 40.3755C33.702 40.2765 33.7249 40.1788 33.7488 40.0825C34.8472 35.7042 38.8109 32.6495 43.3875 32.6495C43.5924 32.6495 43.8014 32.6555 44.0073 32.6685L55.3652 33.3661C55.9702 33.4035 56.5594 33.5744 57.0908 33.8665C57.6222 34.1586 58.0826 34.5646 58.4391 35.0557C58.7956 35.5468 59.0393 36.1107 59.1529 36.7071C59.2665 37.3036 59.2471 37.9178 59.0961 38.5058C57.6001 44.3371 54.2096 49.504 49.459 53.1923C44.7084 56.8806 38.8677 58.8806 32.8573 58.8771L32.7678 58.8761Z" fill="white"/>
<path d="M32.6584 58.7824C25.4185 58.7595 18.6302 55.931 13.5432 50.8192C8.45623 45.7075 5.65356 38.8974 5.65356 31.6449C5.65402 26.5535 7.08423 21.5649 9.78077 17.2491C12.4773 12.9333 16.3314 9.46448 20.9027 7.2389C25.474 5.01333 30.578 4.1208 35.6317 4.6633C40.6853 5.20581 45.4847 7.16146 49.4814 10.3068C54.1569 13.9985 57.4966 19.1226 58.9898 24.8956C59.1391 25.4831 59.1571 26.0963 59.0426 26.6915C58.928 27.2868 58.6836 27.8493 58.327 28.339C57.9703 28.8288 57.5101 29.2335 56.9792 29.5245C56.4484 29.8155 55.8599 29.9855 55.2559 30.0223L43.897 30.72C43.692 30.732 43.4831 30.7389 43.2771 30.7389C38.7005 30.7389 34.7378 27.6792 33.6394 23.298C33.6146 23.1983 33.5917 23.1037 33.5698 23.006C33.0944 25.1147 32.0321 27.0453 30.5061 28.5739C28.9802 30.1025 27.0529 31.1666 24.9479 31.6429C27.0529 32.1195 28.98 33.1839 30.506 34.7127C32.0319 36.2414 33.0942 38.172 33.5698 40.2808C33.5917 40.1811 33.6146 40.0814 33.6394 39.9887C34.7338 35.6035 38.7015 32.5478 43.2771 32.5478C43.4831 32.5478 43.691 32.5548 43.897 32.5668L55.2559 33.2644C55.8609 33.3019 56.4501 33.4729 56.9815 33.7651C57.5128 34.0573 57.9732 34.4635 58.3295 34.9547C58.6859 35.4459 58.9296 36.0099 59.043 36.6063C59.1565 37.2028 59.1369 37.817 58.9858 38.4051C57.491 44.2382 54.1007 49.407 49.3493 53.0965C44.5979 56.7861 38.7558 58.7865 32.744 58.7824H32.6584Z" fill="white"/>
<path d="M32.5468 58.6875C25.3079 58.6656 18.5186 55.8372 13.4316 50.7244C8.34462 45.6116 5.54395 38.8026 5.54395 31.553C5.54331 26.461 6.97284 21.4716 9.66913 17.155C12.3654 12.8383 16.2197 9.36872 20.7914 7.14267C25.3631 4.91663 30.4678 4.02397 35.522 4.56673C40.5762 5.10949 45.376 7.06576 49.3728 10.212C54.0483 13.9041 57.388 19.0285 58.8811 24.8018C59.0305 25.3895 59.0485 26.003 58.9337 26.5984C58.8189 27.1939 58.5742 27.7566 58.217 28.2463C57.8599 28.736 57.3992 29.1406 56.8679 29.4313C56.3365 29.7219 55.7476 29.8913 55.1433 29.9275L43.7844 30.6251C43.5794 30.6381 43.3715 30.6441 43.1655 30.6441C38.5889 30.6441 34.6262 27.5854 33.5268 23.2042C33.5029 23.1078 33.4801 23.0102 33.4582 22.9111C32.9833 25.0205 31.9215 26.9519 30.3957 28.4814C28.8699 30.0109 26.9426 31.0759 24.8373 31.553C26.9426 32.0293 28.87 33.0935 30.3962 34.6223C31.9224 36.1511 32.9847 38.0819 33.4602 40.1909C33.4821 40.0926 33.5049 39.9949 33.5288 39.8979C34.6282 35.5177 38.5909 32.458 43.1675 32.458C43.3725 32.458 43.5814 32.4639 43.7864 32.4769L55.1453 33.1746C55.7502 33.2122 56.3393 33.3833 56.8706 33.6756C57.4019 33.9678 57.8621 34.374 58.2185 34.8652C58.5748 35.3563 58.8185 35.9202 58.932 36.5166C59.0455 37.113 59.0261 37.7272 58.8752 38.3152C57.3798 44.1474 53.9893 49.3151 49.2381 53.0038C44.487 56.6924 38.6454 58.6921 32.6344 58.6875H32.5468Z" fill="white"/>
<path d="M32.4375 58.5939C25.1975 58.571 18.4092 55.7425 13.3222 50.6308C8.23526 45.519 5.43359 38.7089 5.43359 31.4534C5.43461 26.3622 6.86523 21.374 9.56199 17.0587C12.2587 12.7434 16.1129 9.27499 20.6841 7.04977C25.2552 4.82456 30.3591 3.93229 35.4124 4.47491C40.4658 5.01752 45.2649 6.97314 49.2614 10.1183C53.9369 13.8098 57.2764 18.9341 58.7688 24.7071C58.9181 25.2946 58.9362 25.9078 58.8216 26.5031C58.707 27.0983 58.4627 27.6608 58.106 28.1506C57.7493 28.6403 57.2891 29.0451 56.7583 29.336C56.2274 29.627 55.6389 29.797 55.0349 29.8339L43.677 30.5315C43.4711 30.5435 43.2631 30.5504 43.0572 30.5504C38.4806 30.5504 34.5178 27.4908 33.4195 23.1095C33.3946 23.0099 33.3717 22.9102 33.3498 22.8175C32.8742 24.9262 31.8117 26.8566 30.2855 28.3851C28.7594 29.9135 26.832 30.9774 24.7269 31.4534C26.8334 31.9293 28.7621 32.9936 30.2892 34.523C31.8163 36.0524 32.8793 37.9842 33.3548 40.0943C33.3767 39.9946 33.3996 39.8949 33.4244 39.8023C34.5188 35.417 38.4865 32.3613 43.0621 32.3613C43.2681 32.3613 43.476 32.3683 43.682 32.3803L55.0399 33.0779C55.645 33.1153 56.2343 33.2862 56.7658 33.5783C57.2973 33.8704 57.7577 34.2766 58.1142 34.7678C58.4707 35.259 58.7144 35.8231 58.8279 36.4196C58.9414 37.0162 58.9219 37.6305 58.7708 38.2186C57.275 44.0519 53.8836 49.2206 49.1313 52.9097C44.3791 56.5989 38.5363 58.5987 32.524 58.5939H32.4375Z" fill="white"/>
<path d="M32.3271 58.4994C25.0871 58.4775 18.2989 55.649 13.2119 50.5363C8.1249 45.4235 5.32322 38.6144 5.32422 31.3629C5.32463 26.2716 6.75478 21.2831 9.45127 16.9674C12.1478 12.6517 16.0018 9.18293 20.573 6.95744C25.1442 4.73195 30.2482 3.83951 35.3017 4.3821C40.3553 4.92469 45.1545 6.88043 49.1511 10.0258C53.8263 13.7177 57.166 18.8418 58.6594 24.6146C58.809 25.2021 58.8271 25.8154 58.7126 26.4107C58.5981 27.006 58.3538 27.5686 57.9971 28.0584C57.6404 28.5482 57.1801 28.953 56.6491 29.2439C56.1182 29.5348 55.5296 29.7047 54.9255 29.7414L43.5666 30.439C43.3617 30.452 43.1527 30.4579 42.9478 30.4579C38.3712 30.4579 34.4075 27.3993 33.3091 23.018C33.2852 22.9184 33.2613 22.8187 33.2394 22.725C32.7642 24.8339 31.702 26.7647 30.176 28.2935C28.65 29.8223 26.7227 30.8866 24.6175 31.3629C26.7227 31.8392 28.65 32.9035 30.176 34.4323C31.702 35.9611 32.7642 37.8919 33.2394 40.0008C33.2613 39.9011 33.2842 39.8014 33.3091 39.7078C34.4035 35.3275 38.3712 32.2678 42.9468 32.2678C43.1527 32.2678 43.3607 32.2738 43.5666 32.2868L54.9255 32.9844C55.5311 33.0219 56.1209 33.1931 56.6527 33.4857C57.1845 33.7783 57.6451 34.1851 58.0016 34.677C58.358 35.1688 58.6015 35.7335 58.7146 36.3307C58.8276 36.9279 58.8074 37.5427 58.6555 38.1311C57.1591 43.9626 53.7681 49.1295 49.0168 52.8173C44.2656 56.5051 38.4243 58.5042 32.4137 58.4994H32.3271Z" fill="white"/>
<path d="M32.2165 58.4058C24.9775 58.3829 18.1883 55.5544 13.1013 50.4426C8.0143 45.3309 5.21362 38.5208 5.21362 31.2683C5.2131 26.1765 6.64258 21.1874 9.3387 16.8709C12.0348 12.5545 15.8888 9.08502 20.4602 6.85892C25.0316 4.63282 30.1359 3.73996 35.1899 4.28236C40.2439 4.82476 45.0436 6.78056 49.0405 9.92622C53.7165 13.6173 57.0564 18.7417 58.5488 24.515C58.6982 25.1025 58.7162 25.7157 58.6016 26.311C58.487 26.9062 58.2427 27.4687 57.886 27.9584C57.5294 28.4482 57.0692 28.853 56.5383 29.1439C56.0074 29.4349 55.419 29.6049 54.8149 29.6418L43.456 30.3394C43.2511 30.3514 43.0431 30.3583 42.8372 30.3583C38.2606 30.3583 34.2979 27.2987 33.1985 22.9174C33.1746 22.8178 33.1517 22.7231 33.1298 22.6254C32.654 24.7341 31.5915 26.6646 30.0654 28.1932C28.5393 29.7218 26.612 30.7859 24.5069 31.2623C26.6122 31.7388 28.5395 32.8031 30.0656 34.3318C31.5918 35.8606 32.6542 37.7913 33.1298 39.9002C33.1517 39.8005 33.1746 39.7008 33.1985 39.6082C34.2979 35.2229 38.2606 32.1672 42.8372 32.1672C43.0421 32.1672 43.2511 32.1742 43.456 32.1862L54.8149 32.8838C55.4208 32.921 56.0109 33.092 56.543 33.3845C57.0751 33.6771 57.536 34.084 57.8926 34.576C58.2492 35.068 58.4927 35.633 58.6057 36.2304C58.7186 36.8278 58.6982 37.4429 58.5458 38.0315C57.0501 43.8638 53.6593 49.0316 48.9081 52.7205C44.1569 56.4094 38.3153 58.4096 32.3041 58.4058H32.2165Z" fill="white"/>
<path d="M32.1072 58.3109C24.8673 58.289 18.079 55.4605 12.992 50.3477C7.90502 45.235 5.09937 38.4299 5.09937 31.1744C5.09905 26.0822 6.52894 21.0926 9.2256 16.776C11.9223 12.4594 15.7769 8.98993 20.3489 6.76409C24.9209 4.53825 30.0259 3.64588 35.0802 4.18899C40.1346 4.73209 44.9344 6.68875 48.9312 9.83533C53.6065 13.527 56.9458 18.6512 58.4386 24.4241C58.5881 25.0116 58.6062 25.6249 58.4917 26.2202C58.3772 26.8155 58.1329 27.3781 57.7762 27.8679C57.4195 28.3576 56.9592 28.7625 56.4283 29.0534C55.8973 29.3443 55.3088 29.5142 54.7047 29.5509L43.3467 30.2485C43.1408 30.2615 42.9329 30.2674 42.7269 30.2674C38.1503 30.2674 34.1876 27.2088 33.0892 22.8275C33.0643 22.7279 33.0415 22.6332 33.0196 22.5345C32.5449 24.6434 31.4833 26.5743 29.9578 28.1035C28.4324 29.6326 26.5055 30.6974 24.4006 31.1744C26.506 31.6505 28.4335 32.7147 29.9597 34.2435C31.4859 35.7724 32.5482 37.7032 33.0235 39.8123C33.0454 39.7126 33.0683 39.6129 33.0932 39.5193C34.1876 35.139 38.1553 32.0793 42.7309 32.0793C42.9368 32.0793 43.1448 32.0853 43.3507 32.0983L54.7086 32.7959C55.3137 32.8335 55.9029 33.0044 56.4343 33.2966C56.9657 33.5888 57.4261 33.995 57.7825 34.4862C58.139 34.9773 58.3827 35.5413 58.4963 36.1378C58.6099 36.7342 58.5905 37.3485 58.4396 37.9366C56.9441 43.7698 53.5529 48.9384 48.8007 52.6274C44.0486 56.3165 38.2058 58.3161 32.1938 58.3109H32.1072Z" fill="white"/>
<path d="M31.9968 58.2172C24.7568 58.1943 17.9685 55.3658 12.8816 50.2541C7.79457 45.1423 4.9939 38.3303 4.9939 31.0797C4.99412 25.9883 6.42414 20.9997 9.12055 16.6838C11.817 12.368 15.671 8.89909 20.2422 6.67348C24.8135 4.44787 29.9175 3.55534 34.9712 4.0979C40.0248 4.64045 44.8241 6.59619 48.8207 9.74164C53.4955 13.4336 56.8345 18.5578 58.3271 24.3305C58.4769 24.918 58.4954 25.5313 58.3812 26.1268C58.267 26.7223 58.0229 27.2851 57.6664 27.7752C57.3099 28.2652 56.8497 28.6703 56.3188 28.9616C55.7879 29.2529 55.1994 29.4231 54.5952 29.4602L43.2363 30.1578C43.0313 30.1698 42.8224 30.1768 42.6175 30.1768C38.0409 30.1768 34.0771 27.1171 32.9788 22.7358C32.9549 22.6362 32.931 22.5365 32.9091 22.4438C32.4337 24.5525 31.3715 26.4831 29.8455 28.0117C28.3195 29.5404 26.3923 30.6045 24.2872 31.0807C26.3922 31.5573 28.3194 32.6217 29.8453 34.1505C31.3713 35.6793 32.4335 37.6098 32.9091 39.7186C32.931 39.6189 32.9549 39.5193 32.9788 39.4266C34.0732 35.0414 38.0409 31.9857 42.6165 31.9857C42.8224 31.9857 43.0313 31.9916 43.2363 32.0046L54.5952 32.7022C55.2005 32.7394 55.7901 32.9102 56.3218 33.2024C56.8534 33.4945 57.3141 33.9008 57.6707 34.3921C58.0273 34.8834 58.2711 35.4477 58.3846 36.0444C58.4981 36.6412 58.4784 37.2556 58.3271 37.8439C56.8314 43.6765 53.4403 48.8445 48.6887 52.5333C43.937 56.2221 38.0949 58.2218 32.0833 58.2172H31.9968Z" fill="white"/>
<path d="M31.8862 58.1232C24.6472 58.1003 17.8579 55.2728 12.772 50.16C7.68597 45.0473 4.8833 38.2382 4.8833 30.9867C4.88357 25.8952 6.31365 20.9065 9.01011 16.5906C11.7066 12.2746 15.5607 8.80564 20.132 6.57994C24.7033 4.35424 29.8074 3.46163 34.8612 4.0041C39.9149 4.54656 44.7144 6.50223 48.7111 9.64762C53.3864 13.3393 56.7258 18.4635 58.2185 24.2364C58.3677 24.8238 58.3856 25.4368 58.2709 26.0319C58.1563 26.627 57.9119 27.1893 57.5552 27.6788C57.1985 28.1684 56.7384 28.573 56.2076 28.8638C55.6768 29.1546 55.0885 29.3244 54.4846 29.3612L43.1257 30.0588C42.9208 30.0718 42.7128 30.0777 42.5069 30.0777C37.9303 30.0777 33.9675 27.0191 32.8682 22.6378C32.8443 22.5408 32.8214 22.4432 32.7995 22.3448C32.3241 24.4538 31.2617 26.3846 29.7356 27.9134C28.2094 29.4422 26.2819 30.5064 24.1766 30.9827C26.2828 31.4593 28.2108 32.5244 29.7371 34.0543C31.2633 35.5843 32.3252 37.5164 32.7995 39.6266C32.8214 39.5276 32.8443 39.4299 32.8682 39.3335C33.9675 34.9483 37.9303 31.8936 42.5069 31.8936C42.7118 31.8936 42.9208 31.8996 43.1257 31.9126L54.4846 32.6102C55.0896 32.6478 55.6789 32.8187 56.2103 33.1109C56.7417 33.4031 57.202 33.8093 57.5585 34.3005C57.9149 34.7916 58.1587 35.3556 58.2723 35.9521C58.3858 36.5485 58.3665 37.1628 58.2155 37.7509C56.7198 43.583 53.3291 48.7507 48.5778 52.4393C43.8265 56.1279 37.9848 58.1276 31.9737 58.1232H31.8862Z" fill="white"/>
<path d="M31.7768 58.0294C24.5369 58.0065 17.7486 55.1781 12.6616 50.0663C7.57462 44.9545 4.77295 38.1445 4.77295 30.8919C4.77341 25.8005 6.20362 20.8119 8.90016 16.4962C11.5967 12.1804 15.4508 8.71155 20.0221 6.48597C24.5934 4.2604 29.6974 3.36787 34.7511 3.91037C39.8047 4.45288 44.6041 6.40853 48.6008 9.55387C53.2763 13.2456 56.616 18.3697 58.1092 24.1427C58.2581 24.7301 58.2759 25.3432 58.1611 25.9383C58.0464 26.5334 57.802 27.0958 57.4454 27.5854C57.0888 28.0751 56.6288 28.4798 56.0981 28.7709C55.5674 29.062 54.9792 29.2322 54.3753 29.2694L43.0164 29.9671C42.8114 29.979 42.6025 29.986 42.3965 29.986C37.8199 29.986 33.8572 26.9263 32.7588 22.5451C32.7339 22.4454 32.7111 22.3507 32.6892 22.2531C32.2137 24.3619 31.1513 26.2926 29.6251 27.8212C28.0989 29.3498 26.1715 30.4139 24.0663 30.8899C26.1714 31.3663 28.0986 32.4305 29.6247 33.9591C31.1508 35.4877 32.2134 37.4181 32.6892 39.5268C32.7111 39.4272 32.7339 39.3275 32.7588 39.2348C33.8532 34.8496 37.8209 31.7939 42.3965 31.7939C42.6025 31.7939 42.8104 31.7999 43.0164 31.8128L54.3743 32.5105C54.9794 32.5478 55.5687 32.7187 56.1002 33.0109C56.6317 33.303 57.0921 33.7092 57.4486 34.2004C57.8051 34.6916 58.0488 35.2556 58.1623 35.8522C58.2758 36.4487 58.2563 37.063 58.1052 37.6511C56.6104 43.4845 53.2199 48.6535 48.4684 52.3433C43.7168 56.033 37.8744 58.0336 31.8624 58.0294H31.7768Z" fill="white"/>
<path d="M31.6635 57.934C24.4245 57.9111 17.6352 55.0836 12.5482 49.9709C7.46126 44.8581 4.66357 38.0491 4.66357 30.7975C4.66361 25.706 6.0935 20.7172 8.78983 16.4013C11.4862 12.0853 15.3402 8.61623 19.9115 6.39049C24.4827 4.16476 29.5869 3.27215 34.6406 3.81467C39.6943 4.35718 44.4937 6.31294 48.4904 9.45844C53.1657 13.1503 56.5053 18.2744 57.9988 24.0473C58.1483 24.6347 58.1665 25.248 58.052 25.8433C57.9375 26.4386 57.6931 27.0012 57.3364 27.491C56.9797 27.9808 56.5194 28.3856 55.9885 28.6765C55.4575 28.9674 54.869 29.1373 54.2649 29.174L42.906 29.8716C42.701 29.8846 42.4931 29.8906 42.2871 29.8906C37.7105 29.8906 33.7478 26.8319 32.6484 22.4506C32.6246 22.351 32.6007 22.2563 32.5788 22.1576C32.1036 24.2665 31.0414 26.1973 29.5154 27.7261C27.9894 29.2549 26.0621 30.3192 23.9569 30.7955C26.0621 31.2718 27.9894 32.3361 29.5154 33.8649C31.0414 35.3937 32.1036 37.3245 32.5788 39.4334C32.6007 39.3337 32.6246 39.2341 32.6484 39.1404C33.7428 34.7601 37.7105 31.7005 42.2861 31.7005C42.4921 31.7005 42.701 31.7064 42.906 31.7194L54.2649 32.417C54.8699 32.4545 55.4591 32.6255 55.9905 32.9177C56.5218 33.2099 56.9822 33.6161 57.3385 34.1073C57.6949 34.5985 57.9386 35.1625 58.052 35.759C58.1654 36.3554 58.1459 36.9697 57.9948 37.5577C56.5002 43.3906 53.11 48.5593 48.3588 52.2487C43.6075 55.938 37.7656 57.9383 31.754 57.934H31.6635Z" fill="white"/>
<path d="M31.5559 57.8406C24.3169 57.8177 17.5276 54.9892 12.4416 49.8774C7.35564 44.7657 4.55298 37.9556 4.55298 30.7031C4.55388 25.6122 5.98422 20.6242 8.68061 16.309C11.377 11.9937 15.2307 8.52524 19.8014 6.29977C24.3722 4.0743 29.4757 3.18158 34.5288 3.72361C39.582 4.26563 44.3811 6.22054 48.3778 9.365C53.0533 13.0565 56.3927 18.1808 57.8852 23.9538C58.0345 24.5413 58.0525 25.1545 57.938 25.7497C57.8234 26.345 57.5791 26.9075 57.2224 27.3972C56.8657 27.8869 56.4055 28.2917 55.8746 28.5827C55.3438 28.8737 54.7553 29.0437 54.1513 29.0805L42.7934 29.7782C42.5874 29.7901 42.3795 29.7971 42.1736 29.7971C37.597 29.7971 33.6342 26.7374 32.5349 22.3562C32.511 22.2565 32.4881 22.1569 32.4662 22.0642C31.9907 24.173 30.9283 26.1037 29.4021 27.6323C27.876 29.161 25.9485 30.225 23.8433 30.7011C25.9485 31.1775 27.8759 32.2418 29.402 33.7706C30.9281 35.2994 31.9906 37.2301 32.4662 39.339C32.4881 39.2393 32.511 39.1396 32.5349 39.0469C33.6293 34.6617 37.597 31.606 42.1736 31.606C42.3785 31.606 42.5874 31.612 42.7934 31.625L54.1513 32.3226C54.7564 32.36 55.3457 32.5308 55.8772 32.823C56.4087 33.1151 56.8691 33.5213 57.2256 34.0125C57.5821 34.5037 57.8258 35.0678 57.9393 35.6643C58.0529 36.2609 58.0333 36.8752 57.8822 37.4633C56.3871 43.2956 52.9971 48.4637 48.2464 52.1532C43.4957 55.8426 37.6545 57.8435 31.6434 57.8406H31.5559Z" fill="white"/>
<path d="M31.4465 57.7463C24.2065 57.7233 17.4183 54.8959 12.3313 49.7831C7.2443 44.6703 4.44263 37.8613 4.44263 30.6097C4.4429 25.5182 5.87297 20.5295 8.56944 16.2136C11.2659 11.8977 15.12 8.42869 19.6913 6.20299C24.2626 3.97729 29.3668 3.08468 34.4205 3.62714C39.4742 4.16961 44.2737 6.12528 48.2705 9.27067C52.9457 12.9626 56.2854 18.0866 57.7788 23.8595C57.9279 24.4466 57.9459 25.0595 57.8315 25.6544C57.7171 26.2492 57.4731 26.8115 57.1169 27.3011C56.7607 27.7907 56.301 28.1956 55.7707 28.4869C55.2404 28.7781 54.6525 28.9486 54.0489 28.9862L42.69 29.6839C42.4851 29.6968 42.2761 29.7028 42.0702 29.7028C37.4936 29.7028 33.5309 26.6441 32.4325 22.2629C32.4076 22.1632 32.3847 22.0635 32.3628 21.9699C31.8876 24.0788 30.8254 26.0095 29.2994 27.5384C27.7734 29.0672 25.8461 30.1314 23.7409 30.6077C25.8458 31.0847 27.7727 32.1495 29.2981 33.6786C30.8236 35.2078 31.8852 37.1387 32.3598 39.2476C32.3817 39.148 32.4046 39.0483 32.4295 38.9546C33.5239 34.5744 37.4916 31.5147 42.0672 31.5147C42.2731 31.5147 42.4811 31.5207 42.687 31.5336L54.0459 32.2313C54.6509 32.2688 55.2402 32.4398 55.7715 32.732C56.3029 33.0242 56.7632 33.4304 57.1196 33.9216C57.476 34.4127 57.7196 34.9767 57.8331 35.5732C57.9465 36.1697 57.927 36.7839 57.7759 37.3719C56.2806 43.2047 52.8899 48.3731 48.1384 52.0621C43.3868 55.7511 37.5447 57.7509 31.5331 57.7463H31.4465Z" fill="white"/>
<path d="M31.3361 57.6528C24.0972 57.6298 17.3079 54.8014 12.2209 49.6896C7.13393 44.5779 4.33325 37.7678 4.33325 30.5153C4.33347 25.4239 5.7635 20.4352 8.45991 16.1194C11.1563 11.8036 15.0104 8.33464 19.5816 6.10903C24.1528 3.88341 29.2569 2.99089 34.3105 3.53344C39.3642 4.076 44.1635 6.03174 48.1601 9.17719C52.8356 12.8689 56.1753 17.993 57.6685 23.766C57.8178 24.3535 57.8358 24.9667 57.7212 25.5619C57.6067 26.1572 57.3623 26.7197 57.0057 27.2094C56.649 27.6991 56.1888 28.1039 55.6579 28.3949C55.127 28.6859 54.5386 28.8559 53.9346 28.8927L42.5757 29.5904C42.3707 29.6023 42.1628 29.6093 41.9568 29.6093C37.3802 29.6093 33.4175 26.5496 32.3181 22.1684C32.2942 22.0687 32.2714 21.9741 32.2495 21.8764C31.7737 23.9851 30.7111 25.9155 29.185 27.4441C27.6589 28.9727 25.7317 30.0369 23.6266 30.5133C25.7317 30.9898 27.659 32.0542 29.1851 33.5829C30.7112 35.1117 31.7737 37.0423 32.2495 39.1511C32.2714 39.0515 32.2942 38.9518 32.3181 38.8591C33.4175 34.4739 37.3802 31.4182 41.9568 31.4182C42.1618 31.4182 42.3707 31.4242 42.5757 31.4371L53.9346 32.1348C54.5396 32.1723 55.1288 32.3433 55.6602 32.6355C56.1915 32.9277 56.6518 33.3339 57.0082 33.8251C57.3646 34.3163 57.6082 34.8803 57.7217 35.4767C57.8351 36.0732 57.8156 36.6874 57.6645 37.2755C56.1696 43.1083 52.7794 48.2769 48.0282 51.9664C43.2771 55.6559 37.4352 57.6565 31.4237 57.6528H31.3361Z" fill="white"/>
<path d="M31.2265 57.5578C23.9866 57.5349 17.1983 54.7074 12.1113 49.5946C7.02433 44.4819 4.22266 37.6728 4.22266 30.4213C4.22293 25.3298 5.653 20.341 8.34947 16.0251C11.0459 11.7092 14.9 8.24021 19.4713 6.01451C24.0426 3.78881 29.1468 2.8962 34.2005 3.43867C39.2542 3.98113 44.0537 5.9368 48.0505 9.08219C52.7258 12.7739 56.0652 17.8981 57.5579 23.671C57.7074 24.2585 57.7255 24.8718 57.611 25.4671C57.4965 26.0624 57.2522 26.625 56.8955 27.1148C56.5388 27.6045 56.0785 28.0093 55.5476 28.3003C55.0166 28.5912 54.4281 28.7611 53.824 28.7977L42.4661 29.4954C42.2601 29.5083 42.0522 29.5143 41.8462 29.5143C37.2696 29.5143 33.3069 26.4556 32.2085 22.0744C32.1836 21.9747 32.1608 21.8801 32.1389 21.7814C31.6636 23.8904 30.6012 25.8213 29.075 27.3501C27.5489 28.8789 25.6213 29.9431 23.516 30.4193C25.6213 30.8954 27.5489 31.9596 29.075 33.4884C30.6012 35.0173 31.6636 36.9481 32.1389 39.0571C32.1608 38.9575 32.1836 38.8578 32.2085 38.7641C33.3029 34.3839 37.2706 31.3232 41.8462 31.3232C42.0522 31.3232 42.2601 31.3302 42.4661 31.3432L53.824 32.0408C54.4291 32.0782 55.0184 32.249 55.5499 32.5412C56.0814 32.8333 56.5418 33.2395 56.8983 33.7307C57.2548 34.2219 57.4985 34.786 57.612 35.3825C57.7255 35.9791 57.706 36.5934 57.5549 37.1815C56.0599 43.0144 52.6695 48.1829 47.9181 51.8723C43.1668 55.5617 37.3247 57.562 31.3131 57.5578H31.2265Z" fill="white"/>
<path d="M31.1162 57.4663C23.8762 57.4434 17.0879 54.6149 12.0009 49.5031C6.91396 44.3914 4.11229 37.5793 4.11328 30.3268C4.1135 25.2354 5.54352 20.2467 8.23994 15.9309C10.9363 11.6151 14.7904 8.14616 19.3616 5.92055C23.9329 3.69494 29.0369 2.80241 34.0906 3.34497C39.1442 3.88752 43.9435 5.84326 47.9401 8.98871C52.6161 12.6812 55.9559 17.8065 57.4485 23.5805C57.5978 24.168 57.6158 24.7812 57.5013 25.3764C57.3867 25.9717 57.1423 26.5342 56.7857 27.0239C56.429 27.5136 55.9688 27.9184 55.4379 28.2094C54.9071 28.5004 54.3186 28.6704 53.7146 28.7072L42.3557 29.4049C42.1507 29.4168 41.9418 29.4238 41.7368 29.4238C37.1603 29.4238 33.1965 26.3641 32.0981 21.9829C32.0733 21.8832 32.0504 21.7836 32.0285 21.6909C31.5529 23.7995 30.4904 25.73 28.9642 27.2584C27.438 28.7869 25.5107 29.8508 23.4056 30.3268C25.5106 30.8034 27.4378 31.8678 28.9637 33.3966C30.4896 34.9253 31.5519 36.8559 32.0275 38.9647C32.0494 38.865 32.0723 38.7653 32.0971 38.6726C33.1916 34.2874 37.1593 31.2317 41.7349 31.2317C41.9408 31.2317 42.1487 31.2377 42.3547 31.2507L53.7136 31.9483C54.3186 31.9858 54.9078 32.1568 55.4392 32.449C55.9705 32.7412 56.4309 33.1474 56.7873 33.6386C57.1436 34.1298 57.3873 34.6938 57.5007 35.2902C57.6142 35.8867 57.5946 36.5009 57.4435 37.089C55.9486 42.9218 52.5584 48.0904 47.8072 51.7799C43.0561 55.4694 37.2143 57.47 31.2027 57.4663H31.1162Z" fill="white"/>
<path d="M31.0058 57.366C23.7668 57.3431 16.9775 54.5156 11.8906 49.4028C6.80357 44.2901 4.00488 37.484 4.00488 30.2325C4.00521 25.1413 5.43519 20.153 8.13143 15.8373C10.8277 11.5217 14.6814 8.05289 19.2523 5.82723C23.8233 3.60157 28.927 2.70883 33.9804 3.25103C39.0338 3.79323 43.833 5.74849 47.8297 8.8934C52.505 12.5845 55.8447 17.7079 57.3381 23.4802C57.4876 24.0677 57.5058 24.681 57.3913 25.2763C57.2768 25.8716 57.0324 26.4342 56.6757 26.924C56.319 27.4137 55.8588 27.8185 55.3278 28.1095C54.7968 28.4004 54.2083 28.5703 53.6042 28.6069L42.2453 29.3046C42.0403 29.3175 41.8324 29.3235 41.6265 29.3235C37.0499 29.3235 33.0871 26.2648 31.9878 21.8836C31.9639 21.7866 31.941 21.6889 31.9191 21.5906C31.4435 23.6995 30.381 25.6302 28.8549 27.1589C27.3288 28.6877 25.4014 29.752 23.2962 30.2285C25.4015 30.7047 27.329 31.7689 28.8551 33.2978C30.3813 34.8266 31.4437 36.7574 31.9191 38.8664C31.941 38.7674 31.9639 38.6697 31.9878 38.5733C33.0871 34.1881 37.0499 31.1324 41.6265 31.1324C41.8314 31.1324 42.0403 31.1394 42.2453 31.1524L53.6042 31.85C54.2096 31.8876 54.7991 32.0589 55.3307 32.3515C55.8623 32.6441 56.3227 33.0509 56.6789 33.5426C57.0352 34.0344 57.2785 34.5989 57.3914 35.1959C57.5043 35.7929 57.4841 36.4075 57.3321 36.9957C55.8365 42.8271 52.4461 47.9942 47.6954 51.6824C42.9446 55.3706 37.1037 57.3702 31.0933 57.366H31.0058Z" fill="white"/>
<path d="M30.8962 57.2756C23.6562 57.2526 16.868 54.4242 11.781 49.3124C6.694 44.2006 3.89233 37.3906 3.89233 30.138C3.89279 25.0466 5.323 20.058 8.01954 15.7423C10.7161 11.4265 14.5702 7.95764 19.1415 5.73207C23.7127 3.50649 28.8168 2.61396 33.8704 3.15647C38.9241 3.69897 43.7235 5.65462 47.7202 8.79997C52.3975 12.4907 55.7387 17.6151 57.2325 23.3888C57.3818 23.9762 57.3999 24.5895 57.2853 25.1847C57.1707 25.7799 56.9264 26.3425 56.5697 26.8322C56.213 27.3219 55.7528 27.7267 55.222 28.0177C54.6911 28.3087 54.1026 28.4786 53.4986 28.5155L42.1407 29.2132C41.9348 29.2251 41.7268 29.2321 41.5209 29.2321C36.9443 29.2321 32.9816 26.1724 31.8832 21.7912C31.8583 21.6915 31.8354 21.5968 31.8135 21.4992C31.338 23.608 30.2756 25.5387 28.7495 27.0673C27.2233 28.5959 25.2959 29.66 23.1906 30.136C25.2958 30.6125 27.2232 31.6768 28.7493 33.2056C30.2754 34.7344 31.3379 36.6651 31.8135 38.7739C31.8354 38.6743 31.8583 38.5746 31.8832 38.4809C32.9776 34.1007 36.9453 31.041 41.5209 31.041C41.7268 31.041 41.9348 31.047 42.1407 31.0599L53.4986 31.7576C54.1037 31.7949 54.6931 31.9658 55.2245 32.258C55.756 32.5501 56.2165 32.9563 56.573 33.4475C56.9294 33.9387 57.1732 34.5027 57.2867 35.0993C57.4002 35.6958 57.3807 36.3101 57.2295 36.8982C55.7342 42.732 52.3431 47.9012 47.5907 51.5908C42.8384 55.2804 36.9953 57.2804 30.9828 57.2756H30.8962Z" fill="white"/>
<path d="M30.7859 57.1811C23.5459 57.1582 16.7576 54.3307 11.6706 49.2179C6.58363 44.1052 3.78296 37.2961 3.78296 30.0446C3.78299 24.9531 5.21288 19.9643 7.90922 15.6483C10.6056 11.3324 14.4596 7.8633 19.0309 5.63756C23.6021 3.41183 28.7063 2.51922 33.76 3.06174C38.8137 3.60425 43.6131 5.56001 47.6098 8.70551C52.2851 12.3974 55.6247 17.5215 57.1182 23.2943C57.2677 23.8818 57.2858 24.4951 57.1713 25.0904C57.0568 25.6857 56.8125 26.2483 56.4558 26.7381C56.0991 27.2278 55.6388 27.6326 55.1079 27.9236C54.5769 28.2145 53.9884 28.3844 53.3843 28.421L42.0254 29.1187C41.8204 29.1317 41.6115 29.1376 41.4065 29.1376C36.8299 29.1376 32.8662 26.0789 31.7678 21.6967C31.7439 21.5971 31.7201 21.5034 31.6982 21.4047C31.2229 23.5136 30.1608 25.4444 28.6348 26.9732C27.1088 28.502 25.1815 29.5663 23.0763 30.0426C25.1815 30.5189 27.1088 31.5831 28.6348 33.112C30.1608 34.6408 31.2229 36.5716 31.6982 38.6805C31.7201 38.5808 31.7439 38.4811 31.7678 38.3874C32.8622 34.0022 36.8299 30.9465 41.4055 30.9465C41.6115 30.9465 41.8204 30.9535 42.0254 30.9665L53.3843 31.6641C53.9893 31.7016 54.5785 31.8726 55.1099 32.1648C55.6412 32.457 56.1016 32.8632 56.4579 33.3544C56.8143 33.8456 57.0579 34.4096 57.1714 35.006C57.2848 35.6025 57.2653 36.2167 57.1142 36.8048C55.6194 42.6378 52.229 47.8064 47.4776 51.4958C42.7262 55.1852 36.8841 57.1854 30.8724 57.1811H30.7859Z" fill="white"/>
<path d="M30.6755 57.087C23.4365 57.0641 16.6472 54.2356 11.5613 49.1239C6.47527 44.0121 3.67261 37.202 3.67261 29.9495C3.67326 24.8582 5.10357 19.8697 7.80011 15.554C10.4967 11.2383 14.3507 7.76954 18.9218 5.54391C23.493 3.31828 28.597 2.4256 33.6505 2.96786C38.7041 3.51012 43.5036 5.46545 47.5004 8.61044C52.1758 12.3025 55.5152 17.427 57.0078 23.2003C57.1571 23.7877 57.1752 24.4009 57.0606 24.9962C56.946 25.5914 56.7017 26.154 56.345 26.6437C55.9883 27.1334 55.5281 27.5382 54.9973 27.8292C54.4664 28.1201 53.8779 28.2901 53.2739 28.327L41.915 29.0246C41.7101 29.0366 41.5021 29.0436 41.2962 29.0436C36.7196 29.0436 32.7569 25.9839 31.6575 21.6026C31.6336 21.503 31.6107 21.4033 31.5888 21.3106C31.1131 23.4194 30.0506 25.3499 28.5245 26.8785C26.9984 28.4071 25.0711 29.4712 22.9659 29.9475C25.0711 30.424 26.9985 31.4883 28.5246 33.0171C30.0507 34.5458 31.1132 36.4765 31.5888 38.5854C31.6107 38.4877 31.6336 38.39 31.6575 38.2924C32.7578 33.9141 36.7196 30.8554 41.2962 30.8554C41.5011 30.8554 41.7101 30.8614 41.915 30.8744L53.2739 31.572C53.879 31.6094 54.4684 31.7803 54.9998 32.0724C55.5313 32.3646 55.9918 32.7708 56.3483 33.2619C56.7047 33.7531 56.9485 34.3172 57.062 34.9137C57.1755 35.5103 57.156 36.1246 57.0048 36.7127C55.5093 42.5441 52.1193 47.7114 47.3691 51.4002C42.6188 55.089 36.7784 57.0897 30.768 57.087H30.6755Z" fill="white"/>
<path d="M30.5691 56.9924C23.3292 56.9694 16.5409 54.142 11.4539 49.0292C6.36691 43.9164 3.56226 37.1074 3.56226 29.8588C3.56197 24.7671 4.99164 19.7779 7.68788 15.4616C10.3841 11.1452 14.2382 7.6758 18.8096 5.44974C23.381 3.22367 28.4854 2.3308 33.5394 2.87316C38.5934 3.41551 43.3931 5.37121 47.3901 8.51677C52.0654 12.2085 55.4048 17.3327 56.8975 23.1056C57.047 23.693 57.0652 24.3062 56.9507 24.9014C56.8363 25.4967 56.592 26.0592 56.2354 26.549C55.8788 27.0387 55.4187 27.4435 54.8879 27.7345C54.357 28.0255 53.7686 28.1955 53.1646 28.2323L41.8057 28.93C41.6007 28.9429 41.3918 28.9489 41.1858 28.9489C36.6092 28.9489 32.6465 25.8902 31.5481 21.508C31.5233 21.4083 31.5004 21.3146 31.4785 21.216C31.004 23.3259 29.942 25.2578 28.4158 26.7876C26.8895 28.3174 24.9616 29.3823 22.8556 29.8588C24.9609 30.335 26.8885 31.3991 28.4146 32.928C29.9408 34.4568 31.0032 36.3877 31.4785 38.4967C31.5004 38.397 31.5233 38.2974 31.5481 38.2037C32.6425 33.8185 36.6102 30.7628 41.1858 30.7628C41.3918 30.7628 41.5997 30.7698 41.8057 30.7827L53.1636 31.4804C53.7687 31.5177 54.358 31.6886 54.8895 31.9807C55.421 32.2729 55.8814 32.6791 56.2379 33.1703C56.5944 33.6615 56.8381 34.2255 56.9516 34.8221C57.0651 35.4186 57.0456 36.0329 56.8945 36.621C55.3988 42.4531 52.008 47.6206 47.2566 51.3091C42.5053 54.9975 36.6637 56.997 30.6527 56.9924H30.5691Z" fill="white"/>
<path d="M30.4555 56.899C23.2165 56.8761 16.4273 54.0476 11.3403 48.9359C6.25331 43.8241 3.45264 37.014 3.45264 29.7595C3.45284 24.6677 4.88305 19.6786 7.57981 15.3624C10.2766 11.0463 14.1311 7.57721 18.7029 5.35165C23.2746 3.12609 28.3792 2.23383 33.4332 2.77685C38.4873 3.31987 43.2868 5.27626 47.2835 8.42243C51.9572 12.1153 55.2954 17.2397 56.7878 23.0123C56.9372 23.5997 56.9552 24.2129 56.8406 24.8082C56.726 25.4034 56.4817 25.966 56.125 26.4557C55.7684 26.9454 55.3082 27.3502 54.7773 27.6411C54.2464 27.9321 53.658 28.1021 53.0539 28.139L41.695 28.8366C41.4901 28.8486 41.2812 28.8556 41.0762 28.8556C36.4996 28.8556 32.5369 25.7959 31.4375 21.4146C31.4136 21.315 31.3897 21.2203 31.3679 21.1226C30.8925 23.2313 29.8302 25.1619 28.3042 26.6905C26.7782 28.2192 24.851 29.2833 22.746 29.7595C24.8507 30.2367 26.7775 31.3015 28.3029 32.8307C29.8283 34.3598 30.89 36.2906 31.3649 38.3994C31.3868 38.2997 31.4106 38.2001 31.4345 38.1064C32.5289 33.7261 36.4966 30.6665 41.0722 30.6665C41.2782 30.6665 41.4871 30.6724 41.692 30.6854L53.0509 31.383C53.6559 31.4205 54.2452 31.5915 54.7766 31.8837C55.3079 32.1759 55.7682 32.5821 56.1246 33.0733C56.481 33.5645 56.7246 34.1285 56.8381 34.725C56.9515 35.3214 56.932 35.9357 56.7809 36.5237C55.2857 42.3558 51.8956 47.5237 47.1449 51.2128C42.3942 54.9019 36.553 56.9024 30.5421 56.899H30.4555Z" fill="white"/>
<path d="M30.3452 56.8038C23.1062 56.7809 16.3169 53.9534 11.2309 48.8406C6.14495 43.7279 3.34229 36.9188 3.34229 29.6673C3.34312 24.576 4.7736 19.5877 7.47028 15.2722C10.167 10.9568 14.0211 7.48821 18.5923 5.26288C23.1635 3.03755 28.2674 2.14519 33.3209 2.68777C38.3743 3.23035 43.1735 5.18598 47.1701 8.33122C51.8454 12.0229 55.1848 17.1471 56.6775 22.92C56.827 23.5075 56.8452 24.1208 56.7307 24.7161C56.6162 25.3114 56.3718 25.874 56.0151 26.3638C55.6584 26.8535 55.1982 27.2583 54.6672 27.5493C54.1362 27.8402 53.5477 28.0101 52.9436 28.0467L41.5857 28.7444C41.3797 28.7574 41.1718 28.7633 40.9659 28.7633C36.3893 28.7633 32.4265 25.7046 31.3271 21.3224C31.3033 21.2228 31.2804 21.1291 31.2585 21.0304C30.7831 23.1394 29.7207 25.0702 28.1945 26.599C26.6684 28.1278 24.7409 29.192 22.6356 29.6683C24.7408 30.1443 26.6683 31.2084 28.1944 32.737C29.7206 34.2657 30.783 36.1963 31.2585 38.3052C31.2804 38.2055 31.3033 38.1058 31.3271 38.0131C32.4265 33.6279 36.3893 30.5722 40.9659 30.5722C41.1708 30.5722 41.3797 30.5792 41.5857 30.5922L52.9436 31.2898C53.5487 31.3272 54.138 31.4981 54.6695 31.7902C55.201 32.0823 55.6614 32.4885 56.0179 32.9797C56.3744 33.4709 56.6181 34.035 56.7316 34.6315C56.8451 35.2281 56.8256 35.8424 56.6745 36.4305C55.179 42.2628 51.7883 47.4307 47.037 51.1195C42.2857 54.8083 36.444 56.8081 30.4327 56.8038H30.3452Z" fill="white"/>
<path d="M30.2358 56.7101C22.9958 56.6872 16.2076 53.8587 11.1206 48.7469C6.0336 43.6352 3.23193 36.8251 3.23193 29.5726C3.23222 24.4811 4.66225 19.4923 7.35865 15.1764C10.055 10.8604 13.909 7.39131 18.4803 5.16544C23.0515 2.93957 28.1556 2.04672 33.2094 2.5889C38.2631 3.13108 43.0627 5.08643 47.0598 8.23153C51.7353 11.9236 55.075 17.0481 56.5681 22.8213C56.7171 23.4088 56.7348 24.0219 56.6201 24.617C56.5054 25.2121 56.261 25.7745 55.9044 26.2641C55.5478 26.7537 55.0878 27.1585 54.5571 27.4496C54.0264 27.7407 53.4381 27.9109 52.8342 27.9481L41.4753 28.6457C41.2704 28.6577 41.0615 28.6646 40.8555 28.6646C36.2789 28.6646 32.3162 25.605 31.2178 21.2237C31.1929 21.1241 31.17 21.0244 31.1482 20.9317C30.6727 23.0404 29.6105 24.971 28.0845 26.4996C26.5585 28.0283 24.6313 29.0924 22.5263 29.5686C24.6313 30.0451 26.5585 31.1095 28.0845 32.6382C29.6104 34.167 30.6727 36.0977 31.1482 38.2065C31.17 38.1068 31.1929 38.0071 31.2178 37.9135C32.3122 33.5332 36.2799 30.4735 40.8555 30.4735C41.0615 30.4735 41.2694 30.4795 41.4753 30.4925L52.8332 31.1901C53.439 31.2273 54.029 31.3983 54.561 31.6908C55.093 31.9833 55.5538 32.3901 55.9104 32.882C56.267 33.3739 56.5106 33.9387 56.6236 34.536C56.7366 35.1333 56.7163 35.7483 56.5642 36.3368C55.0685 42.169 51.6778 47.3368 46.9265 51.0256C42.1752 54.7143 36.3336 56.7143 30.3224 56.7101H30.2358Z" fill="white"/>
<path d="M30.1252 56.6157C22.8862 56.5927 16.097 53.7653 11.01 48.6525C5.92299 43.5397 3.12231 36.7357 3.12231 29.4781C3.12254 24.3868 4.55256 19.3981 7.24897 15.0823C9.94538 10.7664 13.7994 7.29753 18.3707 5.07192C22.9419 2.8463 28.046 1.95378 33.0996 2.49633C38.1532 3.03889 42.9525 4.99463 46.9492 8.14008C51.6244 11.832 54.9641 16.956 56.4575 22.7289C56.607 23.3164 56.6252 23.9296 56.5107 24.525C56.3962 25.1203 56.1519 25.6829 55.7952 26.1726C55.4385 26.6624 54.9782 27.0672 54.4472 27.3581C53.9163 27.6491 53.3277 27.8189 52.7236 27.8556L41.3647 28.5533C41.1598 28.5662 40.9518 28.5722 40.7459 28.5722C36.1693 28.5722 32.2066 25.5135 31.1072 21.1313C31.0833 21.0316 31.0594 20.9379 31.0375 20.8393C30.5623 22.9482 29.5001 24.8789 27.9741 26.4078C26.4481 27.9366 24.5208 29.0008 22.4156 29.4772C24.5207 29.9534 26.4479 31.0175 27.9739 32.5461C29.4999 34.0748 30.5621 36.0053 31.0375 38.114C31.0594 38.0144 31.0833 37.9147 31.1072 37.822C32.2016 33.4368 36.1693 30.3811 40.7449 30.3811C40.9508 30.3811 41.1598 30.3881 41.3647 30.401L52.7236 31.0987C53.3286 31.1362 53.9179 31.3072 54.4492 31.5994C54.9806 31.8916 55.4409 32.2978 55.7973 32.789C56.1537 33.2801 56.3973 33.8441 56.5107 34.4406C56.6242 35.0371 56.6047 35.6513 56.4535 36.2394C54.9589 42.0723 51.5687 47.2409 46.8175 50.9303C42.0663 54.6197 36.2243 56.6199 30.2128 56.6157H30.1252Z" fill="white"/>
<path d="M30.0159 56.5222C22.7759 56.4993 15.9876 53.6708 10.9007 48.559C5.81367 43.4473 3.01001 36.6362 3.01001 29.3847C3.01037 24.293 4.44059 19.3041 7.13723 14.9881C9.83387 10.6721 13.6882 7.20299 18.2597 4.97729C22.8312 2.75159 27.9355 1.85904 32.9895 2.40161C38.0434 2.94419 42.843 4.90002 46.8398 8.0456C51.5154 11.7374 54.8548 16.8621 56.3472 22.6354C56.4972 23.2231 56.5158 23.8368 56.4015 24.4325C56.2873 25.0282 56.043 25.5913 55.6863 26.0815C55.3296 26.5717 54.8691 26.9769 54.3379 27.2681C53.8067 27.5593 53.2178 27.7294 52.6133 27.7661L41.2554 28.4638C41.0495 28.4757 40.8415 28.4827 40.6356 28.4827C36.059 28.4827 32.0962 25.423 30.9969 21.0418C30.973 20.9421 30.9501 20.8474 30.9282 20.7498C30.4527 22.8586 29.3903 24.7893 27.8642 26.3179C26.338 27.8466 24.4106 28.9106 22.3053 29.3867C24.4106 29.8629 26.3381 30.9271 27.8643 32.4559C29.3904 33.9848 30.4528 35.9156 30.9282 38.0245C30.9501 37.9249 30.973 37.8252 30.9979 37.7315C32.0923 33.3463 36.059 30.2916 40.6356 30.2916C40.8415 30.2916 41.0495 30.2976 41.2554 30.3105L52.6133 31.0082C53.2184 31.0456 53.8078 31.2164 54.3392 31.5086C54.8707 31.8007 55.3312 32.2069 55.6877 32.6981C56.0441 33.1893 56.2879 33.7533 56.4014 34.3499C56.5149 34.9464 56.4954 35.5607 56.3442 36.1489C54.8482 41.981 51.4575 47.1486 46.7062 50.8373C41.955 54.526 36.1135 56.526 30.1024 56.5222H30.0159Z" fill="white"/>
<path d="M29.9055 56.4272C22.6655 56.4043 15.8772 53.5768 10.7902 48.464C5.70326 43.3513 2.90159 36.5422 2.90259 29.2897C2.90281 24.1983 4.33283 19.2096 7.02924 14.8938C9.72566 10.578 13.5797 7.10905 18.1509 4.88344C22.7222 2.65783 27.8262 1.7653 32.8799 2.30786C37.9335 2.85041 42.7328 4.80616 46.7294 7.95161C51.4047 11.6435 54.7443 16.7676 56.2378 22.5404C56.3871 23.1278 56.4052 23.741 56.2906 24.3362C56.176 24.9314 55.9317 25.4939 55.575 25.9835C55.2183 26.4731 54.7581 26.8778 54.2272 27.1687C53.6963 27.4596 53.1079 27.6294 52.5039 27.6661L41.145 28.3638C40.94 28.3767 40.7311 28.3827 40.5262 28.3827C35.9496 28.3827 31.9858 25.324 30.8875 20.9418C30.8626 20.8421 30.8397 20.7485 30.8178 20.6498C30.3426 22.7587 29.2804 24.6895 27.7544 26.2183C26.2284 27.7471 24.3011 28.8114 22.1959 29.2877C24.3019 29.7644 26.2297 30.8296 27.7558 32.3595C29.2818 33.8895 30.3436 35.8215 30.8178 37.9315C30.8397 37.8319 30.8626 37.7322 30.8875 37.6395C31.9819 33.2543 35.9496 30.1986 40.5252 30.1986C40.7311 30.1986 40.939 30.2056 41.145 30.2185L52.5039 30.9162C53.1089 30.9532 53.6983 31.1237 54.2299 31.4155C54.7614 31.7073 55.2221 32.1132 55.5788 32.604C55.9356 33.0949 56.1797 33.6587 56.2936 34.2551C56.4075 34.8515 56.3885 35.4657 56.2378 36.0539C54.7423 41.887 51.351 47.0555 46.5989 50.7443C41.8467 54.4332 36.004 56.4326 29.992 56.4272H29.9055Z" fill="white"/>
<path d="M29.7949 56.3334C22.5559 56.3105 15.7666 53.482 10.6797 48.3702C5.59267 43.2585 2.79199 36.4484 2.79199 29.1959C2.79241 24.1045 4.22253 19.116 6.91895 14.8003C9.61536 10.4845 13.4693 7.01567 18.0405 4.79001C22.6116 2.56435 27.7155 1.67167 32.7691 2.21398C37.8227 2.75628 42.6221 4.7117 46.6188 7.8568C51.2947 11.5486 54.6344 16.6732 56.1272 22.4466C56.2765 23.0341 56.2946 23.6473 56.18 24.2425C56.0654 24.8378 55.8211 25.4003 55.4644 25.89C55.1077 26.3797 54.6475 26.7845 54.1167 27.0755C53.5858 27.3665 52.9973 27.5365 52.3933 27.5733L41.0344 28.271C40.8295 28.2829 40.6215 28.2899 40.4156 28.2899C35.839 28.2899 31.8762 25.2302 30.7769 20.849C30.753 20.7493 30.7301 20.6497 30.7082 20.557C30.2324 22.6657 29.1699 24.5961 27.6438 26.1247C26.1176 27.6533 24.1904 28.7175 22.0853 29.1939C24.1905 29.6703 26.1179 30.7346 27.644 32.2634C29.1701 33.7922 30.2326 35.7229 30.7082 37.8318C30.7301 37.7341 30.753 37.6364 30.7769 37.5387C31.8762 33.1605 35.842 30.1008 40.4186 30.1008C40.6235 30.1008 40.8324 30.1068 41.0374 30.1198L52.3963 30.8174C53.0013 30.8549 53.5905 31.0259 54.1219 31.3181C54.6533 31.6103 55.1136 32.0165 55.47 32.5077C55.8264 32.9989 56.07 33.5629 56.1834 34.1593C56.2969 34.7558 56.2773 35.37 56.1262 35.9581C54.6308 41.791 51.24 46.9595 46.4883 50.6487C41.7365 54.3379 35.8942 56.3379 29.8824 56.3334H29.7949Z" fill="white"/>
<path d="M29.6855 56.2394C22.4456 56.2165 15.6573 53.389 10.5703 48.2763C5.48331 43.1635 2.68164 36.3545 2.68164 29.1019C2.6821 24.0105 4.11231 19.0219 6.80885 14.7061C9.50538 10.3904 13.3595 6.92151 17.9308 4.69593C22.502 2.47036 27.6061 1.57783 32.6597 2.12033C37.7134 2.66284 42.5128 4.61849 46.5095 7.76383C51.1847 11.4555 54.5241 16.5797 56.0168 22.3526C56.1664 22.9401 56.1845 23.5534 56.07 24.1487C55.9555 24.744 55.7112 25.3066 55.3545 25.7964C54.9978 26.2862 54.5375 26.691 54.0066 26.9819C53.4756 27.2728 52.887 27.4427 52.2829 27.4794L40.925 28.177C40.7191 28.19 40.5112 28.196 40.3052 28.196C35.7286 28.196 31.7659 25.1373 30.6675 20.755C30.6426 20.6554 30.6197 20.5607 30.5979 20.463C30.1224 22.572 29.0601 24.5028 27.5339 26.0316C26.0077 27.5604 24.0803 28.6247 21.975 29.1009C24.0802 29.577 26.0076 30.641 27.5338 32.1696C29.06 33.6983 30.1224 35.6289 30.5979 37.7378C30.6197 37.6381 30.6426 37.5385 30.6675 37.4458C31.7619 33.0606 35.7296 30.0049 40.3052 30.0049C40.5112 30.0049 40.7191 30.0118 40.925 30.0248L52.2829 30.7224C52.888 30.7598 53.4774 30.9307 54.0089 31.2228C54.5403 31.515 55.0008 31.9212 55.3573 32.4124C55.7138 32.9035 55.9575 33.4676 56.071 34.0641C56.1845 34.6607 56.165 35.275 56.0139 35.8631C54.519 41.6958 51.1287 46.8643 46.3775 50.5536C41.6263 54.243 35.7845 56.2434 29.7731 56.2394H29.6855Z" fill="white"/>
<path d="M29.5742 56.1459C22.3342 56.123 15.5459 53.2945 10.4589 48.1827C5.37195 43.071 2.57227 36.2609 2.57227 29.0084C2.57268 23.917 4.0028 18.9285 6.69922 14.6128C9.39563 10.297 13.2496 6.82817 17.8207 4.60251C22.3919 2.37685 27.4958 1.48417 32.5494 2.02648C37.6029 2.56878 42.4023 4.5242 46.3991 7.6693C51.0746 11.3614 54.4143 16.4859 55.9075 22.2591C56.0568 22.8466 56.0748 23.4598 55.9602 24.055C55.8457 24.6503 55.6013 25.2128 55.2447 25.7025C54.888 26.1922 54.4278 26.597 53.8969 26.888C53.3661 27.179 52.7776 27.349 52.1736 27.3858L40.8147 28.0835C40.6097 28.0964 40.4008 28.1034 40.1958 28.1034C35.6192 28.1034 31.6555 25.0437 30.5571 20.6625C30.5333 20.5628 30.5094 20.4682 30.4875 20.3705C30.0121 22.4792 28.9498 24.4098 27.4238 25.9384C25.8979 27.467 23.9706 28.5311 21.8656 29.0074C23.9707 29.4839 25.8978 30.5482 27.4238 32.077C28.9498 33.6058 30.012 35.5365 30.4875 37.6453C30.5094 37.5456 30.5323 37.4459 30.5571 37.3522C31.6515 32.972 35.6192 29.9123 40.1948 29.9123C40.4008 29.9123 40.6087 29.9183 40.8147 29.9313L52.1736 30.6289C52.7786 30.6664 53.3678 30.8374 53.8992 31.1296C54.4305 31.4218 54.8909 31.828 55.2472 32.3192C55.6036 32.8104 55.8473 33.3744 55.9607 33.9708C56.0742 34.5673 56.0546 35.1815 55.9035 35.7696C54.4084 41.6024 51.0179 46.7709 46.2666 50.4602C41.5152 54.1495 35.6733 56.1499 29.6617 56.1459H29.5742Z" fill="white"/>
<path d="M29.4646 56.0511C22.2256 56.0282 15.4363 53.2007 10.3503 48.088C5.26434 42.9752 2.46167 36.1662 2.46167 28.9136C2.46227 23.8224 3.89253 18.834 6.58902 14.5184C9.28551 10.2028 13.1395 6.73408 17.7106 4.50854C22.2817 2.283 27.3855 1.39041 32.439 1.93275C37.4925 2.4751 42.2918 4.4305 46.2885 7.57555C50.9638 11.2672 54.3032 16.3914 55.7959 22.1644C55.9454 22.7521 55.9635 23.3656 55.8489 23.9611C55.7342 24.5566 55.4896 25.1194 55.1326 25.6092C54.7755 26.099 54.3149 26.5038 53.7836 26.7945C53.2522 27.0853 52.6634 27.2548 52.059 27.2911L40.7001 27.9887C40.4951 28.0017 40.2872 28.0077 40.0813 28.0077C35.5047 28.0077 31.5419 24.948 30.4426 20.5668C30.4187 20.4671 30.3958 20.3724 30.3739 20.2747C29.8982 22.3836 28.8357 24.3142 27.3096 25.843C25.7834 27.3717 23.8562 28.436 21.751 28.9126C23.8562 29.3887 25.7837 30.4527 27.3098 31.9814C28.836 33.51 29.8984 35.4407 30.3739 37.5495C30.3958 37.4498 30.4187 37.3502 30.4426 37.2575C31.5419 32.8723 35.5047 29.8166 40.0813 29.8166C40.2862 29.8166 40.4951 29.8236 40.7001 29.8355L52.059 30.5332C52.6641 30.5705 53.2535 30.7414 53.7849 31.0335C54.3164 31.3257 54.7769 31.7319 55.1334 32.2231C55.4898 32.7143 55.7336 33.2783 55.8471 33.8749C55.9606 34.4714 55.9411 35.0857 55.7899 35.6738C54.2953 41.5063 50.9056 46.6746 46.155 50.364C41.4044 54.0535 35.5632 56.0544 29.5521 56.0511H29.4646Z" fill="white"/>
<path d="M29.3552 55.9571C22.1152 55.9342 15.327 53.1057 10.24 47.994C5.15299 42.8822 2.35132 36.0722 2.35132 28.8196C2.35197 23.7283 3.78228 18.7398 6.47882 14.4241C9.17537 10.1085 13.0294 6.63965 17.6006 4.41403C22.1717 2.1884 27.2757 1.29572 32.3293 1.83798C37.3829 2.38024 42.1823 4.33556 46.1792 7.48055C50.8547 11.1724 54.1942 16.297 55.6865 22.0704C55.8359 22.6578 55.8539 23.2711 55.7393 23.8663C55.6247 24.4615 55.3804 25.0241 55.0237 25.5138C54.6671 26.0035 54.2069 26.4083 53.676 26.6993C53.1451 26.9902 52.5567 27.1602 51.9526 27.1971L40.5947 27.8947C40.3898 27.9077 40.1808 27.9147 39.9749 27.9147C35.3983 27.9147 31.4356 24.855 30.3372 20.4738C30.3123 20.3741 30.2894 20.2744 30.2675 20.1817C29.7921 22.2906 28.7296 24.2212 27.2035 25.7499C25.6773 27.2785 23.7499 28.3426 21.6446 28.8186C23.7506 29.2944 25.6788 30.3586 27.2056 31.8876C28.7323 33.4167 29.795 35.348 30.2705 37.4575C30.2924 37.3578 30.3153 37.2582 30.3402 37.1645C31.4346 32.7842 35.4023 29.7246 39.9779 29.7246C40.1838 29.7246 40.3918 29.7305 40.5977 29.7435L51.9556 30.4411C52.5607 30.4785 53.1501 30.6494 53.6815 30.9415C54.213 31.2337 54.6735 31.6399 55.03 32.1311C55.3864 32.6223 55.6302 33.1863 55.7437 33.7829C55.8572 34.3794 55.8377 34.9937 55.6865 35.5818C54.191 41.4149 50.7999 46.5834 46.048 50.2725C41.2961 53.9617 35.4537 55.9617 29.4418 55.9571H29.3552Z" fill="white"/>
<path d="M29.2448 55.8627C22.0059 55.8398 15.2166 53.0123 10.1296 47.8996C5.04262 42.7868 2.24194 35.9778 2.24194 28.7252C2.24216 23.6338 3.67219 18.6452 6.3686 14.3293C9.06501 10.0135 12.919 6.5446 17.4903 4.31899C22.0615 2.09338 27.1656 1.20085 32.2192 1.7434C37.2728 2.28596 42.0722 4.2417 46.0688 7.38715C50.744 11.079 54.0837 16.2031 55.5771 21.976C55.7267 22.5634 55.7448 23.1767 55.6303 23.772C55.5158 24.3673 55.2715 24.93 54.9148 25.4197C54.5581 25.9095 54.0978 26.3143 53.5668 26.6052C53.0359 26.8961 52.4473 27.066 51.8432 27.1027L40.4843 27.8003C40.2794 27.8133 40.0705 27.8193 39.8655 27.8193C35.2889 27.8193 31.3252 24.7596 30.2268 20.3784C30.2029 20.2787 30.1791 20.184 30.1572 20.0863C29.6817 22.1951 28.6194 24.1258 27.0935 25.6546C25.5675 27.1834 23.6403 28.2477 21.5353 28.7242C23.6403 29.2005 25.5675 30.2646 27.0935 31.7932C28.6195 33.3218 29.6818 35.2524 30.1572 37.3611C30.1791 37.2614 30.2029 37.1618 30.2268 37.0691C31.3212 32.6839 35.2889 29.6282 39.8645 29.6282C40.0705 29.6282 40.2794 29.6352 40.4843 29.6471L51.8432 30.3448C52.4482 30.3823 53.0375 30.5532 53.5688 30.8454C54.1002 31.1376 54.5605 31.5439 54.9169 32.035C55.2733 32.5262 55.5169 33.0902 55.6304 33.6867C55.7438 34.2832 55.7243 34.8974 55.5732 35.4854C54.0786 41.3186 50.6883 46.4875 45.9368 50.1771C41.1854 53.8667 35.3432 55.867 29.3314 55.8627H29.2448Z" fill="white"/>
<path d="M29.1342 55.7717C21.8953 55.7487 15.106 52.9203 10.02 47.8085C4.93401 42.6967 2.13135 35.8837 2.13135 28.6311C2.132 23.5398 3.56231 18.5513 6.25885 14.2357C8.95539 9.91999 12.8094 6.45118 17.3806 4.22555C21.9517 1.99992 27.0557 1.10724 32.1093 1.6495C37.1629 2.19176 41.9623 4.14709 45.9592 7.29208C50.6355 10.985 53.975 16.1111 55.4666 21.8859C55.6159 22.4733 55.6339 23.0866 55.5193 23.6818C55.4048 24.277 55.1604 24.8396 54.8037 25.3293C54.4471 25.819 53.9869 26.2238 53.456 26.5148C52.9251 26.8058 52.3367 26.9757 51.7326 27.0126L40.3737 27.7102C40.1688 27.7232 39.9609 27.7302 39.7549 27.7302C35.1783 27.7302 31.2156 24.6705 30.1162 20.2893C30.0923 20.1896 30.0695 20.0949 30.0476 19.9972C29.5719 22.106 28.5094 24.0365 26.9832 25.5651C25.4571 27.0937 23.5298 28.1578 21.4247 28.6341C23.53 29.1104 25.4574 30.1746 26.9836 31.7034C28.5098 33.2322 29.5721 35.163 30.0476 37.272C30.0695 37.1724 30.0923 37.0727 30.1162 36.979C31.2156 32.5938 35.1783 29.5391 39.7549 29.5391C39.9599 29.5391 40.1688 29.5451 40.3747 29.558L51.7326 30.2557C52.3377 30.293 52.9271 30.4639 53.4586 30.7561C53.9901 31.0482 54.4505 31.4544 54.807 31.9456C55.1635 32.4368 55.4072 33.0008 55.5207 33.5974C55.6342 34.1939 55.6147 34.8082 55.4636 35.3963C53.968 41.2288 50.5773 46.3969 45.8261 50.0859C41.0748 53.775 35.2332 55.7754 29.2218 55.7717H29.1342Z" fill="white"/>
<path d="M29.0249 55.672C21.7849 55.6491 14.9966 52.8216 9.90965 47.7088C4.82267 42.5961 2.021 35.789 2.021 28.5365C2.02145 23.4451 3.45166 18.4565 6.1482 14.1407C8.84474 9.82493 12.6988 6.35608 17.2701 4.1305C21.8414 1.90493 26.9455 1.0124 31.9991 1.5549C37.0527 2.09741 41.8521 4.05306 45.8488 7.1984C50.5239 10.89 53.8636 16.0137 55.3572 21.7862C55.5064 22.3737 55.5242 22.9868 55.4096 23.582C55.2949 24.1772 55.0506 24.7396 54.6939 25.2293C54.3373 25.719 53.8772 26.1238 53.3464 26.4148C52.8156 26.7058 52.2273 26.8759 51.6233 26.9129L40.2644 27.6106C40.0594 27.6235 39.8505 27.6295 39.6446 27.6295C35.068 27.6295 31.1052 24.5698 30.0069 20.1886C29.982 20.0889 29.9591 19.9943 29.9372 19.8966C29.4624 22.0059 28.4006 23.9371 26.8748 25.4665C25.3489 26.9958 23.4216 28.0606 21.3163 28.5375C23.4215 29.0135 25.349 30.0776 26.8751 31.6062C28.4013 33.1349 29.4637 35.0655 29.9392 37.1743C29.9611 37.0747 29.984 36.975 30.0088 36.8823C31.1033 32.4971 35.071 29.4414 39.6466 29.4414C39.8525 29.4414 40.0604 29.4484 40.2664 29.4604L51.6243 30.158C52.2294 30.1954 52.8187 30.3662 53.3502 30.6584C53.8817 30.9505 54.3422 31.3567 54.6986 31.8479C55.0551 32.3391 55.2988 32.9032 55.4123 33.4997C55.5259 34.0963 55.5063 34.7106 55.3552 35.2987C53.8598 41.1314 50.4688 46.2997 45.7171 49.9885C40.9653 53.6774 35.1231 55.6769 29.1114 55.672H29.0249Z" fill="white"/>
<path d="M28.9144 55.5803C21.6755 55.5573 14.8862 52.7289 9.79921 47.6171C4.71222 42.5053 1.91553 35.6953 1.91553 28.4427C1.91653 23.3521 3.34684 18.3644 6.04305 14.0494C8.73927 9.73433 12.5927 6.26595 17.1631 4.04043C21.7335 1.81491 26.8367 0.921985 31.8896 1.46366C36.9426 2.00533 41.7416 3.95975 45.7384 7.10367C50.4124 10.7964 53.7507 15.9208 55.2428 21.6935C55.3921 22.2809 55.4101 22.8942 55.2956 23.4894C55.181 24.0846 54.9366 24.6472 54.58 25.1369C54.2233 25.6266 53.7631 26.0314 53.2322 26.3224C52.7014 26.6134 52.1129 26.7833 51.5089 26.8202L40.15 27.5179C39.945 27.5308 39.7371 27.5378 39.5311 27.5378C34.9545 27.5378 30.9918 24.4781 29.8924 20.0969C29.8686 19.9972 29.8447 19.9025 29.8228 19.8039C29.3476 21.9127 28.2854 23.8435 26.7594 25.3723C25.2334 26.9012 23.3061 27.9654 21.2009 28.4417C23.306 28.9183 25.2332 29.9826 26.7591 31.5114C28.2851 33.0402 29.3473 34.9708 29.8228 37.0796C29.8447 36.98 29.8686 36.8803 29.8924 36.7866C30.9868 32.4064 34.9545 29.3467 39.5301 29.3467C39.7361 29.3467 39.945 29.3527 40.15 29.3656L51.5089 30.0633C52.1146 30.1001 52.7046 30.2707 53.2367 30.5629C53.7688 30.855 54.2298 31.2615 54.5867 31.7531C54.9435 32.2447 55.1874 32.8093 55.3009 33.4064C55.4143 34.0035 55.3945 34.6184 55.2428 35.2069C53.7472 41.039 50.3566 46.2067 45.6055 49.8954C40.8544 53.5842 35.013 55.5842 29.002 55.5803H28.9144Z" fill="white"/>
<path d="M28.8052 55.4855C21.5652 55.4626 14.7769 52.6351 9.68992 47.5224C4.60294 42.4096 1.80127 35.6005 1.80127 28.348C1.80173 23.2566 3.23194 18.268 5.92848 13.9522C8.62502 9.63646 12.4791 6.1676 17.0504 3.94203C21.6217 1.71645 26.7257 0.823923 31.7794 1.36643C36.833 1.90893 41.6324 3.86459 45.6291 7.00993C50.3044 10.7016 53.6438 15.8258 55.1365 21.5987C55.286 22.1862 55.3042 22.7995 55.1897 23.3948C55.0752 23.9901 54.8308 24.5527 54.4741 25.0425C54.1174 25.5323 53.6572 25.9371 53.1262 26.228C52.5952 26.5189 52.0067 26.6888 51.4026 26.7255L40.0447 27.4231C39.8387 27.4361 39.6308 27.442 39.4248 27.442C34.8483 27.442 30.8855 24.3824 29.7861 20.0011C29.7623 19.9015 29.7394 19.8018 29.7175 19.7091C29.2418 21.818 28.1794 23.7487 26.6533 25.2775C25.1271 26.8062 23.1998 27.8705 21.0946 28.347C23.1998 28.8231 25.1273 29.8871 26.6534 31.4157C28.1796 32.9444 29.242 34.875 29.7175 36.9839C29.7394 36.8842 29.7623 36.7845 29.7861 36.6919C30.8855 32.3066 34.8483 29.2509 39.4248 29.2509C39.6298 29.2509 39.8387 29.2579 40.0447 29.2699L51.4026 29.9675C52.0077 30.0049 52.597 30.1758 53.1285 30.4679C53.66 30.7601 54.1204 31.1663 54.4769 31.6574C54.8334 32.1486 55.0771 32.7127 55.1906 33.3092C55.3041 33.9058 55.2846 34.5201 55.1335 35.1082C53.6387 40.9413 50.2484 46.1101 45.497 49.7996C40.7456 53.4892 34.9035 55.4896 28.8917 55.4855H28.8052Z" fill="white"/>
<path d="M28.6946 55.3917C21.4546 55.3688 14.6663 52.5403 9.57933 47.4285C4.49234 42.3168 1.69067 35.5067 1.69067 28.2542C1.69133 23.1629 3.12164 18.1744 5.81818 13.8587C8.51472 9.54303 12.3687 6.07422 16.9399 3.8486C21.5111 1.62297 26.615 0.730289 31.6686 1.27255C36.7222 1.81481 41.5216 3.77013 45.5185 6.91512C50.194 10.6072 53.5337 15.7317 55.0269 21.5049C55.1762 22.0924 55.1942 22.7056 55.0797 23.3008C54.9651 23.8961 54.7207 24.4586 54.3641 24.9483C54.0074 25.4381 53.5472 25.8429 53.0163 26.1338C52.4855 26.4248 51.897 26.5948 51.293 26.6317L39.9341 27.3293C39.7291 27.3423 39.5202 27.3492 39.3142 27.3492C34.7376 27.3492 30.7749 24.2895 29.6765 19.9083C29.6517 19.8087 29.6288 19.714 29.6069 19.6153C29.1317 21.7242 28.0695 23.655 26.5435 25.1838C25.0175 26.7126 23.0902 27.7769 20.985 28.2532C23.0901 28.7297 25.0173 29.794 26.5432 31.3228C28.0692 32.8516 29.1314 34.7823 29.6069 36.8911C29.6288 36.7914 29.6517 36.6917 29.6765 36.5981C30.7709 32.2178 34.7386 29.1581 39.3142 29.1581C39.5202 29.1581 39.7281 29.1641 39.9341 29.1771L51.293 29.8747C51.898 29.9122 52.4872 30.0832 53.0186 30.3754C53.5499 30.6676 54.0103 31.0738 54.3666 31.565C54.723 32.0562 54.9667 32.6202 55.0801 33.2166C55.1936 33.8131 55.174 34.4274 55.0229 35.0154C53.5277 40.8487 50.1367 46.0175 45.3848 49.7069C40.6329 53.3963 34.7902 55.3964 28.7781 55.3917H28.6946Z" fill="white"/>
<path d="M28.5842 55.2973C21.3452 55.2744 14.5559 52.4469 9.46896 47.3341C4.38197 42.2214 1.5813 35.4123 1.5813 28.1648C1.58059 23.073 3.00993 18.0836 5.70598 13.7671C8.40202 9.45053 12.256 5.98086 16.8274 3.75465C21.3988 1.52843 26.5033 0.635475 31.5573 1.17784C36.6114 1.72021 41.4112 3.67601 45.4081 6.82172C50.0836 10.5134 53.4233 15.6376 54.9165 21.4105C55.066 21.998 55.0842 22.6113 54.9697 23.2066C54.8552 23.8019 54.6109 24.3645 54.2542 24.8543C53.8975 25.344 53.4372 25.7488 52.9062 26.0398C52.3752 26.3307 51.7867 26.5006 51.1826 26.5373L39.8237 27.2349C39.6188 27.2479 39.4108 27.2538 39.2049 27.2538C34.6283 27.2538 30.6655 24.1942 29.5662 19.8129C29.5423 19.7133 29.5194 19.6186 29.4975 19.5209C29.0225 21.6307 27.9604 23.5625 26.4343 25.0924C24.9081 26.6222 22.9804 27.6875 20.8746 28.1648C22.9798 28.6411 24.9071 29.7052 26.4332 31.2338C27.9593 32.7624 29.0218 34.6929 29.4975 36.8017C29.5194 36.702 29.5423 36.6023 29.5662 36.5096C30.6685 32.1244 34.6283 29.0617 39.2049 29.0617C39.4098 29.0617 39.6188 29.0687 39.8237 29.0807L51.1826 29.7783C51.7876 29.8158 52.3769 29.9868 52.9082 30.279C53.4396 30.5712 53.8999 30.9774 54.2563 31.4686C54.6127 31.9598 54.8563 32.5238 54.9697 33.1203C55.0832 33.7167 55.0636 34.331 54.9125 34.919C53.4183 40.7523 50.0283 45.9214 45.277 49.6112C40.5257 53.3009 34.6836 55.3015 28.6717 55.2973H28.5842Z" fill="white"/>
<path d="M28.4798 55.2032C21.2398 55.1803 14.4516 52.3518 9.36458 47.2401C4.27759 42.1283 1.47095 35.3183 1.47095 28.0647C1.47179 22.9735 2.90223 17.9851 5.59885 13.6696C8.29547 9.35407 12.1495 5.88541 16.7206 3.6599C21.2918 1.4344 26.3956 0.541802 31.4491 1.0841C36.5026 1.62639 41.302 3.58171 45.2988 6.72665C49.9744 10.4185 53.3138 15.5431 54.8062 21.3165C54.9555 21.9039 54.9735 22.5171 54.8589 23.1124C54.7444 23.7076 54.5 24.2702 54.1434 24.7599C53.7867 25.2496 53.3265 25.6544 52.7956 25.9454C52.2647 26.2363 51.6763 26.4063 51.0723 26.4432L39.7144 27.1408C39.5084 27.1538 39.3005 27.1608 39.0945 27.1608C34.5179 27.1608 30.5552 24.1011 29.4568 19.7198C29.4319 19.6202 29.4091 19.5255 29.3872 19.4268C28.9119 21.5359 27.8495 23.4667 26.3233 24.9956C24.7972 26.5244 22.8696 27.5886 20.7643 28.0647C22.8696 28.541 24.797 29.6052 26.3232 31.134C27.8494 32.6628 28.9117 34.5936 29.3872 36.7026C29.4091 36.6029 29.4319 36.5033 29.4568 36.4096C30.5512 32.0294 34.5189 28.9697 39.0945 28.9697C39.3005 28.9697 39.5084 28.9756 39.7144 28.9886L51.0723 29.6862C51.6772 29.7236 52.2665 29.8945 52.7979 30.1866C53.3293 30.4787 53.7897 30.8848 54.1461 31.3758C54.5026 31.8669 54.7464 32.4308 54.8599 33.0273C54.9735 33.6237 54.9541 34.2379 54.8032 34.8259C53.3081 40.6588 49.9177 45.8274 45.1664 49.5169C40.415 53.2064 34.5731 55.207 28.5614 55.2032H28.4798Z" fill="white"/>
<path d="M28.3642 55.1087C21.1242 55.0858 14.336 52.2584 9.24899 47.1456C4.162 42.0328 1.36033 35.2238 1.36133 27.9712C1.3623 22.8802 2.79286 17.8921 5.48957 13.5768C8.18627 9.26157 12.0404 5.79324 16.6115 3.56811C21.1826 1.34299 26.2863 0.450807 31.3396 0.99351C36.3929 1.53621 41.1918 3.49191 45.1882 6.63715C49.8636 10.3288 53.2034 15.453 54.6965 21.226C54.8454 21.813 54.863 22.4257 54.7483 23.0204C54.6336 23.6151 54.3894 24.177 54.0329 24.6663C53.6765 25.1555 53.2167 25.56 52.6864 25.8508C52.156 26.1416 51.5681 26.3116 50.9646 26.3487L39.6057 27.0463C39.4008 27.0593 39.1918 27.0653 38.9869 27.0653C34.4103 27.0653 30.4466 24.0056 29.3482 19.6244C29.3243 19.5247 29.3004 19.425 29.2785 19.3324C28.803 21.4411 27.7407 23.3717 26.2147 24.9005C24.6888 26.4292 22.7617 27.4936 20.6566 27.9702C22.7614 28.4471 24.6882 29.5117 26.2136 31.0407C27.739 32.5697 28.8007 34.5004 29.2756 36.6091C29.2974 36.5094 29.3203 36.4098 29.3452 36.3171C30.4396 31.9319 34.4073 28.8762 38.9829 28.8762C39.1889 28.8762 39.3968 28.8832 39.6027 28.8951L50.9616 29.5928C51.5666 29.6303 52.1559 29.8012 52.6872 30.0934C53.2186 30.3856 53.6789 30.7919 54.0353 31.283C54.3917 31.7742 54.6353 32.3382 54.7488 32.9347C54.8622 33.5312 54.8427 34.1454 54.6916 34.7334C53.1966 40.5661 49.8063 45.7344 45.0551 49.4236C40.3039 53.1127 34.4621 55.1129 28.4508 55.1087H28.3642Z" fill="white"/>
<path d="M28.2539 55.0154C21.0149 54.9925 14.2256 52.164 9.13864 47.0523C4.05165 41.9405 1.25098 35.1305 1.25098 27.8779C1.25098 24.3142 1.9517 20.7854 3.31313 17.493C4.67457 14.2006 6.67005 11.209 9.18565 8.68914C11.7012 6.16927 14.6877 4.17043 17.9744 2.80675C21.2612 1.44307 24.7839 0.741263 28.3414 0.741394C34.4146 0.718925 40.3154 2.76261 45.0778 6.53785C49.7542 10.2296 53.094 15.3547 54.5862 21.1287C54.7355 21.7161 54.7535 22.3293 54.639 22.9246C54.5244 23.5198 54.2801 24.0824 53.9234 24.5721C53.5667 25.0618 53.1065 25.4666 52.5756 25.7576C52.0448 26.0485 51.4563 26.2185 50.8523 26.2554L39.4934 26.953C39.2884 26.966 39.0805 26.973 38.8746 26.973C34.298 26.973 30.3352 23.9133 29.2358 19.532C29.212 19.4357 29.1891 19.338 29.1672 19.239C28.6916 21.3479 27.6291 23.2786 26.103 24.8074C24.5768 26.3361 22.6495 27.4004 20.5443 27.8769C22.6496 28.3532 24.5771 29.4174 26.1032 30.9462C27.6294 32.475 28.6918 34.4058 29.1672 36.5148C29.1891 36.4151 29.212 36.3155 29.2358 36.2218C30.3303 31.8366 34.298 28.7819 38.8746 28.7819C39.0795 28.7819 39.2884 28.7878 39.4934 28.8008L50.8523 29.4984C51.4577 29.5359 52.0475 29.7069 52.5792 29.9993C53.1109 30.2918 53.5715 30.6984 53.9281 31.19C54.2846 31.6816 54.5282 32.2461 54.6415 32.8431C54.7547 33.4401 54.7348 34.0547 54.5832 34.6431C53.0872 40.4751 49.6964 45.6426 44.9451 49.3311C40.1939 53.0196 34.3524 55.0195 28.3414 55.0154H28.2539Z" fill="white"/>
<path d="M28.1445 54.9201C20.9045 54.8972 14.1163 52.0697 9.02928 46.9569C3.9423 41.8442 1.14062 35.0351 1.14062 27.7826C1.14108 22.6912 2.57129 17.7026 5.26783 13.3868C7.96437 9.07103 11.8185 5.60217 16.3897 3.3766C20.961 1.15102 26.0651 0.258494 31.1187 0.800998C36.1724 1.3435 40.9718 3.29916 44.9685 6.4445C49.644 10.136 52.9834 15.2603 54.4758 21.0333C54.6253 21.6208 54.6435 22.2341 54.529 22.8294C54.4145 23.4247 54.1702 23.9873 53.8135 24.4771C53.4568 24.9668 52.9965 25.3716 52.4655 25.6626C51.9346 25.9535 51.346 26.1234 50.7419 26.16L39.384 26.8577C39.1781 26.8706 38.9701 26.8766 38.7642 26.8766C34.1876 26.8766 30.2249 23.8169 29.1265 19.4357C29.1016 19.336 29.0787 19.2414 29.0568 19.1437C28.5812 21.2526 27.5188 23.1832 25.9926 24.712C24.4665 26.2408 22.5392 27.3051 20.4339 27.7816C22.5392 28.2576 24.4666 29.3217 25.9928 30.8503C27.519 32.379 28.5814 34.3096 29.0568 36.4184C29.0787 36.3188 29.1016 36.2191 29.1265 36.1264C30.2209 31.7412 34.1886 28.6855 38.7642 28.6855C38.9701 28.6855 39.1781 28.6925 39.384 28.7045L50.7419 29.4021C51.347 29.4395 51.9364 29.6103 52.4679 29.9025C52.9993 30.1946 53.4598 30.6008 53.8163 31.092C54.1728 31.5832 54.4165 32.1473 54.53 32.7438C54.6435 33.3404 54.624 33.9547 54.4729 34.5428C52.9781 40.3759 49.5877 45.5447 44.8363 49.2342C40.085 52.9238 34.2428 54.9242 28.2311 54.9201H28.1445Z" fill="white"/>
<path d="M28.0339 54.8269C20.7939 54.8039 14.0056 51.9755 8.91866 46.8637C3.83168 41.7519 1.03101 34.9419 1.03101 27.6894C1.03233 20.4932 3.88697 13.5922 8.96708 8.50416C14.0472 3.41615 20.9368 0.557819 28.1205 0.557819C34.1934 0.534227 40.0945 2.57648 44.8578 6.35029C49.5333 10.0424 52.873 15.1669 54.3662 20.9401C54.5164 21.5279 54.5351 22.1417 54.4209 22.7375C54.3067 23.3334 54.0625 23.8966 53.7058 24.3869C53.349 24.8772 52.8885 25.2825 52.3572 25.5738C51.8259 25.865 51.2369 26.0351 50.6323 26.0718L39.2734 26.7695C39.0685 26.7824 38.8595 26.7894 38.6546 26.7894C34.078 26.7894 30.1143 23.7297 29.0159 19.3485C28.992 19.2488 28.9681 19.1541 28.9462 19.0555C28.4701 21.164 27.4072 23.0942 25.8807 24.6223C24.3541 26.1504 22.4266 27.2139 20.3213 27.6894C22.4265 28.1657 24.3538 29.2299 25.8798 30.7587C27.4058 32.2876 28.468 34.2183 28.9432 36.3272C28.9651 36.2276 28.989 36.1279 29.0129 36.0342C30.1073 31.654 34.075 28.5943 38.6506 28.5943C38.8565 28.5943 39.0655 28.6003 39.2704 28.6132L50.6293 29.3109C51.2342 29.3484 51.8234 29.5194 52.3546 29.8115C52.8859 30.1037 53.3462 30.5098 53.7025 31.0008C54.0589 31.4919 54.3026 32.0558 54.4161 32.6521C54.5296 33.2485 54.5102 33.8626 54.3593 34.4506C52.8643 40.2829 49.4742 45.451 44.7235 49.1403C39.9728 52.8295 34.1315 54.8302 28.1205 54.8269H28.0339Z" fill="white"/>
<path d="M27.9235 54.7322C20.6846 54.7093 13.8953 51.8818 8.80931 46.7691C3.72332 41.6563 0.920654 34.8472 0.920654 27.5947C0.920654 24.031 1.62138 20.5022 2.98281 17.2098C4.34425 13.9173 6.33973 10.9258 8.85532 8.40593C11.3709 5.88606 14.3574 3.88722 17.6441 2.52354C20.9309 1.15986 24.4536 0.458047 28.0111 0.458178C34.0848 0.436524 39.9858 2.48088 44.7485 6.25663C49.424 9.94811 52.7634 15.0724 54.2559 20.8454C54.4054 21.4329 54.4235 22.0462 54.309 22.6415C54.1945 23.2368 53.9502 23.7994 53.5935 24.2892C53.2368 24.779 52.7765 25.1838 52.2456 25.4747C51.7146 25.7656 51.1261 25.9355 50.522 25.9722L39.1631 26.6698C38.9581 26.6828 38.7502 26.6887 38.5442 26.6887C33.9676 26.6887 30.0049 23.6291 28.9055 19.2478C28.8816 19.1482 28.8588 19.0485 28.8369 18.9558C28.3611 21.0646 27.2986 22.9953 25.7725 24.524C24.2464 26.0528 22.3191 27.1171 20.214 27.5937C22.3201 28.0703 24.2482 29.1354 25.7744 30.6653C27.3007 32.1953 28.3626 34.1274 28.8369 36.2376C28.8588 36.1379 28.8816 36.0382 28.9055 35.9455C30.0049 31.5603 33.9676 28.5046 38.5442 28.5046C38.7492 28.5046 38.9581 28.5116 39.1631 28.5236L50.522 29.2212C51.1271 29.2586 51.7164 29.4295 52.2479 29.7216C52.7794 30.0137 53.2398 30.4199 53.5963 30.9111C53.9528 31.4023 54.1965 31.9664 54.31 32.5629C54.4235 33.1595 54.404 33.7738 54.2529 34.3619C52.7566 40.1936 49.3657 45.3607 44.6145 49.0489C39.8632 52.7371 34.0219 54.7365 28.0111 54.7322H27.9235Z" fill="white"/>
<path d="M39.0495 30.3608L39.0499 30.3609L50.4084 31.0585C50.4085 31.0585 50.4086 31.0585 50.4087 31.0585C50.7426 31.0795 51.0677 31.1741 51.361 31.3356C51.6543 31.4971 51.9084 31.7215 52.1053 31.9928C52.3021 32.2642 52.4367 32.5757 52.4994 32.9053C52.5621 33.2349 52.5515 33.5742 52.4681 33.8992L52.4681 33.8992C49.6633 44.844 39.7346 52.9295 27.9297 52.8872H27.9288C24.6182 52.8835 21.3409 52.2262 18.284 50.9529C15.2272 49.6796 12.4508 47.8152 10.1136 45.4664C7.77633 43.1175 5.92412 40.3302 4.66284 37.2638C3.40155 34.1974 2.75593 30.912 2.7629 27.5954V27.5947C2.7629 13.6262 14.0681 2.30312 28.011 2.30312C39.7855 2.30312 49.6776 10.3776 52.4708 21.302C52.5526 21.6261 52.5619 21.9643 52.4983 22.2925C52.4347 22.6207 52.2995 22.9308 52.1026 23.2006L52.3853 23.407L52.1026 23.2006C51.9056 23.4705 51.6517 23.6935 51.359 23.8537C51.0663 24.014 50.7419 24.1076 50.409 24.1278L50.4089 24.1278L39.0499 24.8255L39.0499 24.8255C35.1821 25.0636 31.6343 22.5508 30.6926 18.7963C30.6705 18.7068 30.6493 18.6161 30.629 18.5251C30.629 18.525 30.629 18.5249 30.6289 18.5248L29.5908 13.8123C29.5908 13.812 29.5907 13.8117 29.5906 13.8113C29.5534 13.6392 29.4584 13.4848 29.3214 13.374C29.1841 13.2629 29.0129 13.2023 28.8363 13.2023C28.6596 13.2023 28.4884 13.2629 28.3511 13.374C28.2141 13.4848 28.1192 13.6391 28.0819 13.8113C28.0818 13.8116 28.0818 13.812 28.0817 13.8123L27.0434 18.5306C27.0434 18.5307 27.0434 18.5307 27.0434 18.5308C26.6512 20.3095 25.7597 21.9388 24.4739 23.2267C23.1881 24.5146 21.5616 25.4074 19.7861 25.7998L15.0809 26.8399C15.0807 26.84 15.0804 26.8401 15.0801 26.8401C14.9078 26.8775 14.7535 26.9728 14.6429 27.11L14.9153 27.3297L14.6429 27.11C14.5321 27.2474 14.4717 27.4187 14.4717 27.5952C14.4717 27.7717 14.5321 27.9429 14.6429 28.0803C14.7535 28.2175 14.9077 28.3128 15.08 28.3502C15.0803 28.3503 15.0806 28.3503 15.0809 28.3504L19.7861 29.3905C21.5616 29.783 23.1881 30.6757 24.4739 31.9636C25.7597 33.2515 26.6512 34.8808 27.0434 36.6596C27.0434 36.6596 27.0434 36.6597 27.0434 36.6597L28.0807 41.374C28.0808 41.3744 28.0808 41.3747 28.0809 41.3751C28.1182 41.5472 28.2131 41.7015 28.3501 41.8124L28.5702 41.5403L28.3501 41.8124C28.4874 41.9234 28.6586 41.9841 28.8353 41.9841C29.0119 41.9841 29.1831 41.9234 29.3204 41.8124L29.1003 41.5403L29.3204 41.8124C29.4574 41.7015 29.5524 41.5472 29.5896 41.3751C29.5897 41.3747 29.5898 41.3744 29.5898 41.374L30.6279 36.6606C30.628 36.6604 30.628 36.6603 30.628 36.6601C30.6482 36.5698 30.6694 36.4799 30.6918 36.3884C31.6348 32.6341 35.1874 30.1189 39.0495 30.3608Z" fill="#1B1716" stroke="white" stroke-width="0.7"/>
</svg>
