<svg width="61" height="60" viewBox="0 0 61 60" fill="none" xmlns="http://www.w3.org/2000/svg">
<path d="M34.0378 59.0776C26.7978 59.0547 20.0096 56.2272 14.9226 51.1144C9.83559 46.0017 7.03491 39.1926 7.03491 31.9401C7.03513 26.8487 8.46516 21.86 11.1616 17.5442C13.858 13.2284 17.712 9.75944 22.2833 7.53383C26.8545 5.30822 31.9586 4.41569 37.0122 4.95825C42.0658 5.5008 46.8651 7.45655 50.8618 10.602C55.5372 14.2937 58.8769 19.4178 60.3701 25.1908C60.5196 25.7781 60.5378 26.3912 60.4234 26.9864C60.3091 27.5816 60.0649 28.1441 59.7084 28.6338C59.3519 29.1236 58.8919 29.5284 58.3612 29.8194C57.8305 30.1105 57.2421 30.2806 56.6382 30.3175L45.2793 31.0152C45.0744 31.0271 44.8654 31.0341 44.6605 31.0341C40.0839 31.0341 36.1202 27.9744 35.0218 23.5932C34.9979 23.4935 34.974 23.3989 34.9521 23.3012C34.4766 25.4099 33.4143 27.3405 31.8883 28.8693C30.3624 30.3981 28.4352 31.4624 26.3302 31.9391C28.435 32.4159 30.3617 33.4806 31.8872 35.0096C33.4126 36.5385 34.4743 38.4692 34.9491 40.5779C34.971 40.4783 34.9939 40.3786 35.0188 40.2859C36.1132 35.9007 40.0809 32.845 44.6565 32.845C44.8624 32.845 45.0704 32.852 45.2763 32.8639L56.6352 33.5616C57.2402 33.5991 57.8295 33.7701 58.3608 34.0623C58.8922 34.3545 59.3525 34.7607 59.7089 35.2519C60.0653 35.743 60.3089 36.307 60.4224 36.9035C60.5358 37.5 60.5163 38.1142 60.3651 38.7023C58.87 44.5348 55.4797 49.703 50.7285 53.3922C45.9774 57.0813 40.1357 59.0816 34.1244 59.0776H34.0378Z" fill="#594842"/>
<path d="M33.9275 58.9836C26.6885 58.9616 19.8992 56.1332 14.8132 51.0204C9.72723 45.9076 6.92456 39.0996 6.92456 31.847C6.92483 26.7555 8.35491 21.7668 11.0514 17.4509C13.7478 13.135 17.6019 9.66599 22.1732 7.44029C26.7445 5.2146 31.8487 4.32198 36.9024 4.86445C41.9562 5.40691 46.7556 7.36258 50.7524 10.508C55.428 14.1998 58.7674 19.3244 60.2598 25.0978C60.4091 25.6852 60.4271 26.2984 60.3126 26.8935C60.198 27.4887 59.9536 28.0512 59.5969 28.5409C59.2403 29.0305 58.78 29.4352 58.2492 29.7261C57.7183 30.0169 57.1298 30.1868 56.5259 30.2235L45.167 30.9212C44.962 30.9341 44.7541 30.9401 44.5481 30.9401C39.9715 30.9401 36.0088 27.8814 34.9094 23.5002C34.8855 23.4038 34.8627 23.3062 34.8408 23.2072C34.3651 25.316 33.3027 27.2467 31.7766 28.7755C30.2504 30.3043 28.3231 31.3686 26.2179 31.845C28.3232 32.3212 30.2508 33.3854 31.7769 34.9142C33.3031 36.443 34.3655 38.3739 34.8408 40.4829C34.8627 40.3846 34.8855 40.2869 34.9094 40.1899C36.0038 35.8097 39.9715 32.75 44.5481 32.75C44.7531 32.75 44.962 32.756 45.167 32.7689L56.5259 33.4666C57.1308 33.504 57.7201 33.6748 58.2515 33.9669C58.7829 34.259 59.2433 34.6651 59.5997 35.1562C59.9562 35.6472 60.2 36.2112 60.3135 36.8076C60.4271 37.404 60.4077 38.0182 60.2568 38.6062C58.7619 44.4394 55.3715 49.6082 50.6202 53.2979C45.8689 56.9876 40.0268 58.9883 34.015 58.9846L33.9275 58.9836Z" fill="#594842"/>
<path d="M33.8179 58.8898C26.5779 58.8669 19.7896 56.0384 14.7026 50.9266C9.61564 45.8149 6.81396 39.0048 6.81396 31.7523C6.81442 26.6609 8.24463 21.6723 10.9412 17.3565C13.6377 13.0408 17.4918 9.5719 22.0631 7.34632C26.6344 5.12075 31.7384 4.22822 36.7921 4.77072C41.8457 5.31323 46.6451 7.26888 50.6418 10.4142C55.3173 14.1057 58.6567 19.23 60.1492 25.003C60.2985 25.5905 60.3165 26.2037 60.202 26.799C60.0874 27.3942 59.843 27.9567 59.4864 28.4465C59.1297 28.9362 58.6695 29.341 58.1386 29.6319C57.6078 29.9229 57.0193 30.0929 56.4153 30.1298L45.0574 30.8274C44.8524 30.8394 44.6435 30.8463 44.4375 30.8463C39.861 30.8463 35.8982 27.7867 34.7998 23.4054C34.775 23.3058 34.7521 23.2061 34.7302 23.1134C34.2545 25.2223 33.1921 27.153 31.666 28.6817C30.1398 30.2105 28.2125 31.2748 26.1073 31.7513C28.2125 32.2274 30.14 33.2914 31.6661 34.82C33.1923 36.3487 34.2547 38.2793 34.7302 40.3882C34.7521 40.2885 34.775 40.1888 34.7998 40.0962C35.8942 35.7109 39.8619 32.6552 44.4375 32.6552C44.6435 32.6552 44.8514 32.6622 45.0574 32.6742L56.4153 33.3718C57.0204 33.4092 57.6097 33.5801 58.1412 33.8722C58.6727 34.1644 59.1331 34.5706 59.4896 35.0617C59.8461 35.5529 60.0898 36.117 60.2033 36.7135C60.3168 37.3101 60.2973 37.9244 60.1462 38.5125C58.6513 44.3455 55.2609 49.5142 50.5095 53.2037C45.7582 56.8932 39.9161 58.8937 33.9044 58.8898H33.8179Z" fill="#594842"/>
<path d="M33.7075 58.7953C26.4685 58.7734 19.6792 55.945 14.5922 50.8322C9.50527 45.7194 6.70459 38.9104 6.70459 31.6588C6.70462 26.5673 8.13451 21.5786 10.8308 17.2626C13.5272 12.9466 17.3812 9.47755 21.9525 7.25182C26.5238 5.02609 31.6279 4.13348 36.6816 4.67599C41.7353 5.21851 46.5348 7.17427 50.5314 10.3198C55.2069 14.0119 58.5466 19.1363 60.0398 24.9096C60.1891 25.497 60.2072 26.1102 60.0926 26.7053C59.978 27.3005 59.7337 27.863 59.377 28.3527C59.0203 28.8423 58.5601 29.247 58.0292 29.5379C57.4983 29.8287 56.9099 29.9986 56.3059 30.0353L44.947 30.7329C44.742 30.7459 44.5331 30.7519 44.3282 30.7519C39.7516 30.7519 35.7878 27.6932 34.6895 23.312C34.6656 23.2123 34.6417 23.1176 34.6198 23.019C34.1447 25.1286 33.0822 27.0601 31.5556 28.5893C30.029 30.1185 28.1009 31.1829 25.9949 31.6588C28.1001 32.1351 30.0274 33.1994 31.5534 34.7282C33.0794 36.257 34.1416 38.1878 34.6168 40.2967C34.6387 40.197 34.6626 40.0974 34.6865 40.0037C35.7809 35.6235 39.7486 32.5638 44.3242 32.5638C44.5301 32.5638 44.7391 32.5698 44.944 32.5827L56.3029 33.2804C56.9078 33.3179 57.4969 33.4889 58.0282 33.781C58.5595 34.0731 59.0197 34.4793 59.3761 34.9703C59.7325 35.4614 59.9761 36.0252 60.0897 36.6216C60.2032 37.2179 60.1838 37.8321 60.0328 38.42C58.5379 44.2524 55.1478 49.4205 50.3971 53.1097C45.6464 56.799 39.8051 58.7997 33.794 58.7963L33.7075 58.7953Z" fill="#594842"/>
<path d="M33.5971 58.7023C26.3582 58.6794 19.5689 55.8509 14.4829 50.7392C9.3969 45.6274 6.59424 38.8164 6.59424 31.5638C6.5947 26.4724 8.02491 21.4838 10.7214 17.168C13.418 12.8523 17.2721 9.38342 21.8434 7.15785C26.4146 4.93227 31.5187 4.03974 36.5723 4.58225C41.626 5.12475 46.4254 7.08041 50.4221 10.2257C55.0979 13.9177 58.4374 19.0428 59.9294 24.8166C60.0788 25.404 60.0968 26.0172 59.9822 26.6125C59.8676 27.2077 59.6233 27.7703 59.2666 28.26C58.91 28.7497 58.4498 29.1545 57.9189 29.4455C57.388 29.7364 56.7996 29.9064 56.1955 29.9433L44.8366 30.6409C44.6317 30.6529 44.4237 30.6599 44.2178 30.6599C39.6412 30.6599 35.6785 27.6002 34.5791 23.2189C34.5552 23.1193 34.5323 23.0246 34.5105 22.9269C34.0347 25.0357 32.9722 26.9664 31.4461 28.4951C29.92 30.0239 27.9927 31.0882 25.8876 31.5648C27.9928 32.0409 29.9202 33.1049 31.4464 34.6336C32.9726 36.1622 34.035 38.0929 34.5105 40.2017C34.5323 40.102 34.5552 40.0024 34.5791 39.9097C35.6785 35.5245 39.6412 32.4688 44.2178 32.4688C44.4228 32.4688 44.6317 32.4757 44.8376 32.4877L56.1955 33.1854C56.8006 33.2227 57.39 33.3936 57.9215 33.6857C58.4529 33.9779 58.9134 34.3841 59.2699 34.8753C59.6264 35.3665 59.8701 35.9305 59.9836 36.5271C60.0971 37.1236 60.0776 37.7379 59.9265 38.326C58.4313 44.1588 55.0409 49.3273 50.2895 53.0166C45.5382 56.706 39.6963 58.7063 33.6847 58.7023H33.5971Z" fill="#594842"/>
<path d="M33.4875 58.6026C26.2476 58.5807 19.4593 55.7522 14.3723 50.6395C9.28531 45.5267 6.48364 38.7216 6.48364 31.4701C6.48391 26.3786 7.91399 21.3899 10.6105 17.074C13.3069 12.758 17.161 9.28904 21.7323 7.06334C26.3036 4.83764 31.4078 3.94503 36.4615 4.48749C41.5152 5.02996 46.3147 6.98563 50.3115 10.131C54.987 13.8218 58.3273 18.9448 59.8218 24.7169C59.971 25.3042 59.9889 25.9174 59.8742 26.5125C59.7596 27.1076 59.5152 27.67 59.1586 28.1596C58.8019 28.6492 58.3418 29.0539 57.811 29.3448C57.2802 29.6357 56.6918 29.8057 56.0879 29.8426L44.729 30.5402C44.5241 30.5532 44.3151 30.5592 44.1092 30.5592C39.5326 30.5592 35.5699 27.5005 34.4715 23.1192C34.4466 23.0196 34.4237 22.9249 34.4018 22.8262C33.9265 24.9352 32.8642 26.8661 31.338 28.3949C29.8118 29.9238 27.8843 30.988 25.779 31.4641C27.8843 31.9402 29.8118 33.0044 31.338 34.5333C32.8642 36.0621 33.9265 37.993 34.4018 40.102C34.4237 40.0023 34.4466 39.9027 34.4715 39.809C35.5659 35.4287 39.5336 32.3691 44.1092 32.3691C44.3151 32.3691 44.5231 32.375 44.729 32.388L56.0869 33.0856C56.6919 33.123 57.2812 33.2939 57.8126 33.586C58.3439 33.8781 58.8043 34.2842 59.1608 34.7752C59.5173 35.2663 59.761 35.8302 59.8746 36.4266C59.9882 37.0231 59.9688 37.6373 59.8179 38.2253C58.3238 44.0596 54.9335 49.2296 50.1817 52.9202C45.4298 56.6107 39.5868 58.6117 33.5741 58.6076L33.4875 58.6026Z" fill="#594842"/>
<path d="M33.3772 58.5131C26.1382 58.4902 19.3489 55.6617 14.2619 50.55C9.17494 45.4382 6.37427 38.6282 6.37427 31.3756C6.37449 26.2842 7.80451 21.2956 10.5009 16.9797C13.1973 12.6639 17.0514 9.19499 21.6226 6.96938C26.1939 4.74377 31.2979 3.85124 36.3515 4.39379C41.4052 4.93635 46.2045 6.89209 50.2011 10.0375C54.8766 13.7292 58.2163 18.8534 59.7095 24.6264C59.8588 25.2138 59.8768 25.827 59.7623 26.4223C59.6477 27.0175 59.4033 27.5801 59.0467 28.0698C58.69 28.5595 58.2298 28.9643 57.6989 29.2553C57.1681 29.5462 56.5796 29.7162 55.9756 29.7531L44.6167 30.4507C44.4117 30.4627 44.2038 30.4697 43.9978 30.4697C39.4212 30.4697 35.4585 27.41 34.3591 23.0287C34.3353 22.9291 34.3114 22.8294 34.2895 22.7367C33.8141 24.8454 32.7518 26.776 31.2258 28.3046C29.6999 29.8333 27.7726 30.8974 25.6676 31.3736C27.7726 31.8503 29.6997 32.9146 31.2257 34.4434C32.7516 35.9722 33.8139 37.9028 34.2895 40.0115C34.3114 39.9118 34.3353 39.8122 34.3591 39.7195C35.4535 35.3343 39.4212 32.2786 43.9968 32.2786C44.2028 32.2786 44.4117 32.2855 44.6167 32.2975L55.9756 32.9951C56.5806 33.0327 57.1698 33.2036 57.7012 33.4958C58.2325 33.788 58.6929 34.1943 59.0492 34.6854C59.4056 35.1766 59.6493 35.7406 59.7627 36.3371C59.8762 36.9336 59.8566 37.5478 59.7055 38.1358C58.2109 43.9688 54.8208 49.1376 50.0695 52.8272C45.3183 56.5167 39.4763 58.5172 33.4647 58.5131H33.3772Z" fill="#594842"/>
<path d="M33.2678 58.4181C26.0278 58.3962 19.2395 55.5677 14.1526 50.455C9.06559 45.3422 6.26392 38.5332 6.26392 31.2816C6.26419 26.1901 7.69426 21.2014 10.3907 16.8855C13.0872 12.5696 16.9413 9.10056 21.5126 6.87486C26.0839 4.64917 31.188 3.75655 36.2418 4.29902C41.2955 4.84148 46.095 6.79715 50.0918 9.94255C54.7673 13.6344 58.1067 18.759 59.5991 24.5324C59.7485 25.1198 59.7665 25.7329 59.6519 26.3281C59.5373 26.9233 59.293 27.4858 58.9363 27.9754C58.5796 28.4651 58.1194 28.8698 57.5885 29.1606C57.0576 29.4515 56.4692 29.6214 55.8652 29.6581L44.5073 30.3557C44.3014 30.3687 44.0934 30.3747 43.8875 30.3747C39.3109 30.3747 35.3482 27.316 34.2488 22.9347C34.2249 22.8384 34.202 22.7407 34.1801 22.6417C33.7048 24.7508 32.6425 26.6816 31.1163 28.2105C29.5901 29.7393 27.6626 30.8035 25.5572 31.2796C27.6626 31.7558 29.5901 32.8199 31.1163 34.3488C32.6425 35.8776 33.7048 37.8085 34.1801 39.9175C34.202 39.8185 34.2249 39.7208 34.2488 39.6245C35.3472 35.2462 39.3109 32.1915 43.8875 32.1915C44.0924 32.1915 44.3014 32.1975 44.5073 32.2105L55.8652 32.9081C56.4702 32.9455 57.0594 33.1164 57.5908 33.4085C58.1222 33.7005 58.5826 34.1066 58.9391 34.5977C59.2956 35.0888 59.5393 35.6527 59.6529 36.2491C59.7665 36.8456 59.7471 37.4597 59.5961 38.0478C58.1001 43.8791 54.7096 49.046 49.959 52.7343C45.2084 56.4226 39.3677 58.4226 33.3573 58.4191L33.2678 58.4181Z" fill="#594842"/>
<path d="M33.1584 58.3244C25.9185 58.3015 19.1302 55.473 14.0432 50.3612C8.95623 45.2495 6.15356 38.4394 6.15356 31.1869C6.15402 26.0955 7.58423 21.1069 10.2808 16.7911C12.9773 12.4753 16.8314 9.00647 21.4027 6.7809C25.974 4.55532 31.078 3.66279 36.1317 4.20529C41.1853 4.7478 45.9847 6.70345 49.9814 9.8488C54.6569 13.5405 57.9966 18.6646 59.4898 24.4376C59.6391 25.0251 59.6571 25.6383 59.5426 26.2335C59.428 26.8288 59.1836 27.3913 58.827 27.881C58.4703 28.3707 58.0101 28.7755 57.4792 29.0665C56.9484 29.3575 56.3599 29.5275 55.7559 29.5643L44.397 30.262C44.192 30.2739 43.9831 30.2809 43.7771 30.2809C39.2005 30.2809 35.2378 27.2212 34.1394 22.84C34.1146 22.7403 34.0917 22.6457 34.0698 22.548C33.5944 24.6567 32.5321 26.5873 31.0061 28.1159C29.4802 29.6445 27.5529 30.7086 25.4479 31.1849C27.5529 31.6615 29.48 32.7259 31.006 34.2546C32.5319 35.7834 33.5942 37.714 34.0698 39.8228C34.0917 39.7231 34.1146 39.6234 34.1394 39.5307C35.2338 35.1455 39.2015 32.0898 43.7771 32.0898C43.9831 32.0898 44.191 32.0968 44.397 32.1088L55.7559 32.8064C56.3609 32.8439 56.9501 33.0149 57.4815 33.3071C58.0128 33.5993 58.4732 34.0055 58.8295 34.4967C59.1859 34.9879 59.4296 35.5519 59.543 36.1483C59.6565 36.7448 59.6369 37.359 59.4858 37.9471C57.991 43.7802 54.6007 48.949 49.8493 52.6385C45.0979 56.3281 39.2558 58.3285 33.244 58.3244H33.1584Z" fill="#594842"/>
<path d="M33.0468 58.2295C25.8079 58.2076 19.0186 55.3791 13.9316 50.2664C8.84462 45.1536 6.04395 38.3446 6.04395 31.095C6.04331 26.003 7.47284 21.0136 10.1691 16.6969C12.8654 12.3803 16.7197 8.91071 21.2914 6.68466C25.8631 4.45862 30.9678 3.56596 36.022 4.10872C41.0762 4.65148 45.876 6.60776 49.8728 9.75395C54.5483 13.446 57.888 18.5705 59.3811 24.3438C59.5305 24.9315 59.5485 25.545 59.4337 26.1404C59.3189 26.7359 59.0742 27.2986 58.717 27.7883C58.3599 28.278 57.8992 28.6826 57.3679 28.9733C56.8365 29.2639 56.2476 29.4333 55.6433 29.4695L44.2844 30.1671C44.0794 30.1801 43.8715 30.1861 43.6655 30.1861C39.0889 30.1861 35.1262 27.1274 34.0268 22.7462C34.0029 22.6498 33.9801 22.5521 33.9582 22.4531C33.4833 24.5625 32.4215 26.4938 30.8957 28.0234C29.3699 29.5529 27.4426 30.6179 25.3373 31.095C27.4426 31.5713 29.37 32.6355 30.8962 34.1643C32.4224 35.6931 33.4847 37.6239 33.9602 39.7329C33.9821 39.6346 34.0049 39.5369 34.0288 39.4399C35.1282 35.0596 39.0909 32 43.6675 32C43.8725 32 44.0814 32.0059 44.2864 32.0189L55.6453 32.7165C56.2502 32.7542 56.8393 32.9253 57.3706 33.2176C57.9019 33.5098 58.3621 33.916 58.7185 34.4072C59.0748 34.8983 59.3185 35.4622 59.432 36.0586C59.5455 36.655 59.5261 37.2692 59.3752 37.8572C57.8798 43.6894 54.4893 48.8571 49.7381 52.5458C44.987 56.2344 39.1454 58.2341 33.1344 58.2295H33.0468Z" fill="#594842"/>
<path d="M32.9375 58.1359C25.6975 58.113 18.9092 55.2845 13.8222 50.1727C8.73526 45.061 5.93359 38.2509 5.93359 30.9954C5.93461 25.9042 7.36523 20.916 10.062 16.6007C12.7587 12.2854 16.6129 8.81698 21.1841 6.59176C25.7552 4.36655 30.8591 3.47428 35.9124 4.0169C40.9658 4.55951 45.7649 6.51513 49.7614 9.66032C54.4369 13.3518 57.7764 18.4761 59.2688 24.2491C59.4181 24.8366 59.4362 25.4498 59.3216 26.045C59.207 26.6403 58.9627 27.2028 58.606 27.6925C58.2493 28.1823 57.7891 28.5871 57.2583 28.878C56.7274 29.169 56.1389 29.339 55.5349 29.3759L44.177 30.0735C43.9711 30.0855 43.7631 30.0924 43.5572 30.0924C38.9806 30.0924 35.0178 27.0328 33.9195 22.6515C33.8946 22.5519 33.8717 22.4522 33.8498 22.3595C33.3742 24.4682 32.3117 26.3986 30.7855 27.9271C29.2594 29.4555 27.332 30.5194 25.2269 30.9954C27.3334 31.4713 29.2621 32.5356 30.7892 34.065C32.3163 35.5944 33.3793 37.5262 33.8548 39.6363C33.8767 39.5366 33.8996 39.4369 33.9244 39.3442C35.0188 34.959 38.9865 31.9033 43.5621 31.9033C43.7681 31.9033 43.976 31.9103 44.182 31.9223L55.5399 32.6199C56.145 32.6573 56.7343 32.8282 57.2658 33.1203C57.7973 33.4124 58.2577 33.8186 58.6142 34.3098C58.9707 34.801 59.2144 35.3651 59.3279 35.9616C59.4414 36.5582 59.4219 37.1725 59.2708 37.7606C57.775 43.5939 54.3836 48.7625 49.6313 52.4517C44.8791 56.1409 39.0363 58.1407 33.024 58.1359H32.9375Z" fill="#594842"/>
<path d="M32.8271 58.0414C25.5871 58.0195 18.7989 55.191 13.7119 50.0783C8.6249 44.9655 5.82322 38.1564 5.82422 30.9049C5.82463 25.8136 7.25478 20.8251 9.95127 16.5094C12.6478 12.1937 16.5018 8.72492 21.073 6.49943C25.6442 4.27394 30.7482 3.3815 35.8017 3.92409C40.8553 4.46668 45.6545 6.42242 49.6511 9.56782C54.3263 13.2597 57.666 18.3838 59.1594 24.1566C59.309 24.7441 59.3271 25.3574 59.2126 25.9527C59.0981 26.548 58.8538 27.1106 58.4971 27.6004C58.1404 28.0901 57.6801 28.4949 57.1491 28.7859C56.6182 29.0768 56.0296 29.2467 55.4255 29.2834L44.0666 29.981C43.8617 29.994 43.6527 29.9999 43.4478 29.9999C38.8712 29.9999 34.9075 26.9412 33.8091 22.56C33.7852 22.4604 33.7613 22.3607 33.7394 22.267C33.2642 24.3759 32.202 26.3067 30.676 27.8355C29.15 29.3643 27.2227 30.4286 25.1175 30.9049C27.2227 31.3812 29.15 32.4455 30.676 33.9743C32.202 35.5031 33.2642 37.4339 33.7394 39.5428C33.7613 39.4431 33.7842 39.3434 33.8091 39.2498C34.9035 34.8695 38.8712 31.8098 43.4468 31.8098C43.6527 31.8098 43.8607 31.8158 44.0666 31.8288L55.4255 32.5264C56.0311 32.5639 56.6209 32.7351 57.1527 33.0277C57.6845 33.3203 58.1451 33.7271 58.5016 34.219C58.858 34.7108 59.1015 35.2755 59.2146 35.8727C59.3276 36.4698 59.3074 37.0846 59.1555 37.6731C57.6591 43.5046 54.2681 48.6715 49.5168 52.3593C44.7656 56.0471 38.9243 58.0462 32.9137 58.0414H32.8271Z" fill="#594842"/>
<path d="M32.7165 57.9478C25.4775 57.9249 18.6883 55.0964 13.6013 49.9846C8.5143 44.8729 5.71362 38.0628 5.71362 30.8103C5.7131 25.7185 7.14258 20.7294 9.8387 16.4129C12.5348 12.0965 16.3888 8.62701 20.9602 6.40091C25.5316 4.17482 30.6359 3.28195 35.6899 3.82435C40.7439 4.36676 45.5436 6.32255 49.5405 9.46821C54.2165 13.1593 57.5564 18.2837 59.0488 24.057C59.1982 24.6445 59.2162 25.2577 59.1016 25.8529C58.987 26.4482 58.7427 27.0107 58.386 27.5004C58.0294 27.9902 57.5692 28.395 57.0383 28.6859C56.5074 28.9769 55.919 29.1469 55.3149 29.1837L43.956 29.8814C43.7511 29.8934 43.5431 29.9003 43.3372 29.9003C38.7606 29.9003 34.7979 26.8406 33.6985 22.4594C33.6746 22.3598 33.6517 22.2651 33.6298 22.1674C33.154 24.2761 32.0915 26.2066 30.5654 27.7352C29.0393 29.2637 27.112 30.3279 25.0069 30.8043C27.1122 31.2808 29.0395 32.345 30.5656 33.8738C32.0918 35.4026 33.1542 37.3333 33.6298 39.4422C33.6517 39.3425 33.6746 39.2428 33.6985 39.1502C34.7979 34.7649 38.7606 31.7092 43.3372 31.7092C43.5421 31.7092 43.7511 31.7162 43.956 31.7282L55.3149 32.4258C55.9208 32.463 56.5109 32.634 57.043 32.9265C57.5751 33.2191 58.036 33.626 58.3926 34.118C58.7492 34.61 58.9927 35.175 59.1057 35.7724C59.2186 36.3698 59.1982 36.9849 59.0458 37.5735C57.5501 43.4057 54.1593 48.5736 49.4081 52.2625C44.6569 55.9514 38.8153 57.9515 32.8041 57.9478H32.7165Z" fill="#594842"/>
<path d="M32.6072 57.8529C25.3673 57.831 18.579 55.0025 13.492 49.8897C8.40502 44.777 5.59937 37.9719 5.59937 30.7164C5.59905 25.6242 7.02894 20.6346 9.7256 16.318C12.4223 12.0014 16.2769 8.53192 20.8489 6.30608C25.4209 4.08024 30.5259 3.18788 35.5802 3.73098C40.6346 4.27408 45.4344 6.23074 49.4312 9.37732C54.1065 13.069 57.4458 18.1932 58.9386 23.9661C59.0881 24.5536 59.1062 25.1669 58.9917 25.7622C58.8772 26.3575 58.6329 26.9201 58.2762 27.4099C57.9195 27.8996 57.4592 28.3044 56.9283 28.5954C56.3973 28.8863 55.8088 29.0562 55.2047 29.0929L43.8467 29.7905C43.6408 29.8035 43.4329 29.8094 43.2269 29.8094C38.6503 29.8094 34.6876 26.7507 33.5892 22.3695C33.5643 22.2699 33.5415 22.1752 33.5196 22.0765C33.0449 24.1854 31.9833 26.1163 30.4578 27.6455C28.9324 29.1746 27.0055 30.2394 24.9006 30.7164C27.006 31.1925 28.9335 32.2567 30.4597 33.7855C31.9859 35.3144 33.0482 37.2452 33.5235 39.3543C33.5454 39.2546 33.5683 39.1549 33.5932 39.0612C34.6876 34.681 38.6553 31.6213 43.2309 31.6213C43.4368 31.6213 43.6448 31.6273 43.8507 31.6403L55.2086 32.3379C55.8137 32.3755 56.4029 32.5464 56.9343 32.8386C57.4657 33.1308 57.9261 33.537 58.2825 34.0282C58.639 34.5193 58.8827 35.0833 58.9963 35.6798C59.1099 36.2762 59.0905 36.8905 58.9396 37.4786C57.4441 43.3118 54.0529 48.4804 49.3007 52.1694C44.5486 55.8585 38.7058 57.8581 32.6938 57.8529H32.6072Z" fill="#594842"/>
<path d="M32.4968 57.7592C25.2568 57.7363 18.4685 54.9078 13.3816 49.7961C8.29457 44.6843 5.4939 37.8723 5.4939 30.6217C5.49412 25.5303 6.92414 20.5417 9.62055 16.2258C12.317 11.91 16.171 8.44108 20.7422 6.21547C25.3135 3.98986 30.4175 3.09733 35.4712 3.63989C40.5248 4.18244 45.3241 6.13819 49.3207 9.28364C53.9955 12.9756 57.3345 18.0997 58.8271 23.8725C58.9769 24.4599 58.9954 25.0733 58.8812 25.6688C58.767 26.2643 58.5229 26.8271 58.1664 27.3172C57.8099 27.8072 57.3497 28.2123 56.8188 28.5036C56.2879 28.7949 55.6994 28.9651 55.0952 29.0022L43.7363 29.6998C43.5313 29.7118 43.3224 29.7187 43.1175 29.7187C38.5409 29.7187 34.5771 26.6591 33.4788 22.2778C33.4549 22.1782 33.431 22.0785 33.4091 21.9858C32.9337 24.0945 31.8715 26.0251 30.3455 27.5537C28.8195 29.0824 26.8923 30.1465 24.7872 30.6227C26.8922 31.0993 28.8194 32.1637 30.3453 33.6925C31.8713 35.2212 32.9335 37.1518 33.4091 39.2606C33.431 39.1609 33.4549 39.0613 33.4788 38.9686C34.5732 34.5833 38.5409 31.5276 43.1165 31.5276C43.3224 31.5276 43.5313 31.5336 43.7363 31.5466L55.0952 32.2442C55.7005 32.2814 56.2901 32.4522 56.8218 32.7444C57.3534 33.0365 57.8141 33.4428 58.1707 33.9341C58.5273 34.4254 58.7711 34.9897 58.8846 35.5864C58.9981 36.1831 58.9784 36.7976 58.8271 37.3859C57.3314 43.2185 53.9403 48.3865 49.1887 52.0753C44.437 55.7641 38.5949 57.7638 32.5833 57.7592H32.4968Z" fill="#594842"/>
<path d="M32.3862 57.6652C25.1472 57.6423 18.3579 54.8148 13.272 49.702C8.18597 44.5893 5.3833 37.7802 5.3833 30.5287C5.38357 25.4372 6.81365 20.4485 9.51011 16.1325C12.2066 11.8166 16.0607 8.34763 20.632 6.12193C25.2033 3.89624 30.3074 3.00362 35.3612 3.54609C40.4149 4.08855 45.2144 6.04422 49.2111 9.18961C53.8864 12.8813 57.2258 18.0055 58.7185 23.7784C58.8677 24.3658 58.8856 24.9788 58.7709 25.5739C58.6563 26.1689 58.4119 26.7313 58.0552 27.2208C57.6985 27.7104 57.2384 28.115 56.7076 28.4058C56.1768 28.6966 55.5885 28.8664 54.9846 28.9032L43.6257 29.6008C43.4208 29.6138 43.2128 29.6197 43.0069 29.6197C38.4303 29.6197 34.4675 26.5611 33.3682 22.1798C33.3443 22.0828 33.3214 21.9851 33.2995 21.8868C32.8241 23.9958 31.7617 25.9266 30.2356 27.4554C28.7094 28.9842 26.7819 30.0484 24.6766 30.5247C26.7828 31.0013 28.7108 32.0664 30.2371 33.5963C31.7633 35.1263 32.8252 37.0584 33.2995 39.1685C33.3214 39.0695 33.3443 38.9719 33.3682 38.8755C34.4675 34.4903 38.4303 31.4356 43.0069 31.4356C43.2118 31.4356 43.4208 31.4416 43.6257 31.4546L54.9846 32.1522C55.5896 32.1897 56.1789 32.3607 56.7103 32.6529C57.2417 32.9451 57.702 33.3513 58.0585 33.8424C58.4149 34.3336 58.6587 34.8976 58.7723 35.494C58.8858 36.0905 58.8665 36.7048 58.7155 37.2929C57.2198 43.125 53.8291 48.2927 49.0778 51.9813C44.3265 55.6699 38.4848 57.6696 32.4737 57.6652H32.3862Z" fill="#594842"/>
<path d="M32.2768 57.5714C25.0369 57.5485 18.2486 54.7201 13.1616 49.6083C8.07462 44.4965 5.27295 37.6865 5.27295 30.4339C5.27341 25.3425 6.70362 20.3539 9.40016 16.0382C12.0967 11.7224 15.9508 8.25354 20.5221 6.02797C25.0934 3.80239 30.1974 2.90986 35.2511 3.45236C40.3047 3.99487 45.1041 5.95052 49.1008 9.09587C53.7763 12.7875 57.116 17.9117 58.6092 23.6847C58.7581 24.2721 58.7759 24.8852 58.6611 25.4803C58.5464 26.0754 58.302 26.6378 57.9454 27.1274C57.5888 27.617 57.1288 28.0218 56.5981 28.3129C56.0674 28.604 55.4792 28.7742 54.8753 28.8114L43.5164 29.509C43.3114 29.521 43.1025 29.528 42.8965 29.528C38.3199 29.528 34.3572 26.4683 33.2588 22.0871C33.2339 21.9874 33.2111 21.8927 33.1892 21.7951C32.7137 23.9039 31.6513 25.8345 30.1251 27.3632C28.5989 28.8918 26.6715 29.9559 24.5663 30.4319C26.6714 30.9083 28.5986 31.9725 30.1247 33.5011C31.6508 35.0297 32.7134 36.9601 33.1892 39.0688C33.2111 38.9692 33.2339 38.8695 33.2588 38.7768C34.3532 34.3916 38.3209 31.3359 42.8965 31.3359C43.1025 31.3359 43.3104 31.3419 43.5164 31.3548L54.8743 32.0525C55.4794 32.0898 56.0687 32.2607 56.6002 32.5529C57.1317 32.845 57.5921 33.2512 57.9486 33.7424C58.3051 34.2336 58.5488 34.7976 58.6623 35.3942C58.7758 35.9907 58.7563 36.605 58.6052 37.1931C57.1104 43.0265 53.7199 48.1955 48.9684 51.8853C44.2168 55.575 38.3744 57.5755 32.3624 57.5714H32.2768Z" fill="#594842"/>
<path d="M32.1635 57.476C24.9245 57.4531 18.1352 54.6256 13.0482 49.5129C7.96126 44.4001 5.16357 37.591 5.16357 30.3395C5.16361 25.248 6.5935 20.2592 9.28983 15.9433C11.9862 11.6273 15.8402 8.15822 20.4115 5.93249C24.9827 3.70675 30.0869 2.81414 35.1406 3.35666C40.1943 3.89917 44.9937 5.85493 48.9904 9.00043C53.6657 12.6923 57.0053 17.8164 58.4988 23.5892C58.6483 24.1767 58.6665 24.79 58.552 25.3853C58.4375 25.9806 58.1931 26.5432 57.8364 27.033C57.4797 27.5228 57.0194 27.9276 56.4885 28.2185C55.9575 28.5094 55.369 28.6793 54.7649 28.716L43.406 29.4136C43.201 29.4266 42.9931 29.4326 42.7871 29.4326C38.2105 29.4326 34.2478 26.3739 33.1484 21.9926C33.1246 21.893 33.1007 21.7983 33.0788 21.6996C32.6036 23.8085 31.5414 25.7393 30.0154 27.2681C28.4894 28.7969 26.5621 29.8612 24.4569 30.3375C26.5621 30.8138 28.4894 31.8781 30.0154 33.4069C31.5414 34.9357 32.6036 36.8665 33.0788 38.9754C33.1007 38.8757 33.1246 38.7761 33.1484 38.6824C34.2428 34.3021 38.2105 31.2424 42.7861 31.2424C42.9921 31.2424 43.201 31.2484 43.406 31.2614L54.7649 31.959C55.3699 31.9965 55.9591 32.1675 56.4905 32.4597C57.0218 32.7519 57.4822 33.1581 57.8385 33.6493C58.1949 34.1405 58.4386 34.7045 58.552 35.301C58.6654 35.8974 58.6459 36.5117 58.4948 37.0997C57.0002 42.9326 53.61 48.1012 48.8588 51.7906C44.1075 55.48 38.2656 57.4803 32.254 57.476H32.1635Z" fill="#594842"/>
<path d="M32.0559 57.3826C24.8169 57.3597 18.0276 54.5312 12.9416 49.4194C7.85564 44.3077 5.05298 37.4976 5.05298 30.2451C5.05388 25.1542 6.48422 20.1662 9.18061 15.851C11.877 11.5357 15.7307 8.06723 20.3014 5.84176C24.8722 3.61629 29.9757 2.72357 35.0288 3.2656C40.082 3.80763 44.8811 5.76254 48.8778 8.90699C53.5533 12.5985 56.8927 17.7228 58.3852 23.4958C58.5345 24.0833 58.5525 24.6965 58.438 25.2917C58.3234 25.887 58.0791 26.4495 57.7224 26.9392C57.3657 27.4289 56.9055 27.8337 56.3746 28.1247C55.8438 28.4157 55.2553 28.5857 54.6513 28.6225L43.2934 29.3202C43.0874 29.3321 42.8795 29.3391 42.6736 29.3391C38.097 29.3391 34.1342 26.2794 33.0349 21.8982C33.011 21.7985 32.9881 21.6989 32.9662 21.6062C32.4907 23.715 31.4283 25.6457 29.9021 27.1743C28.376 28.703 26.4485 29.767 24.3433 30.2431C26.4485 30.7195 28.3759 31.7838 29.902 33.3126C31.4281 34.8414 32.4906 36.7721 32.9662 38.8809C32.9881 38.7813 33.011 38.6816 33.0349 38.5889C34.1293 34.2037 38.097 31.148 42.6736 31.148C42.8785 31.148 43.0874 31.154 43.2934 31.167L54.6513 31.8646C55.2564 31.902 55.8457 32.0728 56.3772 32.365C56.9087 32.6571 57.3691 33.0633 57.7256 33.5545C58.0821 34.0457 58.3258 34.6098 58.4393 35.2063C58.5529 35.8029 58.5333 36.4172 58.3822 37.0053C56.8871 42.8376 53.4971 48.0057 48.7464 51.6952C43.9957 55.3846 38.1545 57.3855 32.1434 57.3826H32.0559Z" fill="#594842"/>
<path d="M31.9465 57.2883C24.7065 57.2653 17.9183 54.4379 12.8313 49.3251C7.7443 44.2123 4.94263 37.4033 4.94263 30.1517C4.9429 25.0602 6.37297 20.0715 9.06944 15.7556C11.7659 11.4397 15.62 7.97068 20.1913 5.74498C24.7626 3.51928 29.8668 2.62667 34.9205 3.16914C39.9742 3.7116 44.7737 5.66727 48.7705 8.81266C53.4457 12.5045 56.7854 17.6286 58.2788 23.4015C58.4279 23.9886 58.4459 24.6015 58.3315 25.1964C58.2171 25.7912 57.9731 26.3535 57.6169 26.8431C57.2607 27.3327 56.801 27.7376 56.2707 28.0288C55.7404 28.3201 55.1525 28.4906 54.5489 28.5282L43.19 29.2259C42.9851 29.2388 42.7761 29.2448 42.5702 29.2448C37.9936 29.2448 34.0309 26.1861 32.9325 21.8049C32.9076 21.7052 32.8847 21.6055 32.8628 21.5119C32.3876 23.6207 31.3254 25.5515 29.7994 27.0803C28.2734 28.6092 26.3461 29.6734 24.2409 30.1497C26.3458 30.6267 28.2727 31.6915 29.7981 33.2206C31.3236 34.7498 32.3852 36.6807 32.8598 38.7896C32.8817 38.6899 32.9046 38.5903 32.9295 38.4966C34.0239 34.1164 37.9916 31.0567 42.5672 31.0567C42.7731 31.0567 42.9811 31.0627 43.187 31.0756L54.5459 31.7733C55.1509 31.8108 55.7402 31.9817 56.2715 32.274C56.8029 32.5662 57.2632 32.9724 57.6196 33.4635C57.976 33.9547 58.2196 34.5187 58.3331 35.1152C58.4465 35.7117 58.427 36.3259 58.2759 36.9139C56.7806 42.7467 53.3899 47.9151 48.6384 51.6041C43.8868 55.2931 38.0447 57.2929 32.0331 57.2883H31.9465Z" fill="#594842"/>
<path d="M31.8361 57.1948C24.5972 57.1718 17.8079 54.3434 12.7209 49.2316C7.63393 44.1198 4.83325 37.3098 4.83325 30.0572C4.83347 24.9659 6.2635 19.9772 8.95991 15.6614C11.6563 11.3456 15.5104 7.87663 20.0816 5.65102C24.6528 3.42541 29.7569 2.53288 34.8105 3.07543C39.8642 3.61799 44.6635 5.57373 48.6601 8.71918C53.3356 12.4109 56.6753 17.535 58.1685 23.308C58.3178 23.8955 58.3358 24.5087 58.2212 25.1039C58.1067 25.6991 57.8623 26.2617 57.5057 26.7514C57.149 27.2411 56.6888 27.6459 56.1579 27.9369C55.627 28.2279 55.0386 28.3979 54.4346 28.4347L43.0757 29.1324C42.8707 29.1443 42.6628 29.1513 42.4568 29.1513C37.8802 29.1513 33.9175 26.0916 32.8181 21.7104C32.7942 21.6107 32.7714 21.516 32.7495 21.4184C32.2737 23.5271 31.2111 25.4575 29.685 26.9861C28.1589 28.5147 26.2317 29.5789 24.1266 30.0553C26.2317 30.5318 28.159 31.5962 29.6851 33.1249C31.2112 34.6537 32.2737 36.5843 32.7495 38.6931C32.7714 38.5935 32.7942 38.4938 32.8181 38.4011C33.9175 34.0159 37.8802 30.9602 42.4568 30.9602C42.6618 30.9602 42.8707 30.9662 43.0757 30.9791L54.4346 31.6768C55.0396 31.7143 55.6288 31.8853 56.1602 32.1775C56.6915 32.4697 57.1518 32.8759 57.5082 33.3671C57.8646 33.8582 58.1082 34.4222 58.2217 35.0187C58.3351 35.6152 58.3156 36.2294 58.1645 36.8175C56.6696 42.6503 53.2794 47.8189 48.5282 51.5084C43.7771 55.1979 37.9352 57.1985 31.9237 57.1948H31.8361Z" fill="#594842"/>
<path d="M31.7265 57.0998C24.4866 57.0769 17.6983 54.2494 12.6113 49.1366C7.52433 44.0239 4.72266 37.2148 4.72266 29.9633C4.72293 24.8718 6.153 19.883 8.84947 15.5671C11.5459 11.2512 15.4 7.7822 19.9713 5.5565C24.5426 3.33081 29.6468 2.43819 34.7005 2.98066C39.7542 3.52313 44.5537 5.47879 48.5505 8.62419C53.2258 12.3159 56.5652 17.4401 58.0579 23.213C58.2074 23.8005 58.2255 24.4138 58.111 25.0091C57.9965 25.6044 57.7522 26.167 57.3955 26.6568C57.0388 27.1465 56.5785 27.5513 56.0476 27.8422C55.5166 28.1332 54.9281 28.303 54.324 28.3397L42.9661 29.0374C42.7601 29.0503 42.5522 29.0563 42.3462 29.0563C37.7696 29.0563 33.8069 25.9976 32.7085 21.6164C32.6836 21.5167 32.6608 21.422 32.6389 21.3234C32.1636 23.4324 31.1012 25.3633 29.575 26.8921C28.0489 28.4209 26.1213 29.4851 24.016 29.9613C26.1213 30.4374 28.0489 31.5016 29.575 33.0304C31.1012 34.5593 32.1636 36.4901 32.6389 38.5991C32.6608 38.4995 32.6836 38.3998 32.7085 38.3061C33.8029 33.9259 37.7706 30.8652 42.3462 30.8652C42.5522 30.8652 42.7601 30.8722 42.9661 30.8851L54.324 31.5828C54.9291 31.6202 55.5184 31.791 56.0499 32.0832C56.5814 32.3753 57.0418 32.7815 57.3983 33.2727C57.7548 33.7639 57.9985 34.3279 58.112 34.9245C58.2255 35.521 58.206 36.1353 58.0549 36.7235C56.5599 42.5564 53.1695 47.7249 48.4181 51.4143C43.6668 55.1037 37.8247 57.1039 31.8131 57.0998H31.7265Z" fill="#594842"/>
<path d="M31.6162 57.0083C24.3762 56.9854 17.5879 54.1569 12.5009 49.0451C7.41396 43.9334 4.61229 37.1213 4.61328 29.8688C4.6135 24.7774 6.04352 19.7887 8.73994 15.4729C11.4363 11.1571 15.2904 7.68815 19.8616 5.46254C24.4329 3.23693 29.5369 2.34441 34.5906 2.88696C39.6442 3.42951 44.4435 5.38526 48.4401 8.53071C53.1161 12.2232 56.4559 17.3484 57.9485 23.1225C58.0978 23.71 58.1158 24.3232 58.0013 24.9184C57.8867 25.5137 57.6423 26.0762 57.2857 26.5659C56.929 27.0556 56.4688 27.4604 55.9379 27.7514C55.4071 28.0424 54.8186 28.2124 54.2146 28.2492L42.8557 28.9469C42.6507 28.9588 42.4418 28.9658 42.2368 28.9658C37.6603 28.9658 33.6965 25.9061 32.5981 21.5249C32.5733 21.4252 32.5504 21.3256 32.5285 21.2329C32.0529 23.3415 30.9904 25.272 29.4642 26.8004C27.938 28.3289 26.0107 29.3928 23.9056 29.8688C26.0106 30.3454 27.9378 31.4098 29.4637 32.9385C30.9896 34.4673 32.0519 36.3979 32.5275 38.5066C32.5494 38.407 32.5723 38.3073 32.5971 38.2146C33.6916 33.8294 37.6593 30.7737 42.2349 30.7737C42.4408 30.7737 42.6487 30.7797 42.8547 30.7927L54.2136 31.4903C54.8186 31.5278 55.4078 31.6988 55.9392 31.991C56.4705 32.2832 56.9309 32.6894 57.2873 33.1806C57.6436 33.6718 57.8873 34.2358 58.0007 34.8322C58.1142 35.4287 58.0946 36.0429 57.9435 36.631C56.4486 42.4638 53.0584 47.6324 48.3072 51.3219C43.5561 55.0114 37.7143 57.012 31.7027 57.0083H31.6162Z" fill="#594842"/>
<path d="M31.5058 56.908C24.2668 56.8851 17.4775 54.0576 12.3906 48.9448C7.30357 43.8321 4.50488 37.026 4.50488 29.7745C4.50521 24.6833 5.93519 19.695 8.63143 15.3793C11.3277 11.0637 15.1814 7.59488 19.7523 5.36922C24.3233 3.14356 29.427 2.25082 34.4804 2.79302C39.5338 3.33522 44.333 5.29048 48.3297 8.43539C53.005 12.1265 56.3447 17.2499 57.8381 23.0222C57.9876 23.6097 58.0058 24.223 57.8913 24.8183C57.7768 25.4136 57.5324 25.9762 57.1757 26.466C56.819 26.9557 56.3588 27.3605 55.8278 27.6515C55.2968 27.9424 54.7083 28.1123 54.1042 28.1489L42.7453 28.8466C42.5403 28.8595 42.3324 28.8655 42.1265 28.8655C37.5499 28.8655 33.5871 25.8068 32.4878 21.4256C32.4639 21.3286 32.441 21.2309 32.4191 21.1326C31.9435 23.2415 30.881 25.1721 29.3549 26.7009C27.8288 28.2297 25.9014 29.294 23.7962 29.7705C25.9015 30.2467 27.829 31.3109 29.3551 32.8398C30.8813 34.3686 31.9437 36.2994 32.4191 38.4084C32.441 38.3094 32.4639 38.2117 32.4878 38.1153C33.5871 33.7301 37.5499 30.6744 42.1265 30.6744C42.3314 30.6744 42.5403 30.6814 42.7453 30.6944L54.1042 31.392C54.7096 31.4296 55.2991 31.6009 55.8307 31.8935C56.3623 32.1861 56.8227 32.5929 57.1789 33.0846C57.5352 33.5764 57.7785 34.1409 57.8914 34.7379C58.0043 35.3349 57.9841 35.9494 57.8321 36.5377C56.3365 42.3691 52.9461 47.5362 48.1954 51.2244C43.4446 54.9126 37.6037 56.9122 31.5933 56.908H31.5058Z" fill="#594842"/>
<path d="M31.3962 56.8175C24.1562 56.7946 17.368 53.9662 12.281 48.8544C7.194 43.7426 4.39233 36.9326 4.39233 29.68C4.39279 24.5886 5.823 19.6 8.51954 15.2843C11.2161 10.9685 15.0702 7.49964 19.6415 5.27406C24.2127 3.04848 29.3168 2.15595 34.3704 2.69846C39.4241 3.24096 44.2235 5.19662 48.2202 8.34196C52.8975 12.0327 56.2387 17.1571 57.7325 22.9308C57.8818 23.5182 57.8999 24.1315 57.7853 24.7267C57.6707 25.3219 57.4264 25.8845 57.0697 26.3742C56.713 26.8639 56.2528 27.2687 55.722 27.5597C55.1911 27.8507 54.6026 28.0206 53.9986 28.0575L42.6407 28.7551C42.4348 28.7671 42.2268 28.7741 42.0209 28.7741C37.4443 28.7741 33.4816 25.7144 32.3832 21.3332C32.3583 21.2335 32.3354 21.1388 32.3135 21.0411C31.838 23.15 30.7756 25.0806 29.2495 26.6093C27.7233 28.1379 25.7959 29.202 23.6906 29.678C25.7958 30.1545 27.7232 31.2188 29.2493 32.7476C30.7754 34.2764 31.8379 36.2071 32.3135 38.3159C32.3354 38.2163 32.3583 38.1166 32.3832 38.0229C33.4776 33.6427 37.4453 30.583 42.0209 30.583C42.2268 30.583 42.4348 30.589 42.6407 30.6019L53.9986 31.2996C54.6037 31.3369 55.1931 31.5078 55.7245 31.8C56.256 32.0921 56.7165 32.4983 57.073 32.9895C57.4294 33.4807 57.6732 34.0447 57.7867 34.6413C57.9002 35.2378 57.8807 35.8521 57.7295 36.4402C56.2342 42.274 52.8431 47.4432 48.0907 51.1328C43.3384 54.8224 37.4953 56.8224 31.4828 56.8175H31.3962Z" fill="#594842"/>
<path d="M31.2859 56.7231C24.0459 56.7002 17.2576 53.8727 12.1706 48.7599C7.08363 43.6472 4.28296 36.8381 4.28296 29.5866C4.28299 24.4951 5.71288 19.5063 8.40922 15.1903C11.1056 10.8744 14.9596 7.40529 19.5309 5.17956C24.1021 2.95382 29.2063 2.06121 34.26 2.60373C39.3137 3.14624 44.1131 5.102 48.1098 8.2475C52.7851 11.9394 56.1247 17.0635 57.6182 22.8363C57.7677 23.4238 57.7858 24.0371 57.6713 24.6324C57.5568 25.2277 57.3125 25.7903 56.9558 26.2801C56.5991 26.7698 56.1388 27.1746 55.6079 27.4656C55.0769 27.7565 54.4884 27.9264 53.8843 27.963L42.5254 28.6607C42.3204 28.6736 42.1115 28.6796 41.9065 28.6796C37.3299 28.6796 33.3662 25.6209 32.2678 21.2387C32.2439 21.139 32.2201 21.0454 32.1982 20.9467C31.7229 23.0556 30.6608 24.9864 29.1348 26.5152C27.6088 28.044 25.6815 29.1083 23.5763 29.5846C25.6815 30.0609 27.6088 31.1251 29.1348 32.654C30.6608 34.1828 31.7229 36.1136 32.1982 38.2225C32.2201 38.1228 32.2439 38.0231 32.2678 37.9294C33.3622 33.5442 37.3299 30.4885 41.9055 30.4885C42.1115 30.4885 42.3204 30.4955 42.5254 30.5085L53.8843 31.2061C54.4893 31.2436 55.0785 31.4146 55.6099 31.7068C56.1412 31.999 56.6016 32.4052 56.9579 32.8964C57.3143 33.3876 57.5579 33.9516 57.6714 34.548C57.7848 35.1445 57.7653 35.7587 57.6142 36.3468C56.1194 42.1798 52.729 47.3484 47.9776 51.0378C43.2262 54.7272 37.3841 56.7274 31.3724 56.7231H31.2859Z" fill="#594842"/>
<path d="M31.1755 56.629C23.9365 56.6061 17.1472 53.7776 12.0613 48.6659C6.97527 43.5541 4.17261 36.744 4.17261 29.4915C4.17326 24.4002 5.60357 19.4117 8.30011 15.096C10.9967 10.7803 14.8507 7.31153 19.4218 5.0859C23.993 2.86027 29.097 1.96759 34.1505 2.50985C39.2041 3.05211 44.0036 5.00744 48.0004 8.15243C52.6758 11.8445 56.0152 16.969 57.5078 22.7422C57.6571 23.3297 57.6752 23.9429 57.5606 24.5382C57.446 25.1334 57.2017 25.6959 56.845 26.1857C56.4883 26.6754 56.0281 27.0802 55.4973 27.3711C54.9664 27.6621 54.3779 27.8321 53.7739 27.869L42.415 28.5666C42.2101 28.5786 42.0021 28.5855 41.7962 28.5855C37.2196 28.5855 33.2569 25.5259 32.1575 21.1446C32.1336 21.045 32.1107 20.9453 32.0888 20.8526C31.6131 22.9614 30.5506 24.8919 29.0245 26.4205C27.4984 27.9491 25.5711 29.0132 23.4659 29.4895C25.5711 29.966 27.4985 31.0303 29.0246 32.559C30.5507 34.0878 31.6132 36.0185 32.0888 38.1274C32.1107 38.0297 32.1336 37.932 32.1575 37.8344C33.2578 33.4561 37.2196 30.3974 41.7962 30.3974C42.0011 30.3974 42.2101 30.4034 42.415 30.4164L53.7739 31.114C54.379 31.1514 54.9684 31.3223 55.4998 31.6144C56.0313 31.9065 56.4918 32.3127 56.8483 32.8039C57.2047 33.2951 57.4485 33.8592 57.562 34.4557C57.6755 35.0523 57.656 35.6666 57.5048 36.2547C56.0093 42.0861 52.6193 47.2534 47.8691 50.9422C43.1188 54.631 37.2784 56.6317 31.268 56.629H31.1755Z" fill="#594842"/>
<path d="M31.0691 56.5343C23.8292 56.5114 17.0409 53.684 11.9539 48.5712C6.86691 43.4584 4.06226 36.6494 4.06226 29.4008C4.06197 24.3091 5.49164 19.3199 8.18788 15.0036C10.8841 10.6872 14.7382 7.21779 19.3096 4.99173C23.881 2.76567 28.9854 1.87279 34.0394 2.41515C39.0934 2.9575 43.8931 4.91321 47.8901 8.05876C52.5654 11.7504 55.9048 16.8746 57.3975 22.6476C57.547 23.235 57.5652 23.8482 57.4507 24.4434C57.3363 25.0386 57.092 25.6012 56.7354 26.091C56.3788 26.5807 55.9187 26.9855 55.3879 27.2765C54.857 27.5675 54.2686 27.7375 53.6646 27.7743L42.3057 28.4719C42.1007 28.4849 41.8918 28.4909 41.6858 28.4909C37.1092 28.4909 33.1465 25.4322 32.0481 21.05C32.0233 20.9503 32.0004 20.8566 31.9785 20.7579C31.504 22.8679 30.442 24.7998 28.9158 26.3296C27.3895 27.8594 25.4616 28.9243 23.3556 29.4008C25.4609 29.877 27.3885 30.9411 28.9146 32.47C30.4408 33.9988 31.5032 35.9297 31.9785 38.0387C32.0004 37.939 32.0233 37.8394 32.0481 37.7457C33.1425 33.3605 37.1102 30.3048 41.6858 30.3048C41.8918 30.3048 42.0997 30.3117 42.3057 30.3247L53.6636 31.0223C54.2687 31.0597 54.858 31.2306 55.3895 31.5227C55.921 31.8149 56.3814 32.2211 56.7379 32.7123C57.0944 33.2035 57.3381 33.7675 57.4516 34.3641C57.5651 34.9606 57.5456 35.5749 57.3945 36.163C55.8988 41.9951 52.508 47.1626 47.7566 50.851C43.0053 54.5395 37.1637 56.539 31.1527 56.5343H31.0691Z" fill="#594842"/>
<path d="M30.9555 56.441C23.7165 56.4181 16.9273 53.5896 11.8403 48.4779C6.75331 43.3661 3.95264 36.556 3.95264 29.3015C3.95284 24.2097 5.38305 19.2206 8.07981 14.9044C10.7766 10.5883 14.6311 7.1192 19.2029 4.89364C23.7746 2.66808 28.8792 1.77582 33.9332 2.31884C38.9873 2.86186 43.7868 4.81825 47.7835 7.96443C52.4572 11.6573 55.7954 16.7816 57.2878 22.5542C57.4372 23.1417 57.4552 23.7549 57.3406 24.3502C57.226 24.9454 56.9817 25.5079 56.625 25.9977C56.2684 26.4874 55.8082 26.8922 55.2773 27.1831C54.7464 27.4741 54.158 27.6441 53.5539 27.681L42.195 28.3786C41.9901 28.3906 41.7812 28.3975 41.5762 28.3975C36.9996 28.3975 33.0369 25.3379 31.9375 20.9566C31.9136 20.857 31.8897 20.7623 31.8679 20.6646C31.3925 22.7733 30.3302 24.7039 28.8042 26.2325C27.2782 27.7612 25.351 28.8253 23.246 29.3015C25.3507 29.7787 27.2775 30.8435 28.8029 32.3727C30.3283 33.9018 31.39 35.8326 31.8649 37.9414C31.8868 37.8417 31.9106 37.742 31.9345 37.6484C33.0289 33.2681 36.9966 30.2084 41.5722 30.2084C41.7782 30.2084 41.9871 30.2144 42.192 30.2274L53.5509 30.925C54.1559 30.9625 54.7452 31.1335 55.2766 31.4257C55.8079 31.7179 56.2682 32.1241 56.6246 32.6153C56.981 33.1065 57.2246 33.6705 57.3381 34.267C57.4515 34.8634 57.432 35.4777 57.2809 36.0657C55.7857 41.8978 52.3956 47.0657 47.6449 50.7548C42.8942 54.4439 37.053 56.4444 31.0421 56.441H30.9555Z" fill="#594842"/>
<path d="M30.8452 56.3458C23.6062 56.3229 16.8169 53.4954 11.7309 48.3826C6.64495 43.2699 3.84229 36.4608 3.84229 29.2093C3.84312 24.118 5.2736 19.1297 7.97028 14.8142C10.667 10.4988 14.5211 7.03021 19.0923 4.80487C23.6635 2.57954 28.7674 1.68718 33.8209 2.22976C38.8743 2.77234 43.6735 4.72797 47.6701 7.87321C52.3454 11.5649 55.6848 16.6891 57.1775 22.462C57.327 23.0495 57.3452 23.6628 57.2307 24.2581C57.1162 24.8534 56.8718 25.416 56.5151 25.9058C56.1584 26.3955 55.6982 26.8003 55.1672 27.0913C54.6362 27.3822 54.0477 27.5521 53.4436 27.5887L42.0857 28.2864C41.8797 28.2993 41.6718 28.3053 41.4659 28.3053C36.8893 28.3053 32.9265 25.2466 31.8271 20.8644C31.8033 20.7647 31.7804 20.6711 31.7585 20.5724C31.2831 22.6814 30.2207 24.6122 28.6945 26.141C27.1684 27.6698 25.2409 28.734 23.1356 29.2103C25.2408 29.6863 27.1683 30.7504 28.6944 32.279C30.2206 33.8077 31.283 35.7383 31.7585 37.8472C31.7804 37.7475 31.8033 37.6478 31.8271 37.5551C32.9265 33.1699 36.8893 30.1142 41.4659 30.1142C41.6708 30.1142 41.8797 30.1212 42.0857 30.1342L53.4436 30.8318C54.0487 30.8692 54.638 31.04 55.1695 31.3322C55.701 31.6243 56.1614 32.0305 56.5179 32.5217C56.8744 33.0129 57.1181 33.577 57.2316 34.1735C57.3451 34.7701 57.3256 35.3844 57.1745 35.9725C55.679 41.8048 52.2883 46.9727 47.537 50.6615C42.7857 54.3503 36.944 56.3501 30.9327 56.3458H30.8452Z" fill="#594842"/>
<path d="M30.7358 56.2521C23.4958 56.2292 16.7076 53.4007 11.6206 48.2889C6.5336 43.1772 3.73193 36.3671 3.73193 29.1146C3.73222 24.0231 5.16225 19.0343 7.85865 14.7184C10.555 10.4024 14.409 6.9333 18.9803 4.70743C23.5515 2.48156 28.6556 1.58871 33.7094 2.13089C38.7631 2.67308 43.5627 4.62843 47.5598 7.77352C52.2353 11.4656 55.575 16.5901 57.0681 22.3633C57.2171 22.9508 57.2348 23.5639 57.1201 24.159C57.0054 24.7541 56.761 25.3165 56.4044 25.8061C56.0478 26.2957 55.5878 26.7005 55.0571 26.9916C54.5264 27.2826 53.9381 27.4528 53.3342 27.49L41.9753 28.1877C41.7704 28.1997 41.5615 28.2066 41.3555 28.2066C36.7789 28.2066 32.8162 25.1469 31.7178 20.7657C31.6929 20.6661 31.67 20.5664 31.6482 20.4737C31.1727 22.5824 30.1105 24.513 28.5845 26.0416C27.0585 27.5702 25.1313 28.6344 23.0263 29.1106C25.1313 29.5871 27.0585 30.6514 28.5845 32.1802C30.1104 33.709 31.1727 35.6397 31.6482 37.7485C31.67 37.6488 31.6929 37.5491 31.7178 37.4555C32.8122 33.0752 36.7799 30.0155 41.3555 30.0155C41.5615 30.0155 41.7694 30.0215 41.9753 30.0345L53.3332 30.7321C53.939 30.7693 54.529 30.9403 55.061 31.2328C55.593 31.5253 56.0538 31.9321 56.4104 32.424C56.767 32.9159 57.0106 33.4807 57.1236 34.078C57.2366 34.6753 57.2163 35.2903 57.0642 35.8788C55.5685 41.711 52.1778 46.8788 47.4265 50.5676C42.6752 54.2563 36.8336 56.2562 30.8224 56.2521H30.7358Z" fill="#594842"/>
<path d="M30.6252 56.1577C23.3862 56.1347 16.597 53.3073 11.51 48.1945C6.42299 43.0817 3.62231 36.2777 3.62231 29.0201C3.62254 23.9287 5.05256 18.9401 7.74897 14.6243C10.4454 10.3084 14.2994 6.83952 18.8707 4.61391C23.4419 2.3883 28.546 1.49577 33.5996 2.03833C38.6532 2.58088 43.4525 4.53662 47.4492 7.68207C52.1244 11.374 55.4641 16.498 56.9575 22.2709C57.107 22.8584 57.1252 23.4716 57.0107 24.0669C56.8962 24.6623 56.6519 25.2249 56.2952 25.7146C55.9385 26.2044 55.4782 26.6092 54.9472 26.9001C54.4163 27.1911 53.8277 27.3609 53.2236 27.3976L41.8647 28.0953C41.6598 28.1082 41.4518 28.1142 41.2459 28.1142C36.6693 28.1142 32.7066 25.0555 31.6072 20.6733C31.5833 20.5736 31.5594 20.4799 31.5375 20.3813C31.0623 22.4902 30.0001 24.4209 28.4741 25.9498C26.9481 27.4786 25.0208 28.5428 22.9156 29.0191C25.0207 29.4954 26.9479 30.5595 28.4739 32.0881C29.9999 33.6168 31.0621 35.5473 31.5375 37.656C31.5594 37.5564 31.5833 37.4567 31.6072 37.364C32.7016 32.9788 36.6693 29.9231 41.2449 29.9231C41.4508 29.9231 41.6598 29.9301 41.8647 29.943L53.2236 30.6407C53.8286 30.6782 54.4179 30.8492 54.9492 31.1414C55.4806 31.4336 55.9409 31.8398 56.2973 32.331C56.6537 32.8221 56.8973 33.3861 57.0107 33.9826C57.1242 34.5791 57.1047 35.1933 56.9535 35.7813C55.4589 41.6143 52.0687 46.7829 47.3175 50.4723C42.5663 54.1617 36.7243 56.1619 30.7128 56.1577H30.6252Z" fill="#594842"/>
<path d="M30.5159 56.0642C23.2759 56.0412 16.4876 53.2128 11.4007 48.101C6.31367 42.9893 3.51001 36.1782 3.51001 28.9267C3.51037 23.835 4.94059 18.8461 7.63723 14.5301C10.3339 10.214 14.1882 6.74498 18.7597 4.51928C23.3312 2.29359 28.4355 1.40103 33.4895 1.94361C38.5434 2.48618 43.343 4.44201 47.3398 7.58759C52.0154 11.2794 55.3548 16.404 56.8472 22.1774C56.9972 22.7651 57.0158 23.3788 56.9015 23.9745C56.7873 24.5702 56.543 25.1333 56.1863 25.6235C55.8296 26.1137 55.3691 26.5189 54.8379 26.8101C54.3067 27.1013 53.7178 27.2714 53.1133 27.3081L41.7554 28.0058C41.5495 28.0177 41.3415 28.0247 41.1356 28.0247C36.559 28.0247 32.5962 24.965 31.4969 20.5838C31.473 20.4841 31.4501 20.3894 31.4282 20.2918C30.9527 22.4006 29.8903 24.3313 28.3642 25.8599C26.838 27.3885 24.9106 28.4526 22.8053 28.9286C24.9106 29.4049 26.8381 30.4691 28.3643 31.9979C29.8904 33.5268 30.9528 35.4576 31.4282 37.5665C31.4501 37.4669 31.473 37.3672 31.4979 37.2735C32.5923 32.8883 36.559 29.8336 41.1356 29.8336C41.3415 29.8336 41.5495 29.8396 41.7554 29.8525L53.1133 30.5502C53.7184 30.5876 54.3078 30.7584 54.8392 31.0506C55.3707 31.3427 55.8312 31.7489 56.1877 32.2401C56.5441 32.7313 56.7879 33.2953 56.9014 33.8919C57.0149 34.4884 56.9954 35.1027 56.8442 35.6908C55.3482 41.5229 51.9575 46.6906 47.2062 50.3792C42.455 54.0679 36.6135 56.068 30.6024 56.0642H30.5159Z" fill="#594842"/>
<path d="M30.4055 55.9692C23.1655 55.9463 16.3772 53.1188 11.2902 48.006C6.20326 42.8933 3.40159 36.0842 3.40259 28.8317C3.40281 23.7403 4.83283 18.7516 7.52924 14.4358C10.2257 10.12 14.0797 6.65104 18.6509 4.42543C23.2222 2.19982 28.3262 1.3073 33.3799 1.84985C38.4335 2.3924 43.2328 4.34815 47.2294 7.4936C51.9047 11.1855 55.2443 16.3096 56.7378 22.0824C56.8871 22.6698 56.9052 23.283 56.7906 23.8782C56.676 24.4734 56.4317 25.0358 56.075 25.5255C55.7183 26.0151 55.2581 26.4198 54.7272 26.7107C54.1963 27.0016 53.6079 27.1714 53.0039 27.2081L41.645 27.9058C41.44 27.9187 41.2311 27.9247 41.0262 27.9247C36.4496 27.9247 32.4858 24.866 31.3875 20.4838C31.3626 20.3841 31.3397 20.2905 31.3178 20.1918C30.8426 22.3007 29.7804 24.2315 28.2544 25.7603C26.7284 27.2891 24.8011 28.3534 22.6959 28.8297C24.8019 29.3064 26.7297 30.3716 28.2558 31.9015C29.7818 33.4315 30.8436 35.3635 31.3178 37.4735C31.3397 37.3739 31.3626 37.2742 31.3875 37.1815C32.4819 32.7963 36.4496 29.7406 41.0252 29.7406C41.2311 29.7406 41.439 29.7476 41.645 29.7605L53.0039 30.4582C53.6089 30.4952 54.1983 30.6657 54.7299 30.9575C55.2614 31.2493 55.7221 31.6552 56.0788 32.146C56.4356 32.6369 56.6797 33.2007 56.7936 33.7971C56.9075 34.3935 56.8885 35.0077 56.7378 35.5959C55.2423 41.429 51.851 46.5974 47.0989 50.2863C42.3467 53.9752 36.504 55.9746 30.492 55.9692H30.4055Z" fill="#594842"/>
<path d="M30.2949 55.8754C23.0559 55.8525 16.2666 53.024 11.1797 47.9122C6.09267 42.8004 3.29199 35.9904 3.29199 28.7379C3.29241 23.6465 4.72253 18.658 7.41895 14.3423C10.1154 10.0265 13.9693 6.55766 18.5405 4.332C23.1116 2.10634 28.2155 1.21366 33.2691 1.75597C38.3227 2.29828 43.1221 4.25369 47.1188 7.39879C51.7947 11.0906 55.1344 16.2152 56.6272 21.9886C56.7765 22.5761 56.7946 23.1893 56.68 23.7845C56.5654 24.3798 56.3211 24.9423 55.9644 25.432C55.6077 25.9217 55.1475 26.3265 54.6167 26.6175C54.0858 26.9085 53.4973 27.0785 52.8933 27.1153L41.5344 27.813C41.3295 27.8249 41.1215 27.8319 40.9156 27.8319C36.339 27.8319 32.3762 24.7722 31.2769 20.391C31.253 20.2913 31.2301 20.1917 31.2082 20.099C30.7324 22.2077 29.6699 24.1381 28.1438 25.6667C26.6176 27.1953 24.6904 28.2595 22.5853 28.7359C24.6905 29.2123 26.6179 30.2766 28.144 31.8054C29.6701 33.3342 30.7326 35.2649 31.2082 37.3737C31.2301 37.2761 31.253 37.1784 31.2769 37.0807C32.3762 32.7025 36.342 29.6428 40.9186 29.6428C41.1235 29.6428 41.3324 29.6488 41.5374 29.6617L52.8963 30.3594C53.5013 30.3969 54.0905 30.5679 54.6219 30.8601C55.1533 31.1523 55.6136 31.5585 55.97 32.0497C56.3264 32.5408 56.57 33.1048 56.6834 33.7013C56.7969 34.2978 56.7773 34.912 56.6262 35.5001C55.1308 41.333 51.74 46.5015 46.9883 50.1907C42.2365 53.8799 36.3942 55.8799 30.3824 55.8754H30.2949Z" fill="#594842"/>
<path d="M30.1855 55.7814C22.9456 55.7585 16.1573 52.931 11.0703 47.8183C5.98331 42.7055 3.18164 35.8964 3.18164 28.6439C3.1821 23.5525 4.61231 18.5639 7.30885 14.2481C10.0054 9.93236 13.8595 6.4635 18.4308 4.23793C23.002 2.01235 28.1061 1.11982 33.1597 1.66233C38.2134 2.20483 43.0128 4.16048 47.0095 7.30583C51.6847 10.9975 55.0241 16.1217 56.5168 21.8946C56.6664 22.4821 56.6845 23.0954 56.57 23.6907C56.4555 24.286 56.2112 24.8486 55.8545 25.3384C55.4978 25.8281 55.0375 26.233 54.5066 26.5239C53.9756 26.8148 53.387 26.9847 52.7829 27.0214L41.425 27.719C41.2191 27.732 41.0112 27.7379 40.8052 27.7379C36.2286 27.7379 32.2659 24.6793 31.1675 20.297C31.1426 20.1974 31.1197 20.1027 31.0979 20.005C30.6224 22.114 29.5601 24.0448 28.0339 25.5736C26.5077 27.1024 24.5803 28.1666 22.475 28.6429C24.5802 29.119 26.5076 30.183 28.0338 31.7116C29.56 33.2403 30.6224 35.1709 31.0979 37.2798C31.1197 37.1801 31.1426 37.0804 31.1675 36.9878C32.2619 32.6025 36.2296 29.5468 40.8052 29.5468C41.0112 29.5468 41.2191 29.5538 41.425 29.5668L52.7829 30.2644C53.388 30.3018 53.9774 30.4727 54.5089 30.7648C55.0403 31.057 55.5008 31.4632 55.8573 31.9543C56.2138 32.4455 56.4575 33.0096 56.571 33.6061C56.6845 34.2027 56.665 34.817 56.5139 35.4051C55.019 41.2378 51.6287 46.4063 46.8775 50.0956C42.1263 53.785 36.2845 55.7854 30.2731 55.7814H30.1855Z" fill="#594842"/>
<path d="M30.0742 55.6879C22.8342 55.665 16.0459 52.8365 10.9589 47.7247C5.87195 42.613 3.07227 35.8029 3.07227 28.5504C3.07268 23.459 4.5028 18.4705 7.19922 14.1548C9.89563 9.83904 13.7496 6.37016 18.3207 4.1445C22.8919 1.91884 27.9958 1.02616 33.0494 1.56847C38.1029 2.11078 42.9023 4.06619 46.8991 7.21129C51.5746 10.9034 54.9143 16.0279 56.4075 21.8011C56.5568 22.3886 56.5748 23.0018 56.4602 23.597C56.3457 24.1923 56.1013 24.7548 55.7447 25.2445C55.388 25.7342 54.9278 26.139 54.3969 26.43C53.8661 26.721 53.2776 26.891 52.6736 26.9278L41.3147 27.6255C41.1097 27.6384 40.9008 27.6454 40.6958 27.6454C36.1192 27.6454 32.1555 24.5857 31.0571 20.2045C31.0333 20.1048 31.0094 20.0101 30.9875 19.9125C30.5121 22.0212 29.4498 23.9517 27.9238 25.4804C26.3979 27.009 24.4706 28.0731 22.3656 28.5494C24.4707 29.0259 26.3978 30.0902 27.9238 31.619C29.4498 33.1478 30.512 35.0785 30.9875 37.1872C31.0094 37.0876 31.0323 36.9879 31.0571 36.8942C32.1515 32.514 36.1192 29.4543 40.6948 29.4543C40.9008 29.4543 41.1087 29.4603 41.3147 29.4732L52.6736 30.1709C53.2786 30.2084 53.8678 30.3794 54.3992 30.6716C54.9305 30.9638 55.3909 31.37 55.7472 31.8612C56.1036 32.3524 56.3473 32.9163 56.4607 33.5128C56.5742 34.1093 56.5546 34.7235 56.4035 35.3116C54.9084 41.1444 51.5179 46.3129 46.7666 50.0022C42.0152 53.6915 36.1733 55.6919 30.1617 55.6879H30.0742Z" fill="#594842"/>
<path d="M29.9646 55.5931C22.7256 55.5702 15.9363 52.7427 10.8503 47.63C5.76434 42.5172 2.96167 35.7082 2.96167 28.4556C2.96227 23.3644 4.39253 18.376 7.08902 14.0604C9.78551 9.7448 13.6395 6.27607 18.2106 4.05053C22.7817 1.82499 27.8855 0.932401 32.939 1.47475C37.9925 2.01709 42.7918 3.9725 46.7885 7.11755C51.4638 10.8092 54.8032 15.9334 56.2959 21.7064C56.4454 22.2941 56.4635 22.9076 56.3489 23.5031C56.2342 24.0986 55.9896 24.6614 55.6326 25.1512C55.2755 25.641 54.8149 26.0458 54.2836 26.3365C53.7522 26.6273 53.1634 26.7968 52.559 26.8331L41.2001 27.5307C40.9951 27.5437 40.7872 27.5497 40.5813 27.5497C36.0047 27.5497 32.0419 24.49 30.9426 20.1088C30.9187 20.0091 30.8958 19.9144 30.8739 19.8167C30.3982 21.9256 29.3357 23.8562 27.8096 25.3849C26.2834 26.9137 24.3562 27.978 22.251 28.4546C24.3562 28.9307 26.2837 29.9947 27.8098 31.5234C29.336 33.052 30.3984 34.9827 30.8739 37.0915C30.8958 36.9918 30.9187 36.8922 30.9426 36.7995C32.0419 32.4143 36.0047 29.3586 40.5813 29.3586C40.7862 29.3586 40.9951 29.3655 41.2001 29.3775L52.559 30.0752C53.1641 30.1125 53.7535 30.2834 54.2849 30.5755C54.8164 30.8677 55.2769 31.2739 55.6334 31.7651C55.9898 32.2563 56.2336 32.8203 56.3471 33.4169C56.4606 34.0134 56.4411 34.6277 56.2899 35.2158C54.7953 41.0483 51.4056 46.2166 46.655 49.906C41.9044 53.5955 36.0632 55.5964 30.0521 55.5931H29.9646Z" fill="#594842"/>
<path d="M29.8552 55.4991C22.6152 55.4762 15.827 52.6477 10.74 47.536C5.65299 42.4242 2.85132 35.6142 2.85132 28.3616C2.85197 23.2703 4.28228 18.2818 6.97882 13.9661C9.67537 9.65046 13.5294 6.18164 18.1006 3.95602C22.6717 1.73039 27.7757 0.837711 32.8293 1.37997C37.8829 1.92223 42.6823 3.87755 46.6792 7.02255C51.3547 10.7144 54.6942 15.839 56.1865 21.6124C56.3359 22.1998 56.3539 22.813 56.2393 23.4083C56.1247 24.0035 55.8804 24.5661 55.5237 25.0558C55.1671 25.5455 54.7069 25.9503 54.176 26.2413C53.6451 26.5322 53.0567 26.7022 52.4526 26.7391L41.0947 27.4367C40.8898 27.4497 40.6808 27.4567 40.4749 27.4567C35.8983 27.4567 31.9356 24.397 30.8372 20.0157C30.8123 19.9161 30.7894 19.8164 30.7675 19.7237C30.2921 21.8326 29.2296 23.7632 27.7035 25.2919C26.1773 26.8205 24.2499 27.8845 22.1446 28.3606C24.2506 28.8364 26.1788 29.9006 27.7056 31.4296C29.2323 32.9587 30.295 34.8899 30.7705 36.9995C30.7924 36.8998 30.8153 36.8002 30.8402 36.7065C31.9346 32.3262 35.9023 29.2666 40.4779 29.2666C40.6838 29.2666 40.8918 29.2725 41.0977 29.2855L52.4556 29.9831C53.0607 30.0205 53.6501 30.1914 54.1815 30.4835C54.713 30.7757 55.1735 31.1819 55.53 31.6731C55.8864 32.1643 56.1302 32.7283 56.2437 33.3248C56.3572 33.9214 56.3377 34.5357 56.1865 35.1238C54.691 40.9569 51.2999 46.1254 46.548 49.8145C41.7961 53.5037 35.9537 55.5037 29.9418 55.4991H29.8552Z" fill="#594842"/>
<path d="M29.7448 55.4047C22.5059 55.3818 15.7166 52.5543 10.6296 47.4416C5.54262 42.3288 2.74194 35.5198 2.74194 28.2672C2.74216 23.1758 4.17219 18.1872 6.8686 13.8713C9.56501 9.55551 13.419 6.08659 17.9903 3.86098C22.5615 1.63537 27.6656 0.742843 32.7192 1.2854C37.7728 1.82795 42.5722 3.78369 46.5688 6.92914C51.244 10.621 54.5837 15.7451 56.0771 21.518C56.2267 22.1054 56.2448 22.7187 56.1303 23.314C56.0158 23.9093 55.7715 24.472 55.4148 24.9617C55.0581 25.4515 54.5978 25.8563 54.0668 26.1472C53.5359 26.4381 52.9473 26.608 52.3432 26.6447L40.9843 27.3423C40.7794 27.3553 40.5705 27.3613 40.3655 27.3613C35.7889 27.3613 31.8252 24.3016 30.7268 19.9203C30.7029 19.8207 30.6791 19.726 30.6572 19.6283C30.1817 21.7371 29.1194 23.6678 27.5935 25.1966C26.0675 26.7254 24.1403 27.7897 22.0353 28.2662C24.1403 28.7424 26.0675 29.8066 27.5935 31.3352C29.1195 32.8638 30.1818 34.7944 30.6572 36.9031C30.6791 36.8034 30.7029 36.7038 30.7268 36.6111C31.8212 32.2259 35.7889 29.1702 40.3645 29.1702C40.5705 29.1702 40.7794 29.1771 40.9843 29.1891L52.3432 29.8868C52.9482 29.9243 53.5375 30.0952 54.0688 30.3874C54.6002 30.6796 55.0605 31.0859 55.4169 31.577C55.7733 32.0682 56.0169 32.6322 56.1304 33.2287C56.2438 33.8252 56.2243 34.4394 56.0732 35.0274C54.5786 40.8606 51.1883 46.0295 46.4368 49.7191C41.6854 53.4086 35.8432 55.409 29.8314 55.4047H29.7448Z" fill="#594842"/>
<path d="M29.6342 55.3136C22.3953 55.2907 15.606 52.4623 10.52 47.3505C5.43401 42.2387 2.63135 35.4257 2.63135 28.1731C2.632 23.0818 4.06231 18.0933 6.75885 13.7777C9.45539 9.46198 13.3094 5.99317 17.8806 3.76754C22.4517 1.54191 27.5557 0.649234 32.6093 1.19149C37.6629 1.73375 42.4623 3.68908 46.4592 6.83407C51.1355 10.5269 54.475 15.6531 55.9666 21.4279C56.1159 22.0153 56.1339 22.6286 56.0193 23.2238C55.9048 23.819 55.6604 24.3816 55.3037 24.8713C54.9471 25.361 54.4869 25.7658 53.956 26.0568C53.4251 26.3478 52.8367 26.5177 52.2326 26.5546L40.8737 27.2522C40.6688 27.2652 40.4609 27.2722 40.2549 27.2722C35.6783 27.2722 31.7156 24.2125 30.6162 19.8313C30.5923 19.7316 30.5695 19.6369 30.5476 19.5392C30.0719 21.648 29.0094 23.5785 27.4832 25.1071C25.9571 26.6357 24.0298 27.6998 21.9247 28.1761C24.03 28.6524 25.9574 29.7166 27.4836 31.2454C29.0098 32.7742 30.0721 34.705 30.5476 36.814C30.5695 36.7143 30.5923 36.6147 30.6162 36.521C31.7156 32.1358 35.6783 29.0811 40.2549 29.0811C40.4599 29.0811 40.6688 29.0871 40.8747 29.1L52.2326 29.7977C52.8377 29.835 53.4271 30.0059 53.9586 30.298C54.4901 30.5902 54.9505 30.9964 55.307 31.4876C55.6635 31.9788 55.9072 32.5428 56.0207 33.1394C56.1342 33.7359 56.1147 34.3502 55.9636 34.9383C54.468 40.7708 51.0773 45.9389 46.3261 49.6279C41.5748 53.317 35.7332 55.3174 29.7218 55.3136H29.6342Z" fill="#594842"/>
<path d="M29.5249 55.214C22.2849 55.1911 15.4966 52.3636 10.4096 47.2508C5.32267 42.1381 2.521 35.331 2.521 28.0785C2.52145 22.9871 3.95166 17.9985 6.6482 13.6827C9.34474 9.36693 13.1988 5.89807 17.7701 3.6725C22.3414 1.44692 27.4455 0.554392 32.4991 1.0969C37.5527 1.6394 42.3521 3.59505 46.3488 6.7404C51.0239 10.432 54.3636 15.5557 55.8572 21.3282C56.0064 21.9157 56.0242 22.5288 55.9096 23.124C55.7949 23.7191 55.5506 24.2816 55.1939 24.7713C54.8373 25.261 54.3772 25.6657 53.8464 25.9568C53.3156 26.2478 52.7273 26.4179 52.1233 26.4549L40.7644 27.1526C40.5594 27.1655 40.3505 27.1715 40.1446 27.1715C35.568 27.1715 31.6052 24.1118 30.5069 19.7306C30.482 19.6309 30.4591 19.5363 30.4372 19.4386C29.9624 21.5478 28.9006 23.4791 27.3748 25.0085C25.8489 26.5378 23.9216 27.6026 21.8163 28.0795C23.9215 28.5555 25.849 29.6196 27.3751 31.1482C28.9013 32.6768 29.9637 34.6075 30.4392 36.7163C30.4611 36.6167 30.484 36.517 30.5088 36.4243C31.6033 32.0391 35.571 28.9834 40.1466 28.9834C40.3525 28.9834 40.5604 28.9904 40.7664 29.0023L52.1243 29.7C52.7294 29.7374 53.3187 29.9082 53.8502 30.2004C54.3817 30.4925 54.8422 30.8987 55.1986 31.3899C55.5551 31.8811 55.7988 32.4451 55.9123 33.0417C56.0259 33.6382 56.0063 34.2525 55.8552 34.8407C54.3598 40.6734 50.9688 45.8417 46.2171 49.5305C41.4653 53.2193 35.6231 55.2189 29.6114 55.214H29.5249Z" fill="#594842"/>
<path d="M29.4144 55.1222C22.1755 55.0993 15.3862 52.2709 10.2992 47.1591C5.21222 42.0473 2.41553 35.2373 2.41553 27.9847C2.41653 22.8941 3.84684 17.9064 6.54305 13.5914C9.23927 9.27632 13.0927 5.80794 17.6631 3.58242C22.2335 1.3569 27.3367 0.463977 32.3896 1.00565C37.4426 1.54732 42.2416 3.50174 46.2384 6.64566C50.9124 10.3384 54.2507 15.4628 55.7428 21.2355C55.8921 21.8229 55.9101 22.4362 55.7956 23.0314C55.681 23.6266 55.4366 24.1892 55.08 24.6789C54.7233 25.1686 54.2631 25.5734 53.7322 25.8644C53.2014 26.1554 52.6129 26.3253 52.0089 26.3622L40.65 27.0598C40.445 27.0728 40.2371 27.0798 40.0311 27.0798C35.4545 27.0798 31.4918 24.0201 30.3924 19.6389C30.3686 19.5392 30.3447 19.4445 30.3228 19.3458C29.8476 21.4547 28.7854 23.3855 27.2594 24.9143C25.7334 26.4432 23.8061 27.5074 21.7009 27.9837C23.806 28.4603 25.7332 29.5246 27.2591 31.0534C28.7851 32.5822 29.8473 34.5128 30.3228 36.6216C30.3447 36.5219 30.3686 36.4223 30.3924 36.3286C31.4868 31.9484 35.4545 28.8887 40.0301 28.8887C40.2361 28.8887 40.445 28.8947 40.65 28.9076L52.0089 29.6053C52.6146 29.6421 53.2046 29.8127 53.7367 30.1049C54.2688 30.397 54.7298 30.8035 55.0867 31.2951C55.4435 31.7867 55.6874 32.3513 55.8009 32.9484C55.9143 33.5455 55.8945 34.1604 55.7428 34.7489C54.2472 40.581 50.8566 45.7487 46.1055 49.4374C41.3544 53.1262 35.513 55.1262 29.502 55.1222H29.4144Z" fill="#594842"/>
<path d="M29.3052 55.0275C22.0652 55.0046 15.2769 52.1771 10.1899 47.0643C5.10294 41.9516 2.30127 35.1425 2.30127 27.89C2.30173 22.7986 3.73194 17.81 6.42848 13.4942C9.12502 9.17845 12.9791 5.7096 17.5504 3.48402C22.1217 1.25844 27.2257 0.365915 32.2794 0.908419C37.333 1.45092 42.1324 3.40658 46.1291 6.55192C50.8044 10.2436 54.1438 15.3678 55.6365 21.1407C55.786 21.7282 55.8042 22.3415 55.6897 22.9368C55.5752 23.5321 55.3308 24.0947 54.9741 24.5845C54.6174 25.0742 54.1572 25.479 53.6262 25.77C53.0952 26.0609 52.5067 26.2308 51.9026 26.2675L40.5447 26.9651C40.3387 26.9781 40.1308 26.984 39.9248 26.984C35.3483 26.984 31.3855 23.9244 30.2861 19.5431C30.2623 19.4435 30.2394 19.3438 30.2175 19.2511C29.7418 21.36 28.6794 23.2907 27.1533 24.8194C25.6271 26.3482 23.6998 27.4125 21.5946 27.889C23.6998 28.3651 25.6273 29.4291 27.1534 30.9577C28.6796 32.4864 29.742 34.417 30.2175 36.5259C30.2394 36.4262 30.2623 36.3265 30.2861 36.2339C31.3855 31.8486 35.3483 28.7929 39.9248 28.7929C40.1298 28.7929 40.3387 28.7999 40.5447 28.8119L51.9026 29.5095C52.5077 29.5469 53.097 29.7178 53.6285 30.0099C54.16 30.3021 54.6204 30.7083 54.9769 31.1994C55.3334 31.6906 55.5771 32.2547 55.6906 32.8512C55.8041 33.4478 55.7846 34.0621 55.6335 34.6502C54.1387 40.4833 50.7484 45.6521 45.997 49.3416C41.2456 53.0312 35.4035 55.0316 29.3917 55.0275H29.3052Z" fill="#594842"/>
<path d="M29.1946 54.9337C21.9546 54.9108 15.1663 52.0823 10.0793 46.9705C4.99234 41.8588 2.19067 35.0487 2.19067 27.7962C2.19133 22.7048 3.62164 17.7164 6.31818 13.4007C9.01472 9.08503 12.8687 5.61621 17.4399 3.39059C22.0111 1.16496 27.115 0.272281 32.1686 0.814539C37.2222 1.3568 42.0216 3.31212 46.0185 6.45712C50.694 10.1492 54.0337 15.2737 55.5269 21.0469C55.6762 21.6344 55.6942 22.2476 55.5797 22.8428C55.4651 23.4381 55.2207 24.0006 54.8641 24.4903C54.5074 24.9801 54.0472 25.3848 53.5163 25.6758C52.9855 25.9668 52.397 26.1368 51.793 26.1736L40.4341 26.8713C40.2291 26.8842 40.0202 26.8912 39.8142 26.8912C35.2376 26.8912 31.2749 23.8315 30.1765 19.4503C30.1517 19.3506 30.1288 19.256 30.1069 19.1573C29.6317 21.2662 28.5695 23.197 27.0435 24.7258C25.5175 26.2546 23.5902 27.3189 21.485 27.7952C23.5901 28.2717 25.5173 29.336 27.0432 30.8648C28.5692 32.3936 29.6314 34.3243 30.1069 36.4331C30.1288 36.3334 30.1517 36.2337 30.1765 36.14C31.2709 31.7598 35.2386 28.7001 39.8142 28.7001C40.0202 28.7001 40.2281 28.7061 40.4341 28.7191L51.793 29.4167C52.398 29.4542 52.9872 29.6252 53.5186 29.9174C54.0499 30.2096 54.5103 30.6158 54.8666 31.107C55.223 31.5982 55.4667 32.1622 55.5801 32.7586C55.6936 33.3551 55.674 33.9693 55.5229 34.5574C54.0277 40.3907 50.6367 45.5595 45.8848 49.2489C41.1329 52.9383 35.2902 54.9383 29.2781 54.9337H29.1946Z" fill="#594842"/>
<path d="M29.0842 54.8393C21.8452 54.8164 15.0559 51.9889 9.96896 46.8761C4.88197 41.7634 2.0813 34.9543 2.0813 27.7068C2.08059 22.6149 3.50993 17.6256 6.20598 13.3091C8.90202 8.99252 12.756 5.52286 17.3274 3.29664C21.8988 1.07042 27.0033 0.177467 32.0573 0.719833C37.1114 1.2622 41.9112 3.218 45.9081 6.36371C50.5836 10.0554 53.9233 15.1796 55.4165 20.9525C55.566 21.54 55.5842 22.1533 55.4697 22.7486C55.3552 23.3439 55.1109 23.9065 54.7542 24.3963C54.3975 24.886 53.9372 25.2908 53.4062 25.5818C52.8752 25.8727 52.2867 26.0426 51.6826 26.0793L40.3237 26.7769C40.1188 26.7899 39.9108 26.7958 39.7049 26.7958C35.1283 26.7958 31.1655 23.7361 30.0662 19.3549C30.0423 19.2553 30.0194 19.1606 29.9975 19.0629C29.5225 21.1727 28.4604 23.1045 26.9343 24.6344C25.4081 26.1642 23.4804 27.2295 21.3746 27.7068C23.4798 28.183 25.4071 29.2472 26.9332 30.7758C28.4593 32.3044 29.5218 34.2349 29.9975 36.3436C30.0194 36.244 30.0423 36.1443 30.0662 36.0516C31.1685 31.6664 35.1283 28.6037 39.7049 28.6037C39.9098 28.6037 40.1188 28.6107 40.3237 28.6227L51.6826 29.3203C52.2876 29.3578 52.8769 29.5288 53.4082 29.821C53.9396 30.1132 54.3999 30.5194 54.7563 31.0106C55.1127 31.5018 55.3563 32.0658 55.4697 32.6623C55.5832 33.2587 55.5636 33.873 55.4125 34.461C53.9183 40.2943 50.5283 45.4634 45.777 49.1531C41.0257 52.8429 35.1836 54.8435 29.1717 54.8393H29.0842Z" fill="#594842"/>
<path d="M28.9798 54.7452C21.7398 54.7223 14.9516 51.8938 9.86458 46.7821C4.77759 41.6703 1.97095 34.8603 1.97095 27.6067C1.97179 22.5155 3.40223 17.5271 6.09885 13.2116C8.79547 8.89606 12.6495 5.4274 17.2206 3.20189C21.7918 0.976388 26.8956 0.0837937 31.9491 0.626089C37.0026 1.16839 41.802 3.1237 45.7988 6.26864C50.4744 9.96048 53.8138 15.0851 55.3062 20.8585C55.4555 21.4459 55.4735 22.0591 55.3589 22.6544C55.2444 23.2496 55 23.8122 54.6434 24.3019C54.2867 24.7916 53.8265 25.1964 53.2956 25.4874C52.7647 25.7783 52.1763 25.9483 51.5723 25.9852L40.2144 26.6828C40.0084 26.6958 39.8005 26.7028 39.5945 26.7028C35.0179 26.7028 31.0552 23.6431 29.9568 19.2618C29.9319 19.1622 29.9091 19.0675 29.8872 18.9688C29.4119 21.0778 28.3495 23.0087 26.8233 24.5375C25.2972 26.0664 23.3696 27.1306 21.2643 27.6067C23.3696 28.083 25.297 29.1472 26.8232 30.676C28.3494 32.2048 29.4117 34.1356 29.8872 36.2446C29.9091 36.1449 29.9319 36.0453 29.9568 35.9516C31.0512 31.5713 35.0189 28.5117 39.5945 28.5117C39.8005 28.5117 40.0084 28.5176 40.2144 28.5306L51.5723 29.2282C52.1772 29.2656 52.7665 29.4365 53.2979 29.7286C53.8293 30.0207 54.2897 30.4268 54.6461 30.9178C55.0026 31.4089 55.2464 31.9728 55.3599 32.5692C55.4735 33.1657 55.4541 33.7799 55.3032 34.3679C53.8081 40.2008 50.4177 45.3694 45.6664 49.0589C40.915 52.7484 35.0731 54.749 29.0614 54.7452H28.9798Z" fill="#594842"/>
<path d="M28.8642 54.6507C21.6242 54.6278 14.836 51.8003 9.74899 46.6876C4.662 41.5748 1.86033 34.7658 1.86133 27.5132C1.8623 22.4222 3.29286 17.434 5.98957 13.1188C8.68627 8.80356 12.5404 5.33523 17.1115 3.11011C21.6826 0.88498 26.7863 -0.00720099 31.8396 0.535502C36.8929 1.0782 41.6918 3.0339 45.6882 6.17914C50.3636 9.87083 53.7034 14.995 55.1965 20.768C55.3454 21.355 55.363 21.9677 55.2483 22.5624C55.1336 23.157 54.8894 23.719 54.5329 24.2083C54.1765 24.6975 53.7167 25.102 53.1864 25.3928C52.656 25.6836 52.0681 25.8536 51.4646 25.8907L40.1057 26.5883C39.9008 26.6013 39.6918 26.6073 39.4869 26.6073C34.9103 26.6073 30.9466 23.5476 29.8482 19.1664C29.8243 19.0667 29.8004 18.967 29.7785 18.8743C29.303 20.9831 28.2407 22.9137 26.7147 24.4424C25.1888 25.9712 23.2617 27.0356 21.1566 27.5122C23.2614 27.9891 25.1882 29.0537 26.7136 30.5827C28.239 32.1117 29.3007 34.0424 29.7756 36.1511C29.7974 36.0514 29.8203 35.9518 29.8452 35.8591C30.9396 31.4739 34.9073 28.4182 39.4829 28.4182C39.6889 28.4182 39.8968 28.4251 40.1027 28.4371L51.4616 29.1348C52.0666 29.1723 52.6559 29.3432 53.1872 29.6354C53.7186 29.9276 54.1789 30.3339 54.5353 30.825C54.8917 31.3162 55.1353 31.8802 55.2488 32.4767C55.3622 33.0732 55.3427 33.6874 55.1916 34.2754C53.6966 40.1081 50.3063 45.2764 45.5551 48.9656C40.8039 52.6547 34.9621 54.6549 28.9508 54.6507H28.8642Z" fill="#594842"/>
<path d="M28.7539 54.5574C21.5149 54.5345 14.7256 51.706 9.63864 46.5943C4.55165 41.4825 1.75098 34.6725 1.75098 27.4199C1.75098 23.8562 2.4517 20.3274 3.81313 17.035C5.17457 13.7426 7.17005 10.751 9.68565 8.23113C12.2012 5.71126 15.1877 3.71242 18.4744 2.34874C21.7612 0.985066 25.2839 0.283256 28.8414 0.283386C34.9146 0.260917 40.8154 2.3046 45.5778 6.07984C50.2542 9.77159 53.594 14.8967 55.0862 20.6707C55.2355 21.2581 55.2535 21.8713 55.139 22.4666C55.0244 23.0618 54.7801 23.6244 54.4234 24.1141C54.0667 24.6038 53.6065 25.0086 53.0756 25.2996C52.5448 25.5905 51.9563 25.7605 51.3523 25.7974L39.9934 26.495C39.7884 26.508 39.5805 26.515 39.3746 26.515C34.798 26.515 30.8352 23.4553 29.7358 19.074C29.712 18.9777 29.6891 18.88 29.6672 18.781C29.1916 20.8899 28.1291 22.8206 26.603 24.3494C25.0768 25.8781 23.1495 26.9424 21.0443 27.4189C23.1496 27.8952 25.0771 28.9594 26.6032 30.4882C28.1294 32.017 29.1918 33.9478 29.6672 36.0568C29.6891 35.9571 29.712 35.8575 29.7358 35.7638C30.8303 31.3786 34.798 28.3239 39.3746 28.3239C39.5795 28.3239 39.7884 28.3298 39.9934 28.3428L51.3523 29.0404C51.9577 29.0779 52.5475 29.2489 53.0792 29.5413C53.6109 29.8338 54.0715 30.2404 54.4281 30.732C54.7846 31.2236 55.0282 31.7881 55.1415 32.3851C55.2547 32.9821 55.2348 33.5967 55.0832 34.1851C53.5872 40.0171 50.1964 45.1846 45.4451 48.8731C40.6939 52.5616 34.8524 54.5615 28.8414 54.5574H28.7539Z" fill="#594842"/>
<path d="M28.6445 54.4621C21.4045 54.4391 14.6163 51.6117 9.52928 46.4989C4.4423 41.3862 1.64062 34.5771 1.64062 27.3246C1.64108 22.2331 3.07129 17.2445 5.76783 12.9288C8.46437 8.61302 12.3185 5.14417 16.8897 2.91859C21.461 0.693014 26.5651 -0.199514 31.6187 0.34299C36.6724 0.885494 41.4718 2.84115 45.4685 5.98649C50.144 9.67797 53.4834 14.8023 54.9758 20.5753C55.1253 21.1628 55.1435 21.7761 55.029 22.3714C54.9145 22.9667 54.6702 23.5293 54.3135 24.0191C53.9568 24.5088 53.4965 24.9136 52.9655 25.2045C52.4346 25.4955 51.846 25.6653 51.2419 25.702L39.884 26.3997C39.6781 26.4126 39.4701 26.4186 39.2642 26.4186C34.6876 26.4186 30.7249 23.3589 29.6265 18.9777C29.6016 18.878 29.5787 18.7833 29.5568 18.6857C29.0812 20.7945 28.0188 22.7252 26.4926 24.254C24.9665 25.7828 23.0392 26.8471 20.9339 27.3236C23.0392 27.7996 24.9666 28.8637 26.4928 30.3923C28.019 31.9209 29.0814 33.8516 29.5568 35.9604C29.5787 35.8608 29.6016 35.7611 29.6265 35.6684C30.7209 31.2832 34.6886 28.2275 39.2642 28.2275C39.4701 28.2275 39.6781 28.2345 39.884 28.2464L51.2419 28.9441C51.847 28.9815 52.4364 29.1523 52.9679 29.4445C53.4993 29.7366 53.9598 30.1428 54.3163 30.634C54.6728 31.1252 54.9165 31.6893 55.03 32.2858C55.1435 32.8823 55.124 33.4967 54.9729 34.0848C53.4781 39.9179 50.0877 45.0866 45.3363 48.7762C40.585 52.4658 34.7428 54.4662 28.7311 54.4621H28.6445Z" fill="#594842"/>
<path d="M28.5339 54.3689C21.2939 54.3459 14.5056 51.5175 9.41866 46.4057C4.33168 41.2939 1.53101 34.4839 1.53101 27.2313C1.53233 20.0352 4.38697 13.1342 9.46708 8.04615C14.5472 2.95815 21.4368 0.0998114 28.6205 0.0998115C34.6934 0.076219 40.5945 2.11847 45.3578 5.89228C50.0333 9.58437 53.373 14.7088 54.8662 20.4821C55.0164 21.0699 55.0351 21.6836 54.9209 22.2795C54.8067 22.8753 54.5625 23.4386 54.2058 23.9289C53.849 24.4192 53.3885 24.8245 52.8572 25.1157C52.3259 25.407 51.7369 25.5771 51.1323 25.6138L39.7734 26.3114C39.5685 26.3244 39.3595 26.3314 39.1546 26.3314C34.578 26.3314 30.6143 23.2717 29.5159 18.8905C29.492 18.7908 29.4681 18.6961 29.4462 18.5975C28.9701 20.706 27.9072 22.6362 26.3807 24.1643C24.8541 25.6924 22.9266 26.7558 20.8213 27.2313C22.9265 27.7077 24.8538 28.7719 26.3798 30.3007C27.9058 31.8296 28.968 33.7603 29.4432 35.8692C29.4651 35.7696 29.489 35.6699 29.5129 35.5762C30.6073 31.196 34.575 28.1363 39.1506 28.1363C39.3565 28.1363 39.5655 28.1423 39.7704 28.1552L51.1293 28.8529C51.7342 28.8904 52.3234 29.0614 52.8546 29.3535C53.3859 29.6457 53.8462 30.0518 54.2025 30.5428C54.5589 31.0339 54.8026 31.5977 54.9161 32.1941C55.0296 32.7905 55.0102 33.4046 54.8593 33.9925C53.3643 39.8249 49.9742 44.993 45.2235 48.6823C40.4728 52.3715 34.6315 54.3722 28.6205 54.3689H28.5339Z" fill="#594842"/>
<path d="M28.4235 54.2742C21.1846 54.2513 14.3953 51.4238 9.30931 46.311C4.22332 41.1983 1.42065 34.3892 1.42065 27.1367C1.42065 23.573 2.12138 20.0442 3.48281 16.7518C4.84425 13.4593 6.83973 10.4678 9.35532 7.94792C11.8709 5.42805 14.8574 3.42921 18.1441 2.06553C21.4309 0.70185 24.9536 3.93854e-05 28.5111 0.000170269C34.5848 -0.0214839 40.4858 2.02287 45.2485 5.79862C49.924 9.49011 53.2634 14.6144 54.7559 20.3874C54.9054 20.9749 54.9235 21.5882 54.809 22.1835C54.6945 22.7788 54.4502 23.3414 54.0935 23.8312C53.7368 24.3209 53.2765 24.7257 52.7456 25.0167C52.2146 25.3076 51.6261 25.4775 51.022 25.5142L39.6631 26.2118C39.4581 26.2248 39.2502 26.2307 39.0442 26.2307C34.4676 26.2307 30.5049 23.1711 29.4055 18.7898C29.3816 18.6902 29.3588 18.5905 29.3369 18.4978C28.8611 20.6066 27.7986 22.5373 26.2725 24.066C24.7464 25.5948 22.8191 26.6591 20.714 27.1357C22.8201 27.6123 24.7482 28.6774 26.2744 30.2073C27.8007 31.7373 28.8626 33.6694 29.3369 35.7795C29.3588 35.6799 29.3816 35.5802 29.4055 35.4875C30.5049 31.1023 34.4676 28.0466 39.0442 28.0466C39.2492 28.0466 39.4581 28.0536 39.6631 28.0656L51.022 28.7632C51.6271 28.8006 52.2164 28.9714 52.7479 29.2636C53.2794 29.5557 53.7398 29.9619 54.0963 30.4531C54.4528 30.9443 54.6965 31.5084 54.81 32.1049C54.9235 32.7015 54.904 33.3158 54.7529 33.9039C53.2566 39.7356 49.8657 44.9027 45.1145 48.5909C40.3632 52.279 34.5219 54.2785 28.5111 54.2742H28.4235Z" fill="#594842"/>
<path d="M39.5495 29.9028L39.5499 29.9029L50.9084 30.6005C50.9085 30.6005 50.9086 30.6005 50.9087 30.6005C51.2426 30.6215 51.5677 30.7161 51.861 30.8776C52.1543 31.0391 52.4084 31.2635 52.6053 31.5348C52.8021 31.8062 52.9367 32.1177 52.9994 32.4473C53.0621 32.7769 53.0515 33.1162 52.9681 33.4412L52.9681 33.4412C50.1633 44.386 40.2346 52.4715 28.4297 52.4292H28.4288C25.1182 52.4255 21.8409 51.7682 18.784 50.4949C15.7272 49.2215 12.9508 47.3572 10.6136 45.0083C8.27633 42.6595 6.42412 39.8722 5.16284 36.8058C3.90155 33.7393 3.25593 30.454 3.2629 27.1374V27.1367C3.2629 13.1682 14.5681 1.84512 28.511 1.84512C40.2855 1.84512 50.1776 9.91956 52.9708 20.844C53.0526 21.1681 53.0619 21.5063 52.9983 21.8345C52.9347 22.1627 52.7995 22.4728 52.6026 22.7426L52.8853 22.949L52.6026 22.7426C52.4056 23.0125 52.1517 23.2355 51.859 23.3957C51.5663 23.556 51.2419 23.6495 50.909 23.6698L50.9089 23.6698L39.5499 24.3675L39.5499 24.3675C35.6821 24.6056 32.1343 22.0928 31.1926 18.3383C31.1705 18.2488 31.1493 18.1581 31.129 18.067C31.129 18.067 31.129 18.0669 31.1289 18.0668L30.0908 13.3543C30.0908 13.354 30.0907 13.3537 30.0906 13.3533C30.0534 13.1812 29.9584 13.0268 29.8214 12.916C29.6841 12.8049 29.5129 12.7443 29.3363 12.7443C29.1596 12.7443 28.9884 12.8049 28.8511 12.916C28.7141 13.0268 28.6192 13.1811 28.5819 13.3533C28.5818 13.3536 28.5818 13.354 28.5817 13.3543L27.5434 18.0726C27.5434 18.0727 27.5434 18.0727 27.5434 18.0728C27.1512 19.8515 26.2597 21.4808 24.9739 22.7687C23.6881 24.0566 22.0616 24.9494 20.2861 25.3418L15.5809 26.3819C15.5807 26.382 15.5804 26.3821 15.5801 26.3821C15.4078 26.4195 15.2535 26.5148 15.1429 26.652L15.4153 26.8717L15.1429 26.652C15.0321 26.7894 14.9717 26.9607 14.9717 27.1372C14.9717 27.3137 15.0321 27.4849 15.1429 27.6223C15.2535 27.7595 15.4077 27.8548 15.58 27.8922C15.5803 27.8923 15.5806 27.8923 15.5809 27.8924L20.2861 28.9325C22.0616 29.325 23.6881 30.2177 24.9739 31.5056C26.2597 32.7935 27.1512 34.4228 27.5434 36.2016C27.5434 36.2016 27.5434 36.2017 27.5434 36.2017L28.5807 40.916C28.5808 40.9164 28.5808 40.9167 28.5809 40.9171C28.6182 41.0892 28.7131 41.2435 28.8501 41.3544L29.0702 41.0823L28.8501 41.3544C28.9874 41.4654 29.1586 41.5261 29.3353 41.5261C29.5119 41.5261 29.6831 41.4654 29.8204 41.3544L29.6003 41.0823L29.8204 41.3544C29.9574 41.2435 30.0524 41.0892 30.0896 40.9171C30.0897 40.9167 30.0898 40.9164 30.0898 40.916L31.1279 36.2025C31.128 36.2024 31.128 36.2023 31.128 36.2021C31.1482 36.1117 31.1694 36.0219 31.1918 35.9304C32.1348 32.1761 35.6874 29.6609 39.5495 29.9028Z" fill="white" stroke="#594842" stroke-width="0.7"/>
</svg>
