<svg width="60" height="60" viewBox="0 0 60 60" fill="none" xmlns="http://www.w3.org/2000/svg">
<g clip-path="url(#clip0_532_1459)">
<path fill-rule="evenodd" clip-rule="evenodd" d="M37.0603 28.1392L37.0757 28.1528C33.8528 28.623 31.0871 30.6204 29.6527 33.4743C29.6087 33.4364 29.5644 33.399 29.5199 33.3618C29.4283 33.2814 29.3355 33.2025 29.2416 33.1251C29.2174 33.1047 29.1931 33.0844 29.1687 33.0642C29.0998 33.0039 29.0303 32.9446 28.96 32.8861L28.9453 32.8735C28.8849 32.8207 28.8239 32.7686 28.7625 32.7172C28.6823 32.6465 28.6012 32.577 28.5191 32.5087L28.4859 32.4804C28.4452 32.4451 28.4044 32.4101 28.3633 32.3753C28.3158 32.3331 28.268 32.2913 28.2199 32.2499C28.1129 32.1556 28.0043 32.0634 27.8941 31.9733C27.826 31.9146 27.7572 31.8568 27.6878 31.7999L27.6517 31.7688C27.5461 31.6735 27.4389 31.5803 27.33 31.4892C28.8481 30.9177 30.2332 30.0266 31.3883 28.8693C32.4064 27.8493 33.2181 26.6504 33.7868 25.3391C33.8178 25.3657 33.8489 25.392 33.8801 25.4182L33.929 25.46C34.0543 25.5732 34.1825 25.6831 34.3135 25.7896C34.4124 25.8776 34.5131 25.9636 34.6156 26.0476L34.6299 26.0597C34.6639 26.0892 34.6982 26.1185 34.7326 26.1475C34.7636 26.1744 34.7948 26.2011 34.8261 26.2277C34.8908 26.284 34.9561 26.3395 35.0222 26.3942C35.145 26.5053 35.2706 26.6133 35.3989 26.7181C35.4356 26.7499 35.4725 26.7815 35.5097 26.8128C35.6102 26.9025 35.7126 26.9901 35.8167 27.0756C35.8627 27.1158 35.9091 27.1555 35.9559 27.1948C36.0614 27.2889 36.169 27.3807 36.2785 27.4702L36.2891 27.4791C36.377 27.5575 36.4664 27.6343 36.5571 27.7094C36.6254 27.7694 36.6945 27.8284 36.7643 27.8865L36.8224 27.9358C36.8588 27.9674 36.8954 27.9988 36.9323 28.0299C36.9746 28.0667 37.0173 28.1031 37.0603 28.1392ZM8.80931 46.311C9.32525 46.8297 9.85872 47.3248 10.4084 47.7959C10.4802 47.8581 10.5522 47.9198 10.6245 47.9811C10.7147 48.0592 10.8053 48.1367 10.8963 48.2135L10.9557 48.264C11.0258 48.3247 11.096 48.3849 11.1666 48.4448C11.2048 48.4776 11.243 48.5102 11.2814 48.5427L11.3776 48.6258C11.5489 48.776 11.7218 48.9239 11.8962 49.0694C12.016 49.1737 12.1366 49.2768 12.258 49.3788C12.3078 49.4215 12.3577 49.4641 12.4078 49.5065L12.4287 49.5243C12.4692 49.5593 12.5098 49.5941 12.5505 49.6288C12.6092 49.6794 12.668 49.7296 12.727 49.7796L12.794 49.8368C12.8986 49.9277 13.0038 50.0177 13.1095 50.1068L13.1718 50.1603C13.2354 50.2153 13.2992 50.27 13.3633 50.3244L13.3687 50.3291C13.5179 50.4598 13.6683 50.5887 13.8198 50.7159C13.8623 50.7523 13.9049 50.7885 13.9475 50.8246C14.0912 50.9501 14.236 51.074 14.3819 51.1962L14.4636 51.2658C14.5008 51.2978 14.5382 51.3297 14.5756 51.3615C14.6652 51.4392 14.7553 51.5163 14.8458 51.5927L14.9051 51.6432L14.9562 51.687C15.0312 51.7517 15.1065 51.816 15.1821 51.8799L15.1952 51.8912C15.285 51.9693 15.3753 52.0469 15.4659 52.1238C15.5464 52.1935 15.6272 52.2628 15.7084 52.3315L15.7865 52.398L15.8602 52.461L15.9131 52.506L15.9601 52.5462C20.8395 56.7526 27.0047 59.0569 33.5378 59.0776H33.6244C39.6357 59.0816 45.4774 57.0813 50.2285 53.3922C54.9797 49.703 58.37 44.5348 59.8651 38.7023C60.0163 38.1142 60.0358 37.5 59.9224 36.9035C59.8089 36.307 59.5653 35.743 59.2089 35.2519C59.0128 34.9815 58.7851 34.7369 58.5315 34.5229C58.4866 34.4823 58.4408 34.4426 58.3942 34.404C58.3343 34.3507 58.2728 34.2991 58.2099 34.2494L58.1906 34.232L58.164 34.2082C58.0667 34.1159 57.9651 34.0283 57.8593 33.9459C57.8358 33.9263 57.8121 33.9068 57.7881 33.8877C57.7223 33.827 57.6546 33.7685 57.585 33.7123C57.5153 33.6475 57.4435 33.5853 57.3696 33.5255C57.2807 33.4425 57.1882 33.3635 57.0923 33.2886C57.0759 33.2748 57.0593 33.2612 57.0426 33.2477C57.0013 33.2117 56.9592 33.1765 56.9165 33.1422C56.8534 33.0837 56.7886 33.0272 56.722 32.9727C56.68 32.9359 56.6373 32.8999 56.5938 32.8648L56.561 32.8366C56.5486 32.826 56.5361 32.8155 56.5236 32.8051C56.4917 32.7767 56.4593 32.7488 56.4266 32.7215C56.385 32.6841 56.3426 32.6476 56.2996 32.612C56.2481 32.5663 56.1955 32.522 56.1419 32.4789C56.1042 32.444 56.0659 32.4099 56.0269 32.3764C55.9462 32.3022 55.8624 32.2312 55.7759 32.1636C55.7577 32.1483 55.7394 32.1331 55.7209 32.1181C55.6785 32.0812 55.6354 32.0451 55.5915 32.0099C55.5705 31.9918 55.5494 31.974 55.5281 31.9564C55.5026 31.9337 55.4768 31.9114 55.4508 31.8894L55.4223 31.8638L55.4103 31.8532C55.3191 31.7667 55.224 31.6843 55.1252 31.6065C55.0951 31.5811 55.0647 31.556 55.0339 31.5315L55.0025 31.5048L54.9802 31.4862C54.9654 31.4731 54.9506 31.4602 54.9357 31.4473C54.8714 31.3877 54.8052 31.3302 54.7373 31.2749C54.7028 31.2447 54.6679 31.2151 54.6324 31.1862C54.5923 31.1509 54.5515 31.1164 54.51 31.0827L54.4861 31.062C54.4284 31.0089 54.3693 30.9575 54.3088 30.9079C54.2576 30.8627 54.2054 30.8189 54.1521 30.7764C54.0927 30.7217 54.0316 30.6689 53.9691 30.6179L53.9495 30.6008L53.9229 30.578L53.9059 30.5636C53.8676 30.5289 53.8286 30.495 53.789 30.4618L56.1382 30.3175C56.7421 30.2806 57.3305 30.1105 57.8612 29.8194C58.3919 29.5284 58.8519 29.1236 59.2084 28.6338C59.5649 28.1441 59.8091 27.5816 59.9234 26.9864C60.0378 26.3912 60.0196 25.7781 59.8701 25.1908C58.4659 19.7618 55.4287 14.9066 51.1832 11.277C51.1019 11.2067 51.0201 11.1369 50.9379 11.0676L50.9061 11.0404L50.8609 11.0017C50.8175 10.9642 50.7741 10.9268 50.7305 10.8896C50.6694 10.8369 50.608 10.7844 50.5464 10.7322C50.4895 10.683 50.4324 10.6339 50.3751 10.585C50.2829 10.5048 50.1902 10.4252 50.0968 10.3462C49.9274 10.198 49.756 10.0518 49.5827 9.90758C49.5369 9.86824 49.4909 9.82904 49.4449 9.78998C49.3592 9.7158 49.2731 9.64212 49.1865 9.56895C49.1261 9.51682 49.0654 9.46494 49.0045 9.4133C48.927 9.34616 48.8491 9.27944 48.7707 9.21313C48.719 9.16841 48.6671 9.12387 48.6151 9.07951C48.5749 9.04492 48.5346 9.01043 48.4941 8.97606C48.437 8.92634 48.3796 8.87683 48.3219 8.82756C48.2128 8.7322 48.1029 8.63766 47.9921 8.54395C47.8815 8.44835 47.7701 8.35359 47.6578 8.25967C47.6245 8.23115 47.591 8.20271 47.5575 8.17435L47.5332 8.15353C47.4626 8.09271 47.3918 8.03222 47.3206 7.97208L47.2892 7.94527C47.2432 7.90571 47.1971 7.86629 47.1509 7.82702C47.07 7.7568 46.9886 7.68703 46.9067 7.6177C46.8243 7.54633 46.7414 7.47543 46.658 7.405L46.6079 7.36229L46.579 7.33747C46.5252 7.29093 46.4713 7.24459 46.4171 7.19844C46.367 7.15527 46.3167 7.11227 46.2663 7.06944C46.1814 6.99586 46.0961 6.92277 46.0103 6.85019C45.9479 6.79627 45.8853 6.74262 45.8223 6.68923C45.7765 6.64996 45.7306 6.61082 45.6845 6.57183L45.6542 6.54596C45.3582 6.29079 45.0562 6.0416 44.7485 5.79862C39.9858 2.02287 34.0848 -0.0214839 28.0111 0.000170269C24.4536 3.93854e-05 20.9309 0.70185 17.6441 2.06553C14.3574 3.42921 11.3709 5.42805 8.85532 7.94792C6.33973 10.4678 4.34425 13.4593 2.98281 16.7518C1.62138 20.0442 0.920654 23.573 0.920654 27.1367C0.920654 34.3892 3.72332 41.1983 8.80931 46.311ZM97.0756 2994.61L97.052 2994.59L96.952 2994.5L96.9009 2994.46L96.8232 2994.39L96.768 2994.35L96.6751 2994.27L96.5551 2994.17C96.4657 2994.09 96.3777 2994.02 96.2911 2993.94L96.2852 2993.93C96.1677 2993.84 96.0525 2993.74 95.9396 2993.64L95.8717 2993.58L95.8231 2993.54C95.7132 2993.45 95.6054 2993.36 95.4995 2993.26L95.3962 2993.17L95.3315 2993.12C95.292 2993.09 95.2528 2993.05 95.2138 2993.02L95.1324 2992.95L95.0729 2992.9L95.0233 2992.85L94.962 2992.8L94.8973 2992.75L94.8446 2992.7C94.8072 2992.67 94.7701 2992.64 94.7332 2992.61L94.626 2992.51C94.5577 2992.46 94.4901 2992.4 94.4233 2992.34C94.3842 2992.31 94.3454 2992.28 94.3069 2992.24C94.1785 2992.14 94.053 2992.03 93.9301 2991.92L93.8615 2991.86L93.8196 2991.82C93.8088 2991.81 93.7985 2991.8 93.7877 2991.8C93.2189 2993.11 92.407 2994.31 91.3884 2995.33C90.2331 2996.48 88.8479 2997.38 87.3297 2997.95C87.4328 2998.03 87.5345 2998.12 87.6347 2998.21L87.6957 2998.26C87.7596 2998.32 87.8229 2998.37 87.8857 2998.42C88.0053 2998.52 88.1229 2998.62 88.2387 2998.72L88.3523 2998.82C88.395 2998.86 88.4373 2998.9 88.4794 2998.93L88.5308 2998.98C88.6141 2999.05 88.6963 2999.12 88.7777 2999.19L88.8563 2999.26L88.9177 2999.31L88.9513 2999.34C89.0293 2999.4 89.1062 2999.47 89.1825 2999.53L89.2349 2999.58L89.3368 2999.66L89.4061 2999.72L89.4659 2999.77L89.5291 2999.83L89.6526 2999.93C91.0869 2997.08 93.8526 2995.08 97.0756 2994.61ZM70.3993 3014.25C69.8528 3013.78 69.3224 3013.28 68.8093 3012.77C63.7233 3007.66 60.9207 3000.85 60.9207 2993.59C60.9207 2990.03 61.6214 2986.5 62.9828 2983.21C64.3443 2979.92 66.3398 2976.93 68.8554 2974.41C71.3709 2971.89 74.3574 2969.89 77.6441 2968.52C80.9309 2967.16 84.4536 2966.46 88.0111 2966.46C94.0848 2966.44 99.9859 2968.48 104.749 2972.26C105.055 2972.5 105.356 2972.75 105.651 2973L105.735 2973.07L105.837 2973.16L105.94 2973.25L106.057 2973.35L106.198 2973.47L106.274 2973.53L106.404 2973.65L106.512 2973.74L106.576 2973.79L106.613 2973.83L106.665 2973.87C106.744 2973.94 106.823 2974 106.902 2974.07C106.95 2974.11 106.999 2974.15 107.047 2974.2L107.136 2974.27L107.159 2974.29L107.314 2974.42L107.373 2974.47C107.429 2974.52 107.484 2974.57 107.539 2974.62L107.684 2974.74C107.776 2974.82 107.867 2974.89 107.958 2974.97C108.091 2975.09 108.224 2975.2 108.356 2975.31L108.473 2975.42L108.555 2975.49L108.648 2975.57L108.746 2975.65C108.835 2975.73 108.924 2975.8 109.012 2975.88C109.081 2975.94 109.15 2976 109.219 2976.05C109.275 2976.1 109.331 2976.15 109.387 2976.2L109.406 2976.21L109.476 2976.27L109.596 2976.38C109.769 2976.52 109.939 2976.67 110.108 2976.81C110.191 2976.88 110.273 2976.96 110.356 2977.03L110.458 2977.11L110.535 2977.18L110.72 2977.34L110.812 2977.42L110.938 2977.53L110.961 2977.54L111.091 2977.66C111.144 2977.7 111.197 2977.75 111.249 2977.79C115.46 2981.42 118.473 2986.25 119.87 2991.65C120.02 2992.24 120.038 2992.85 119.923 2993.44C119.809 2994.04 119.565 2994.6 119.208 2995.09C118.852 2995.58 118.392 2995.99 117.861 2996.28C117.331 2996.57 116.742 2996.74 116.138 2996.78L113.79 2996.92C113.827 2996.95 113.865 2996.98 113.901 2997.02C113.923 2997.04 113.945 2997.05 113.967 2997.07L114.035 2997.13C114.074 2997.16 114.113 2997.2 114.151 2997.23L114.181 2997.26C114.226 2997.29 114.271 2997.33 114.314 2997.37L114.371 2997.42C114.407 2997.45 114.443 2997.48 114.478 2997.51L114.511 2997.54L114.57 2997.59L114.633 2997.64C114.672 2997.68 114.709 2997.71 114.747 2997.74C114.811 2997.79 114.873 2997.85 114.934 2997.9L114.973 2997.94L115.037 2997.99C115.068 2998.02 115.099 2998.04 115.13 2998.07C115.152 2998.09 115.173 2998.1 115.195 2998.12C115.227 2998.15 115.258 2998.17 115.289 2998.2C115.329 2998.24 115.369 2998.27 115.408 2998.31L115.441 2998.34L115.498 2998.39L115.537 2998.42L115.589 2998.47C115.632 2998.5 115.673 2998.53 115.715 2998.57L115.779 2998.62C115.867 2998.69 115.951 2998.76 116.033 2998.84C116.066 2998.87 116.098 2998.9 116.131 2998.93L116.145 2998.94C116.196 2998.98 116.247 2999.02 116.296 2999.07C116.341 2999.1 116.386 2999.14 116.429 2999.18C116.463 2999.21 116.496 2999.24 116.529 2999.27C116.552 2999.29 116.575 2999.31 116.598 2999.33C116.636 2999.36 116.673 2999.39 116.71 2999.42C116.783 2999.48 116.854 2999.54 116.923 2999.61C116.964 2999.64 117.004 2999.67 117.044 2999.71L117.087 2999.74C117.133 2999.78 117.178 2999.81 117.222 2999.85C117.273 2999.9 117.323 2999.94 117.372 2999.99L117.412 3000.02C117.471 3000.07 117.528 3000.12 117.585 3000.17C117.653 3000.23 117.719 3000.28 117.784 3000.34C117.809 3000.36 117.834 3000.38 117.859 3000.4C117.909 3000.44 117.957 3000.48 118.005 3000.52C118.06 3000.57 118.114 3000.62 118.166 3000.67L118.208 3000.71C118.272 3000.76 118.334 3000.81 118.395 3000.86L118.463 3000.92C118.49 3000.94 118.516 3000.97 118.542 3000.99C118.791 3001.2 119.015 3001.44 119.209 3001.71C119.565 3002.2 119.809 3002.77 119.922 3003.36C120.036 3003.96 120.016 3004.57 119.865 3005.16C118.37 3010.99 114.98 3016.16 110.229 3019.85C105.477 3023.54 99.6357 3025.54 93.6244 3025.54H93.5379C86.9851 3025.52 80.8027 3023.2 75.9164 3018.97L75.891 3018.95L75.7524 3018.83L75.7326 3018.81L75.6511 3018.74L75.5546 3018.66L75.462 3018.58C75.3814 3018.51 75.3014 3018.44 75.2215 3018.37L75.1989 3018.35C75.1203 3018.29 75.0425 3018.22 74.9645 3018.15L74.8947 3018.09L74.8257 3018.03C74.749 3017.97 74.6732 3017.9 74.5972 3017.84L74.4901 3017.75L74.4174 3017.68C74.3382 3017.62 74.2593 3017.55 74.1808 3017.48C74.0923 3017.41 74.0041 3017.33 73.9163 3017.26L73.8193 3017.17C73.6712 3017.05 73.5245 3016.92 73.3787 3016.8L73.3393 3016.76L73.2273 3016.67L73.107 3016.56L73.03 3016.5L72.9394 3016.42L72.8311 3016.33L72.8166 3016.31L72.6794 3016.2L72.5572 3016.09L72.4695 3016.02L72.3914 3015.95C72.3335 3015.9 72.2761 3015.85 72.2187 3015.8C72.1118 3015.71 72.0061 3015.62 71.9006 3015.53C71.7262 3015.39 71.5538 3015.24 71.3828 3015.09L71.3083 3015.02L71.139 3014.88L70.961 3014.73L70.8648 3014.64C70.7893 3014.58 70.7147 3014.52 70.6398 3014.45C70.5591 3014.38 70.4792 3014.32 70.3993 3014.25ZM50.4303 30.2512L39.0714 29.5535C35.046 29.3014 31.337 31.9225 30.352 35.8463C30.3291 35.94 30.3072 36.0327 30.2863 36.1264L29.2477 40.8425C29.2273 40.9369 29.1753 41.0216 29.1003 41.0823C29.0253 41.143 28.9317 41.1761 28.8353 41.1761C28.7388 41.1761 28.6453 41.143 28.5702 41.0823C28.4952 41.0216 28.4432 40.9369 28.4229 40.8425L27.3852 36.1264C26.9787 34.2825 26.0546 32.5935 24.7216 31.2583C23.3886 29.9232 21.7024 28.9977 19.8617 28.5908L15.1547 27.5503C15.0604 27.5299 14.9759 27.4778 14.9153 27.4027C14.8547 27.3275 14.8217 27.2338 14.8217 27.1372C14.8217 27.0405 14.8547 26.9468 14.9153 26.8717C14.9759 26.7965 15.0604 26.7444 15.1547 26.7241L19.8617 25.6836C21.7024 25.2767 23.3886 24.3511 24.7216 23.016C26.0546 21.6809 26.9787 19.9918 27.3852 18.148L28.4239 13.4279C28.4442 13.3334 28.4962 13.2488 28.5712 13.1881C28.6463 13.1274 28.7398 13.0943 28.8363 13.0943C28.9327 13.0943 29.0263 13.1274 29.1013 13.1881C29.1763 13.2488 29.2283 13.3334 29.2486 13.4279L30.2873 18.143C30.3082 18.2367 30.3301 18.3304 30.353 18.423C31.337 22.3468 35.041 24.965 39.0714 24.7168L50.4303 24.0192C50.8147 23.9958 51.1892 23.8877 51.5271 23.7027C51.865 23.5177 52.158 23.2604 52.3853 22.949C52.6126 22.6375 52.7685 22.2798 52.8419 21.9011C52.9153 21.5224 52.9045 21.1322 52.8101 20.7582C49.9786 9.68251 39.9499 1.49512 28.011 1.49512C13.8743 1.49512 2.4129 12.9754 2.4129 27.1367C2.40584 30.4991 3.06039 33.83 4.33915 36.9389C5.61791 40.0478 7.49579 42.8738 9.86545 45.2552C12.2351 47.6367 15.0501 49.5269 18.1494 50.818C21.2488 52.109 24.5718 52.7754 27.9284 52.7792C39.8982 52.8221 49.9637 44.6237 52.8072 33.5281C52.9033 33.1533 52.9156 32.7619 52.8432 32.3818C52.7709 32.0018 52.6156 31.6424 52.3886 31.3293C52.1615 31.0163 51.8683 30.7573 51.5298 30.571C51.1912 30.3846 50.8158 30.2754 50.4303 30.2512Z" fill="white"/>
</g>
<defs>
<clipPath id="clip0_532_1459">
<rect width="60" height="60" fill="white"/>
</clipPath>
</defs>
</svg>
