<svg width="60" height="60" viewBox="0 0 60 60" fill="none" xmlns="http://www.w3.org/2000/svg">
<path fill-rule="evenodd" clip-rule="evenodd" d="M8.01192 47.0347C8.53966 47.5652 9.08547 48.0715 9.64797 48.553C9.71499 48.611 9.78225 48.6686 9.84975 48.7259C9.94709 48.8102 10.0449 48.8939 10.1433 48.9767L10.1862 49.0132C10.2593 49.0766 10.3326 49.1395 10.4063 49.202C10.445 49.2352 10.4838 49.2683 10.5226 49.3012C10.5509 49.3258 10.5793 49.3502 10.6077 49.3746L10.6261 49.3905C10.7972 49.5405 10.9699 49.6883 11.1442 49.8336C11.2687 49.9421 11.394 50.0492 11.5202 50.1552C11.5614 50.1906 11.6028 50.2258 11.6442 50.261L11.6993 50.308C11.7404 50.3435 11.7817 50.3788 11.823 50.414C11.871 50.4554 11.9192 50.4965 11.9675 50.5375C12.0018 50.567 12.0361 50.5963 12.0706 50.6256C12.1711 50.7128 12.2721 50.7992 12.3737 50.8849L12.4423 50.9438C12.5082 51.0008 12.5744 51.0575 12.6407 51.1139C12.7928 51.2472 12.9461 51.3786 13.1006 51.5082C13.1425 51.5441 13.1845 51.5799 13.2266 51.6155C13.3785 51.7483 13.5316 51.8792 13.6859 52.0083L13.7309 52.0467C13.7805 52.0893 13.8302 52.1318 13.88 52.1741C13.9598 52.2432 14.0399 52.3117 14.1203 52.3798L14.2144 52.46L14.2665 52.5045C14.3368 52.5652 14.4074 52.6254 14.4782 52.6852L14.4975 52.7019C14.5887 52.7813 14.6804 52.8601 14.7725 52.9382C14.8543 53.0091 14.9364 53.0794 15.0188 53.1492L15.1098 53.2266L15.1639 53.2729L15.2156 53.3168L15.2745 53.3672C20.23 57.6394 26.4917 59.9797 33.1268 60.0007H33.2147C39.32 60.0047 45.253 57.9733 50.0783 54.2265C54.9037 50.4797 58.3471 45.2307 59.8655 39.307C60.019 38.7098 60.0388 38.086 59.9236 37.4802C59.8084 36.8744 59.561 36.3015 59.199 35.8027C58.9998 35.5281 58.7686 35.2797 58.511 35.0624C58.466 35.0216 58.4201 34.9818 58.3734 34.9431C58.3117 34.8881 58.2484 34.835 58.1835 34.7838C58.169 34.7705 58.1543 34.7574 58.1396 34.7444C58.0398 34.6495 57.9353 34.5595 57.8266 34.4749C57.803 34.4552 57.7792 34.4357 57.7551 34.4165C57.6888 34.3554 57.6206 34.2965 57.5505 34.2398C57.4799 34.1741 57.4069 34.1108 57.3319 34.0501C57.2402 33.9645 57.1448 33.8829 57.0458 33.8059C57.0359 33.7976 57.0259 33.7893 57.0159 33.7811C57.0102 33.7765 57.0045 33.7718 56.9988 33.7672C56.9571 33.7309 56.9147 33.6954 56.8716 33.6607C56.8067 33.6006 56.74 33.5425 56.6715 33.4865C56.6305 33.4506 56.5888 33.4154 56.5465 33.3811C56.5212 33.3592 56.4957 33.3375 56.47 33.3162C56.4382 33.2879 56.4059 33.2601 56.3732 33.2328C56.3316 33.1954 56.2892 33.1588 56.2461 33.1231C56.193 33.0759 56.1387 33.0301 56.0833 32.9857C56.0459 32.9511 56.0079 32.9172 55.9693 32.884C55.8861 32.8075 55.7999 32.7344 55.7109 32.6648C55.6929 32.6497 55.6747 32.6347 55.6565 32.6199C55.6129 32.5819 55.5685 32.5448 55.5233 32.5086C55.5037 32.4917 55.4839 32.4751 55.464 32.4586C55.4365 32.434 55.4086 32.4099 55.3804 32.3861C55.3749 32.381 55.3693 32.376 55.3637 32.371C55.3556 32.3638 55.3475 32.3565 55.3393 32.3493C55.2483 32.2631 55.1534 32.1809 55.055 32.1032C55.0373 32.0882 55.0195 32.0733 55.0015 32.0586L54.9748 32.0369L54.9571 32.0227C54.9438 32.0112 54.9303 31.9999 54.9168 31.9886L54.9023 31.9766C54.8891 31.9649 54.8758 31.9533 54.8624 31.9417C54.7956 31.8796 54.7267 31.8197 54.6559 31.7621C54.6214 31.732 54.5865 31.7024 54.5511 31.6734C54.5108 31.6381 54.47 31.6035 54.4284 31.5698L54.4002 31.5453C54.3423 31.4921 54.283 31.4406 54.2223 31.3908C54.1704 31.345 54.1173 31.3004 54.0632 31.2572C54.0028 31.2018 53.9408 31.1481 53.8773 31.0963C53.8622 31.083 53.847 31.0699 53.8317 31.0568L53.8114 31.0396C53.773 31.005 53.734 30.971 53.6943 30.9378L56.0804 30.7913C56.6937 30.7537 57.2912 30.581 57.8302 30.2854C58.3693 29.9898 58.8365 29.5786 59.1985 29.0813C59.5606 28.5839 59.8086 28.0126 59.9247 27.4081C60.0409 26.8036 60.0224 26.1809 59.8706 25.5844C58.4444 20.0706 55.3597 15.1395 51.0479 11.4532C50.9692 11.3852 50.89 11.3175 50.8105 11.2503L50.755 11.2031L50.7207 11.1737C50.6806 11.139 50.6404 11.1045 50.6001 11.07C50.5322 11.0114 50.4641 10.9531 50.3956 10.8951C50.3416 10.8483 50.2873 10.8017 50.2329 10.7553C50.1375 10.6722 50.0414 10.5897 49.9447 10.5079C49.7726 10.3573 49.5985 10.2088 49.4224 10.0623C49.3721 10.0191 49.3217 9.9761 49.2711 9.93324C49.1897 9.86286 49.108 9.79292 49.0257 9.72344C48.9645 9.67054 48.903 9.61789 48.8412 9.5655C48.7585 9.49387 48.6754 9.4227 48.5919 9.352C48.5454 9.31182 48.4988 9.27179 48.452 9.23191C48.4053 9.19168 48.3585 9.1516 48.3115 9.11167C48.2571 9.06443 48.2026 9.01738 48.1478 8.97054C48.0313 8.86861 47.9138 8.7676 47.7954 8.66753C47.6887 8.57544 47.5813 8.48412 47.4731 8.39358C47.4352 8.36117 47.3972 8.32885 47.3591 8.29663C47.2777 8.22627 47.1959 8.15636 47.1136 8.0869L47.0929 8.06931C47.0462 8.02911 46.9994 7.98905 46.9524 7.94914C46.8722 7.87955 46.7915 7.81039 46.7105 7.74167C46.6211 7.66422 46.5311 7.5873 46.4406 7.51093L46.4011 7.4773L46.3596 7.4417C46.3128 7.40122 46.2658 7.36089 46.2187 7.3207C46.1621 7.27186 46.1053 7.22323 46.0482 7.17482C45.9659 7.10349 45.8832 7.03263 45.8 6.96222C45.7309 6.90247 45.6614 6.84304 45.5917 6.78394C45.5566 6.75387 45.5214 6.7239 45.4862 6.694L45.4206 6.63798C45.1238 6.3824 44.8211 6.13275 44.5127 5.88923C39.6756 2.05448 33.6823 -0.0218196 27.5137 0.00017293C23.9006 4.00008e-05 20.3229 0.712816 16.9848 2.0978C13.6467 3.48279 10.6136 5.51286 8.05865 8.07211C5.50375 10.6314 3.47709 13.6696 2.09438 17.0135C0.711671 20.3574 0 23.9413 0 27.5607C0 34.9266 2.84646 41.842 8.01192 47.0347ZM36.7044 28.5789L36.7199 28.5927C33.4467 29.0702 30.6378 31.0989 29.181 33.9973C29.1371 33.9596 29.093 33.9222 29.0486 33.8852C28.9515 33.7998 28.853 33.7162 28.7533 33.6342L28.6942 33.5848C28.6211 33.5208 28.5472 33.4578 28.4727 33.3958L28.4576 33.383C28.3986 33.3315 28.3392 33.2807 28.2792 33.2305C28.197 33.158 28.1138 33.0867 28.0297 33.0167L28.0009 32.9922C27.9572 32.9542 27.9133 32.9165 27.8691 32.8792C27.8233 32.8384 27.7772 32.7981 27.7308 32.7581C27.6198 32.6601 27.507 32.5644 27.3926 32.4709C27.325 32.4127 27.2567 32.3553 27.1879 32.2987L27.1439 32.2609C27.0382 32.1656 26.9308 32.0724 26.8219 31.9813C28.3638 31.4008 29.7705 30.4958 30.9437 29.3204C31.9777 28.2845 32.8021 27.0669 33.3797 25.7351C33.4125 25.7632 33.4455 25.7912 33.4787 25.8189L33.5221 25.856C33.65 25.9716 33.7809 26.0838 33.9147 26.1926C34.0165 26.2832 34.1202 26.3717 34.2256 26.4581L34.2276 26.4597C34.2663 26.4933 34.3052 26.5267 34.3445 26.5597L34.3927 26.6012L34.4353 26.6375C34.5009 26.6947 34.5672 26.7511 34.6343 26.8065C34.759 26.9194 34.8866 27.0291 35.0169 27.1355C35.0549 27.1685 35.0932 27.2012 35.1317 27.2336C35.2324 27.3234 35.335 27.4112 35.4393 27.4969C35.4859 27.5376 35.5328 27.5778 35.5802 27.6176C35.6881 27.7139 35.7982 27.8079 35.9102 27.8995L35.921 27.9085C36.0117 27.9893 36.1039 28.0685 36.1976 28.146C36.2628 28.2033 36.3288 28.2597 36.3955 28.3152C36.4192 28.3356 36.443 28.3558 36.4669 28.376C36.5025 28.4069 36.5384 28.4375 36.5744 28.4679C36.6174 28.5053 36.6607 28.5423 36.7044 28.5789ZM50.2834 30.7239L38.747 30.0154C34.6587 29.7593 30.8917 32.4214 29.8913 36.4065C29.8681 36.5016 29.8459 36.5958 29.8246 36.6909L28.7697 41.4807C28.7491 41.5766 28.6963 41.6626 28.6201 41.7242C28.5438 41.7859 28.4488 41.8195 28.3509 41.8195C28.2529 41.8195 28.1579 41.7859 28.0817 41.7242C28.0055 41.6626 27.9527 41.5766 27.932 41.4807L26.8781 36.6909C26.4654 34.8182 25.5267 33.1028 24.1729 31.7468C22.8191 30.3908 21.1065 29.4508 19.2371 29.0376L14.4566 27.9808C14.3608 27.9602 14.275 27.9072 14.2135 27.8309C14.1519 27.7546 14.1183 27.6594 14.1183 27.5612C14.1183 27.4631 14.1519 27.3679 14.2135 27.2916C14.275 27.2153 14.3608 27.1623 14.4566 27.1417L19.2371 26.0849C21.1065 25.6717 22.8191 24.7317 24.1729 23.3757C25.5267 22.0197 26.4654 20.3043 26.8781 18.4316L27.9331 13.6378C27.9537 13.5418 28.0065 13.4559 28.0827 13.3942C28.1589 13.3325 28.2539 13.2989 28.3519 13.2989C28.4499 13.2989 28.5449 13.3325 28.6211 13.3942C28.6973 13.4559 28.7501 13.5418 28.7707 13.6378L29.8256 18.4265C29.8469 18.5217 29.8691 18.6168 29.8923 18.711C30.8917 22.696 34.6536 25.3551 38.747 25.1031L50.2834 24.3945C50.6737 24.3708 51.0541 24.261 51.3973 24.0731C51.7405 23.8853 52.0381 23.6239 52.2689 23.3076C52.4997 22.9913 52.6581 22.6279 52.7326 22.2433C52.8072 21.8588 52.7962 21.4624 52.7004 21.0826C49.8246 9.83386 39.6392 1.51853 27.5137 1.51853C13.1561 1.51853 1.51566 13.1782 1.51566 27.5607C1.50849 30.9757 2.17327 34.3587 3.47201 37.5161C4.77075 40.6736 6.67798 43.5437 9.08466 45.9624C11.4913 48.3811 14.3503 50.3009 17.4981 51.6121C20.6459 52.9232 24.0208 53.6001 27.4298 53.604C39.5867 53.6475 49.8095 45.321 52.6973 34.0521C52.795 33.6714 52.8075 33.2739 52.734 32.8879C52.6605 32.5018 52.5028 32.1368 52.2722 31.8189C52.0416 31.501 51.7438 31.238 51.4 31.0487C51.0562 30.8594 50.6749 30.7485 50.2834 30.7239Z" fill="#594842"/>
</svg>
