<svg width="60" height="60" viewBox="0 0 60 60" fill="none" xmlns="http://www.w3.org/2000/svg">
<rect width="60" height="60" rx="30" fill="#F2EEEB"/>
<path d="M31 30C31 34.6875 27.4125 38.5 23 38.5C18.5875 38.5 15 34.6875 15 30C15 25.3125 18.5875 21.5 23 21.5C27.4125 21.5 31 25.3125 31 30ZM37 22C36.2875 22 34.95 22.35 33.9625 24.6625C33.3375 26.1 33 28 33 30C33 32 33.3375 33.9 33.9625 35.3375C34.95 37.65 36.2875 38 37 38C37.7125 38 39.05 37.65 40.0375 35.3375C40.6625 33.9 41 32 41 30C41 28 40.6625 26.1 40.0375 24.6625C39.05 22.35 37.7125 22 37 22ZM44 22C43.7348 22 43.4804 22.1054 43.2929 22.2929C43.1054 22.4804 43 22.7348 43 23V37C43 37.2652 43.1054 37.5196 43.2929 37.7071C43.4804 37.8946 43.7348 38 44 38C44.2652 38 44.5196 37.8946 44.7071 37.7071C44.8946 37.5196 45 37.2652 45 37V23C45 22.7348 44.8946 22.4804 44.7071 22.2929C44.5196 22.1054 44.2652 22 44 22Z" fill="#594842"/>
</svg>
